G04 #@! TF.FileFunction,Soldermask,Bot*
%FSLAX46Y46*%
G04 Gerber Fmt 4.6, Leading zero omitted, Abs format (unit mm)*
G04 Created by KiCad (PCBNEW 4.0.7) date Thu Feb 22 22:50:24 2018*
%MOMM*%
%LPD*%
G01*
G04 APERTURE LIST*
%ADD10C,0.100000*%
%ADD11C,3.200000*%
%ADD12R,1.000000X1.600000*%
%ADD13C,3.000000*%
%ADD14R,3.000000X3.000000*%
%ADD15R,1.600000X1.000000*%
%ADD16R,0.750000X0.300000*%
%ADD17R,0.750000X1.450000*%
%ADD18C,1.100000*%
%ADD19C,1.500000*%
%ADD20R,2.950000X2.400000*%
%ADD21R,2.650000X2.400000*%
%ADD22C,1.550000*%
%ADD23R,0.900000X1.700000*%
%ADD24R,1.700000X0.900000*%
%ADD25R,1.700000X1.700000*%
%ADD26O,1.700000X1.700000*%
%ADD27C,1.200000*%
%ADD28R,2.800000X1.000000*%
G04 APERTURE END LIST*
D10*
D11*
X118200000Y-116600000D03*
D12*
X65700000Y-96400000D03*
X62700000Y-96400000D03*
D11*
X49000000Y-116400000D03*
X118200000Y-26600000D03*
D13*
X83200000Y-31510000D03*
D14*
X83200000Y-52000000D03*
D15*
X78800000Y-25500000D03*
X78800000Y-28500000D03*
X82000000Y-25500000D03*
X82000000Y-28500000D03*
X85400000Y-25500000D03*
X85400000Y-28500000D03*
X88800000Y-25500000D03*
X88800000Y-28500000D03*
X92200000Y-25500000D03*
X92200000Y-28500000D03*
X95400000Y-25500000D03*
X95400000Y-28500000D03*
X98600000Y-25500000D03*
X98600000Y-28500000D03*
D12*
X116200000Y-35500000D03*
X119200000Y-35500000D03*
D16*
X58200000Y-30250000D03*
X58200000Y-29600000D03*
X58200000Y-28950000D03*
X60200000Y-28950000D03*
X60200000Y-29600000D03*
X60200000Y-30250000D03*
D17*
X59200000Y-29600000D03*
D18*
X106003950Y-27603950D03*
X109596050Y-27603950D03*
X109596050Y-31196050D03*
D19*
X59000000Y-33400000D03*
X62200000Y-33400000D03*
X65600000Y-33400000D03*
X45750000Y-107350000D03*
X45750000Y-104150000D03*
X45750000Y-100850000D03*
X49400000Y-110800000D03*
X45750000Y-110750000D03*
X45700000Y-97200000D03*
X117600000Y-45400000D03*
X49800000Y-100800000D03*
X108400000Y-58000000D03*
X49900000Y-97300000D03*
X49700000Y-104200000D03*
X53000000Y-110800000D03*
D15*
X54400000Y-31500000D03*
X54400000Y-28500000D03*
D20*
X103625000Y-119300000D03*
D21*
X103475000Y-109600000D03*
D20*
X110175000Y-116600000D03*
D21*
X110325000Y-109600000D03*
D22*
X106900000Y-118000000D03*
X106900000Y-112000000D03*
D23*
X114750000Y-109600000D03*
X117650000Y-109600000D03*
D24*
X75600000Y-25550000D03*
X75600000Y-28450000D03*
X71000000Y-25550000D03*
X71000000Y-28450000D03*
X67600000Y-25550000D03*
X67600000Y-28450000D03*
X64200000Y-25550000D03*
X64200000Y-28450000D03*
D23*
X116150000Y-32000000D03*
X119050000Y-32000000D03*
D25*
X76600000Y-60600000D03*
D26*
X79140000Y-60600000D03*
X81680000Y-60600000D03*
X84220000Y-60600000D03*
X86760000Y-60600000D03*
X89300000Y-60600000D03*
D25*
X80000000Y-66400000D03*
D26*
X82540000Y-66400000D03*
X85080000Y-66400000D03*
D25*
X97200000Y-60800000D03*
D26*
X97200000Y-58260000D03*
D25*
X69800000Y-60600000D03*
D26*
X69800000Y-58060000D03*
D25*
X69800000Y-52600000D03*
D26*
X72340000Y-52600000D03*
X74880000Y-52600000D03*
D25*
X50600000Y-39800000D03*
D26*
X50600000Y-37260000D03*
D27*
X106800000Y-24400000D03*
X108800000Y-24400000D03*
X112800000Y-28400000D03*
X112800000Y-30400000D03*
D11*
X48200000Y-26600000D03*
D28*
X90300000Y-105600000D03*
X90300000Y-101600000D03*
X96100000Y-101600000D03*
X96100000Y-105600000D03*
X80300000Y-95600000D03*
X80300000Y-91600000D03*
X86100000Y-91600000D03*
X86100000Y-95600000D03*
X80300000Y-105600000D03*
X80300000Y-101600000D03*
X86100000Y-101600000D03*
X86100000Y-105600000D03*
X70300000Y-105600000D03*
X70300000Y-101600000D03*
X76100000Y-101600000D03*
X76100000Y-105600000D03*
X80300000Y-115600000D03*
X80300000Y-111600000D03*
X86100000Y-111600000D03*
X86100000Y-115600000D03*
M02*
