G04 #@! TF.FileFunction,Copper,L2,Bot,Signal*
%FSLAX46Y46*%
G04 Gerber Fmt 4.6, Leading zero omitted, Abs format (unit mm)*
G04 Created by KiCad (PCBNEW 4.0.7) date Thu Feb 22 22:50:24 2018*
%MOMM*%
%LPD*%
G01*
G04 APERTURE LIST*
%ADD10C,0.100000*%
%ADD11R,1.000000X1.600000*%
%ADD12C,3.000000*%
%ADD13R,3.000000X3.000000*%
%ADD14R,1.600000X1.000000*%
%ADD15R,0.750000X0.300000*%
%ADD16R,0.750000X1.450000*%
%ADD17C,1.100000*%
%ADD18C,1.500000*%
%ADD19R,2.950000X2.400000*%
%ADD20R,2.650000X2.400000*%
%ADD21C,1.550000*%
%ADD22R,0.900000X1.700000*%
%ADD23R,1.700000X0.900000*%
%ADD24R,1.700000X1.700000*%
%ADD25O,1.700000X1.700000*%
%ADD26R,2.800000X1.000000*%
%ADD27C,0.600000*%
%ADD28C,0.500000*%
%ADD29C,0.250000*%
%ADD30C,0.254000*%
G04 APERTURE END LIST*
D10*
D11*
X65700000Y-96400000D03*
X62700000Y-96400000D03*
D12*
X83200000Y-31510000D03*
D13*
X83200000Y-52000000D03*
D14*
X78800000Y-25500000D03*
X78800000Y-28500000D03*
X82000000Y-25500000D03*
X82000000Y-28500000D03*
X85400000Y-25500000D03*
X85400000Y-28500000D03*
X88800000Y-25500000D03*
X88800000Y-28500000D03*
X92200000Y-25500000D03*
X92200000Y-28500000D03*
X95400000Y-25500000D03*
X95400000Y-28500000D03*
X98600000Y-25500000D03*
X98600000Y-28500000D03*
D11*
X116200000Y-35500000D03*
X119200000Y-35500000D03*
D15*
X58200000Y-30250000D03*
X58200000Y-29600000D03*
X58200000Y-28950000D03*
X60200000Y-28950000D03*
X60200000Y-29600000D03*
X60200000Y-30250000D03*
D16*
X59200000Y-29600000D03*
D17*
X106003950Y-27603950D03*
X109596050Y-27603950D03*
X109596050Y-31196050D03*
D18*
X59000000Y-33400000D03*
X62200000Y-33400000D03*
X65600000Y-33400000D03*
X45750000Y-107350000D03*
X45750000Y-104150000D03*
X45750000Y-100850000D03*
X49400000Y-110800000D03*
X45750000Y-110750000D03*
X45700000Y-97200000D03*
X117600000Y-45400000D03*
X49800000Y-100800000D03*
X108400000Y-58000000D03*
X49900000Y-97300000D03*
X49700000Y-104200000D03*
X53000000Y-110800000D03*
D14*
X54400000Y-31500000D03*
X54400000Y-28500000D03*
D19*
X103625000Y-119300000D03*
D20*
X103475000Y-109600000D03*
D19*
X110175000Y-116600000D03*
D20*
X110325000Y-109600000D03*
D21*
X106900000Y-118000000D03*
X106900000Y-112000000D03*
D22*
X114750000Y-109600000D03*
X117650000Y-109600000D03*
D23*
X75600000Y-25550000D03*
X75600000Y-28450000D03*
X71000000Y-25550000D03*
X71000000Y-28450000D03*
X67600000Y-25550000D03*
X67600000Y-28450000D03*
X64200000Y-25550000D03*
X64200000Y-28450000D03*
D22*
X116150000Y-32000000D03*
X119050000Y-32000000D03*
D24*
X76600000Y-60600000D03*
D25*
X79140000Y-60600000D03*
X81680000Y-60600000D03*
X84220000Y-60600000D03*
X86760000Y-60600000D03*
X89300000Y-60600000D03*
D24*
X80000000Y-66400000D03*
D25*
X82540000Y-66400000D03*
X85080000Y-66400000D03*
D24*
X97200000Y-60800000D03*
D25*
X97200000Y-58260000D03*
D24*
X69800000Y-60600000D03*
D25*
X69800000Y-58060000D03*
D24*
X69800000Y-52600000D03*
D25*
X72340000Y-52600000D03*
X74880000Y-52600000D03*
D24*
X50600000Y-39800000D03*
D25*
X50600000Y-37260000D03*
D26*
X90300000Y-105600000D03*
X90300000Y-101600000D03*
X96100000Y-101600000D03*
X96100000Y-105600000D03*
X80300000Y-95600000D03*
X80300000Y-91600000D03*
X86100000Y-91600000D03*
X86100000Y-95600000D03*
X80300000Y-105600000D03*
X80300000Y-101600000D03*
X86100000Y-101600000D03*
X86100000Y-105600000D03*
X70300000Y-105600000D03*
X70300000Y-101600000D03*
X76100000Y-101600000D03*
X76100000Y-105600000D03*
X80300000Y-115600000D03*
X80300000Y-111600000D03*
X86100000Y-111600000D03*
X86100000Y-115600000D03*
D27*
X56600000Y-27400000D03*
X60800000Y-62800000D03*
X67200000Y-96600000D03*
X51800000Y-51800000D03*
X76800000Y-78500000D03*
X59700000Y-89900000D03*
X59000000Y-93800000D03*
X78500000Y-70100000D03*
X74200000Y-69800000D03*
X57800000Y-102300000D03*
X66700000Y-100100000D03*
X66200000Y-106300000D03*
X66100000Y-104200000D03*
X74400000Y-98000000D03*
X120400000Y-107000000D03*
X97800000Y-114800000D03*
X64900000Y-91400000D03*
X69400000Y-95800000D03*
X75600000Y-33500000D03*
X98000000Y-47800000D03*
X60800000Y-91300000D03*
X72000000Y-90200000D03*
X71800000Y-85200000D03*
X47200000Y-47800000D03*
X48600000Y-52800000D03*
X52200000Y-80200000D03*
X61600000Y-72000000D03*
X65400000Y-72000000D03*
X76200000Y-87400000D03*
X73200000Y-88800000D03*
X80200000Y-86000000D03*
X72400000Y-93800000D03*
X75600000Y-91800000D03*
X84200000Y-83800000D03*
X56800000Y-56800000D03*
X54400000Y-63400000D03*
X84600000Y-85800000D03*
X76000000Y-92600000D03*
X59700000Y-88900000D03*
X65000000Y-86800000D03*
X99200000Y-87200000D03*
X92600000Y-83400000D03*
X54400000Y-62000000D03*
X56800000Y-59400000D03*
X50400000Y-74600000D03*
X49600000Y-53600000D03*
X63800000Y-88000000D03*
X61000000Y-93800000D03*
X62600000Y-91400000D03*
X48600000Y-65600000D03*
X48600000Y-54300000D03*
X61500000Y-86800000D03*
X50200000Y-69000000D03*
X63800000Y-86800000D03*
X50200000Y-55200000D03*
X53600000Y-75200000D03*
X64000000Y-85400000D03*
X51000000Y-55600000D03*
X48000000Y-74800000D03*
X62400000Y-89600000D03*
X51800000Y-66400000D03*
X67200000Y-92600000D03*
X51800000Y-57800000D03*
X52600000Y-71600000D03*
X52600000Y-64400000D03*
X70200000Y-92800000D03*
X66800000Y-82200000D03*
X70400000Y-84200000D03*
X72600000Y-88200000D03*
X71800000Y-87800000D03*
X63800000Y-78400000D03*
X58800000Y-90600000D03*
X61000000Y-92800000D03*
X63500000Y-106000000D03*
X91400000Y-70000000D03*
X83400000Y-89000000D03*
X83100000Y-87300000D03*
X85900000Y-78900000D03*
X95600000Y-95400000D03*
X57100000Y-97200000D03*
X60800000Y-97800000D03*
X101600000Y-90800000D03*
X109200000Y-79000000D03*
X109000000Y-88000000D03*
X104200000Y-79000000D03*
X104200000Y-75200000D03*
D28*
X54400000Y-28500000D02*
X55500000Y-28500000D01*
X55500000Y-28500000D02*
X56600000Y-27400000D01*
X119050000Y-35350000D02*
X119200000Y-35500000D01*
X119200000Y-32150000D02*
X119050000Y-32000000D01*
X54400000Y-28500000D02*
X57750000Y-28500000D01*
X57750000Y-28500000D02*
X58200000Y-28950000D01*
X58200000Y-28950000D02*
X58200000Y-29600000D01*
D29*
X57750000Y-28500000D02*
X58200000Y-28950000D01*
X58200000Y-28950000D02*
X58200000Y-29600000D01*
D28*
X83200000Y-52000000D02*
X86200000Y-52000000D01*
X95000000Y-60800000D02*
X97200000Y-60800000D01*
X86200000Y-52000000D02*
X95000000Y-60800000D01*
X75600000Y-25550000D02*
X78750000Y-25550000D01*
X78750000Y-25550000D02*
X78800000Y-25500000D01*
X88800000Y-25500000D02*
X92200000Y-25500000D01*
X85400000Y-25500000D02*
X88800000Y-25500000D01*
X82000000Y-25500000D02*
X85400000Y-25500000D01*
X78800000Y-25500000D02*
X82000000Y-25500000D01*
X98600000Y-25500000D02*
X103900000Y-25500000D01*
X103900000Y-25500000D02*
X106003950Y-27603950D01*
X78750000Y-25550000D02*
X78800000Y-25500000D01*
X92200000Y-25500000D02*
X95400000Y-25500000D01*
X95400000Y-25500000D02*
X98600000Y-25500000D01*
D29*
X45750000Y-107350000D02*
X48850000Y-107350000D01*
X53900000Y-102300000D02*
X57800000Y-102300000D01*
X48850000Y-107350000D02*
X53900000Y-102300000D01*
D28*
X47800000Y-44600000D02*
X49600000Y-42800000D01*
X46100000Y-46300000D02*
X47800000Y-44600000D01*
X45750000Y-100850000D02*
X44100000Y-99200000D01*
X44100000Y-94900000D02*
X44100000Y-99200000D01*
X46100000Y-92900000D02*
X44100000Y-94900000D01*
X87000000Y-33300000D02*
X111400000Y-33300000D01*
X46100000Y-92900000D02*
X46100000Y-46300000D01*
X86700000Y-33300000D02*
X87000000Y-33300000D01*
X83800000Y-36200000D02*
X86700000Y-33300000D01*
X59400000Y-36200000D02*
X83800000Y-36200000D01*
X52800000Y-42800000D02*
X59400000Y-36200000D01*
X49600000Y-42800000D02*
X52800000Y-42800000D01*
X111400000Y-33300000D02*
X111400000Y-31000000D01*
X109596050Y-29196050D02*
X109596050Y-27603950D01*
X111400000Y-31000000D02*
X109596050Y-29196050D01*
X114000000Y-33300000D02*
X116200000Y-33300000D01*
X113000000Y-33300000D02*
X114000000Y-33300000D01*
X116200000Y-33300000D02*
X116200000Y-33200000D01*
X116200000Y-35500000D02*
X116200000Y-33200000D01*
X116200000Y-33200000D02*
X116200000Y-32050000D01*
X116200000Y-32050000D02*
X116150000Y-32000000D01*
X113200000Y-33300000D02*
X113000000Y-33300000D01*
X113000000Y-33300000D02*
X111400000Y-33300000D01*
X116200000Y-32050000D02*
X116150000Y-32000000D01*
X109596050Y-27603950D02*
X109696050Y-27603950D01*
D29*
X66700000Y-100800000D02*
X66700000Y-101500000D01*
X66700000Y-100100000D02*
X66700000Y-100800000D01*
X66900000Y-105600000D02*
X66200000Y-106300000D01*
X66900000Y-101700000D02*
X66900000Y-105600000D01*
X66700000Y-101500000D02*
X66900000Y-101700000D01*
X49400000Y-110800000D02*
X49400000Y-109900000D01*
X65500000Y-107000000D02*
X66200000Y-106300000D01*
X52300000Y-107000000D02*
X65500000Y-107000000D01*
X49400000Y-109900000D02*
X52300000Y-107000000D01*
X66100000Y-104200000D02*
X66100000Y-102200000D01*
X47200000Y-95700000D02*
X45700000Y-97200000D01*
X66100000Y-102200000D02*
X63200000Y-99300000D01*
X63200000Y-99300000D02*
X60700000Y-99300000D01*
X60700000Y-99300000D02*
X57100000Y-95700000D01*
X57100000Y-95700000D02*
X47200000Y-95700000D01*
D28*
X76200000Y-99800000D02*
X78200000Y-99800000D01*
X74400000Y-98000000D02*
X76200000Y-99800000D01*
X80300000Y-95600000D02*
X80300000Y-97700000D01*
X80300000Y-97700000D02*
X78200000Y-99800000D01*
X78200000Y-99800000D02*
X78200000Y-105600000D01*
X86100000Y-115600000D02*
X97000000Y-115600000D01*
X120400000Y-107000000D02*
X120400000Y-105800000D01*
X97000000Y-115600000D02*
X97800000Y-114800000D01*
X80300000Y-115600000D02*
X78200000Y-115600000D01*
X76100000Y-113500000D02*
X76100000Y-105600000D01*
X78200000Y-115600000D02*
X76100000Y-113500000D01*
X80300000Y-115600000D02*
X86100000Y-115600000D01*
X80300000Y-95600000D02*
X86100000Y-95600000D01*
X86100000Y-105600000D02*
X90300000Y-105600000D01*
X76100000Y-105600000D02*
X78200000Y-105600000D01*
X78200000Y-105600000D02*
X80300000Y-105600000D01*
X90300000Y-105600000D02*
X96100000Y-105600000D01*
X80300000Y-105600000D02*
X86100000Y-105600000D01*
X70300000Y-105600000D02*
X76100000Y-105600000D01*
D29*
X69400000Y-95800000D02*
X69300000Y-95900000D01*
X69300000Y-95900000D02*
X69200000Y-96000000D01*
X69200000Y-96000000D02*
X69300000Y-96000000D01*
D28*
X120400000Y-105800000D02*
X120400000Y-48200000D01*
X120400000Y-48200000D02*
X117600000Y-45400000D01*
X120400000Y-105800000D02*
X120400000Y-105600000D01*
X75600000Y-28450000D02*
X75600000Y-33500000D01*
D29*
X64900000Y-91400000D02*
X69300000Y-95800000D01*
X69300000Y-95800000D02*
X69300000Y-95900000D01*
X69300000Y-96000000D02*
X69300000Y-95900000D01*
X62700000Y-96400000D02*
X62700000Y-96300000D01*
X62700000Y-96300000D02*
X64900000Y-94100000D01*
X64900000Y-94100000D02*
X64900000Y-91400000D01*
D28*
X69800000Y-52600000D02*
X69800000Y-50800000D01*
X69800000Y-50800000D02*
X72800000Y-47800000D01*
X72800000Y-47800000D02*
X98000000Y-47800000D01*
X51200000Y-31200000D02*
X52400000Y-30000000D01*
X48600000Y-39800000D02*
X47800000Y-39000000D01*
X47800000Y-39000000D02*
X47800000Y-34600000D01*
X47800000Y-34600000D02*
X51200000Y-31200000D01*
X64150000Y-25600000D02*
X53600000Y-25600000D01*
X48600000Y-39800000D02*
X50600000Y-39800000D01*
X52400000Y-26800000D02*
X53600000Y-25600000D01*
X52400000Y-30000000D02*
X52400000Y-26800000D01*
X64150000Y-25600000D02*
X64200000Y-25550000D01*
D29*
X60800000Y-91300000D02*
X60900000Y-91400000D01*
D28*
X64200000Y-25550000D02*
X67600000Y-25550000D01*
X67600000Y-25550000D02*
X71000000Y-25550000D01*
X71000000Y-25550000D02*
X71050000Y-25600000D01*
X71050000Y-25600000D02*
X72750000Y-25600000D01*
X72750000Y-25600000D02*
X75600000Y-28450000D01*
D29*
X71000000Y-89200000D02*
X72000000Y-90200000D01*
X71000000Y-86000000D02*
X71000000Y-89200000D01*
X71800000Y-85200000D02*
X71000000Y-86000000D01*
X47200000Y-47800000D02*
X47200000Y-51200000D01*
X47200000Y-51200000D02*
X47200000Y-52000000D01*
X47200000Y-52000000D02*
X48000000Y-52800000D01*
X48000000Y-52800000D02*
X48600000Y-52800000D01*
X47200000Y-74600000D02*
X47200000Y-70800000D01*
X47200000Y-70800000D02*
X47200000Y-55800000D01*
X47200000Y-55800000D02*
X47200000Y-54800000D01*
X47200000Y-54800000D02*
X47200000Y-53600000D01*
X47200000Y-53600000D02*
X48000000Y-52800000D01*
X48000000Y-52800000D02*
X48600000Y-52800000D01*
X52200000Y-80200000D02*
X47200000Y-75200000D01*
X47200000Y-75200000D02*
X47200000Y-74600000D01*
X61600000Y-72000000D02*
X65400000Y-72000000D01*
X75400000Y-88200000D02*
X76200000Y-87400000D01*
X73800000Y-88200000D02*
X75400000Y-88200000D01*
X73200000Y-88800000D02*
X73800000Y-88200000D01*
X75200000Y-91000000D02*
X72400000Y-93800000D01*
X80200000Y-86000000D02*
X75200000Y-91000000D01*
X75600000Y-91800000D02*
X82400000Y-85000000D01*
X82400000Y-85000000D02*
X83600000Y-85000000D01*
X83600000Y-85000000D02*
X84200000Y-84400000D01*
X84200000Y-84400000D02*
X84200000Y-83800000D01*
X57400000Y-56800000D02*
X56800000Y-56800000D01*
X57800000Y-57200000D02*
X57400000Y-56800000D01*
X57800000Y-60000000D02*
X57800000Y-57200000D01*
X54400000Y-63400000D02*
X57800000Y-60000000D01*
X84600000Y-85800000D02*
X82800000Y-85800000D01*
X82800000Y-85800000D02*
X76000000Y-92600000D01*
X61400000Y-90600000D02*
X62300000Y-90600000D01*
X59700000Y-88900000D02*
X61400000Y-90600000D01*
X65000000Y-89000000D02*
X65000000Y-86800000D01*
X63400000Y-90600000D02*
X65000000Y-89000000D01*
X62300000Y-90600000D02*
X63400000Y-90600000D01*
X64200000Y-28450000D02*
X64200000Y-28400000D01*
X64200000Y-28400000D02*
X65800000Y-26800000D01*
X67000000Y-32000000D02*
X65600000Y-33400000D01*
X71600000Y-32000000D02*
X67000000Y-32000000D01*
X73600000Y-30000000D02*
X71600000Y-32000000D01*
X73600000Y-27600000D02*
X73600000Y-30000000D01*
X72800000Y-26800000D02*
X73600000Y-27600000D01*
X65800000Y-26800000D02*
X72800000Y-26800000D01*
X60200000Y-28950000D02*
X63700000Y-28950000D01*
X63700000Y-28950000D02*
X64200000Y-28450000D01*
X62200000Y-33400000D02*
X62200000Y-32200000D01*
X68650000Y-27400000D02*
X67600000Y-28450000D01*
X72400000Y-27400000D02*
X68650000Y-27400000D01*
X73000000Y-28000000D02*
X72400000Y-27400000D01*
X73000000Y-29600000D02*
X73000000Y-28000000D01*
X71400000Y-31200000D02*
X73000000Y-29600000D01*
X63200000Y-31200000D02*
X71400000Y-31200000D01*
X62200000Y-32200000D02*
X63200000Y-31200000D01*
X60200000Y-29600000D02*
X66450000Y-29600000D01*
X66450000Y-29600000D02*
X67600000Y-28450000D01*
X59200000Y-33400000D02*
X60200000Y-32400000D01*
X60200000Y-32400000D02*
X60200000Y-30400000D01*
X60200000Y-30400000D02*
X60200000Y-30250000D01*
X60200000Y-30250000D02*
X69200000Y-30250000D01*
X69200000Y-30250000D02*
X71000000Y-28450000D01*
D28*
X103475000Y-109600000D02*
X103475000Y-95675000D01*
X99200000Y-91400000D02*
X99200000Y-87200000D01*
X103475000Y-95675000D02*
X99200000Y-91400000D01*
X103625000Y-119300000D02*
X103625000Y-116425000D01*
X92600000Y-87600000D02*
X92600000Y-83400000D01*
X99600000Y-94600000D02*
X92600000Y-87600000D01*
X99600000Y-112400000D02*
X99600000Y-94600000D01*
X103625000Y-116425000D02*
X99600000Y-112400000D01*
X114750000Y-109600000D02*
X114750000Y-112025000D01*
X114750000Y-112025000D02*
X110175000Y-116600000D01*
D29*
X56800000Y-59600000D02*
X54400000Y-62000000D01*
X56800000Y-59400000D02*
X56800000Y-59600000D01*
X62600000Y-86800000D02*
X63800000Y-88000000D01*
X49600000Y-53600000D02*
X49400000Y-53800000D01*
X49400000Y-53800000D02*
X49400000Y-73600000D01*
X49400000Y-73600000D02*
X50400000Y-74600000D01*
X50400000Y-74600000D02*
X62600000Y-86800000D01*
X62900000Y-92500000D02*
X62900000Y-91700000D01*
X61000000Y-93800000D02*
X62500000Y-93800000D01*
X62500000Y-93800000D02*
X62900000Y-93400000D01*
X62900000Y-93400000D02*
X62900000Y-92500000D01*
X62900000Y-91700000D02*
X62600000Y-91400000D01*
X48600000Y-73900000D02*
X48600000Y-65600000D01*
X48600000Y-65600000D02*
X48600000Y-54300000D01*
X61500000Y-86800000D02*
X48600000Y-73900000D01*
X63800000Y-86600000D02*
X63800000Y-86800000D01*
X50200000Y-73000000D02*
X63800000Y-86600000D01*
X50200000Y-55200000D02*
X50200000Y-69000000D01*
X50200000Y-69000000D02*
X50200000Y-73000000D01*
X53600000Y-75200000D02*
X53600000Y-75000000D01*
X51000000Y-56200000D02*
X51000000Y-55600000D01*
X51000000Y-72400000D02*
X51000000Y-56200000D01*
X51200000Y-72600000D02*
X53600000Y-75000000D01*
X53600000Y-75000000D02*
X64000000Y-85400000D01*
X51200000Y-72600000D02*
X51000000Y-72400000D01*
X48000000Y-74800000D02*
X62400000Y-89200000D01*
X62400000Y-89200000D02*
X62400000Y-89600000D01*
X66600000Y-92000000D02*
X67200000Y-92600000D01*
X66600000Y-86800000D02*
X66600000Y-92000000D01*
X51800000Y-72000000D02*
X66600000Y-86800000D01*
X51800000Y-57800000D02*
X51800000Y-66400000D01*
X51800000Y-66400000D02*
X51800000Y-72000000D01*
X52600000Y-71600000D02*
X52600000Y-71400000D01*
X52600000Y-71400000D02*
X52600000Y-64400000D01*
X67400000Y-86400000D02*
X52600000Y-71600000D01*
X67400000Y-90000000D02*
X67400000Y-86400000D01*
X70200000Y-92800000D02*
X67400000Y-90000000D01*
D28*
X69800000Y-60600000D02*
X76600000Y-60600000D01*
D29*
X79140000Y-62060000D02*
X78600000Y-62600000D01*
X78600000Y-62600000D02*
X72600000Y-62600000D01*
X79140000Y-62060000D02*
X79140000Y-60600000D01*
X69400000Y-62600000D02*
X72600000Y-62600000D01*
X66800000Y-65200000D02*
X69400000Y-62600000D01*
X66800000Y-82200000D02*
X66800000Y-65200000D01*
X84220000Y-60600000D02*
X84220000Y-61780000D01*
X70400000Y-84200000D02*
X69000000Y-82800000D01*
X67400000Y-81200000D02*
X69000000Y-82800000D01*
X67400000Y-65600000D02*
X67400000Y-81200000D01*
X69600000Y-63400000D02*
X67400000Y-65600000D01*
X82600000Y-63400000D02*
X69600000Y-63400000D01*
X84220000Y-61780000D02*
X82600000Y-63400000D01*
X73200000Y-87600000D02*
X75000000Y-87600000D01*
X72600000Y-88200000D02*
X73200000Y-87600000D01*
X85000000Y-77600000D02*
X85080000Y-77600000D01*
X85080000Y-77520000D02*
X85000000Y-77600000D01*
X75000000Y-87600000D02*
X85080000Y-77520000D01*
X85080000Y-77600000D02*
X85080000Y-66400000D01*
X74600000Y-86800000D02*
X74800000Y-86800000D01*
X82540000Y-79060000D02*
X74800000Y-86800000D01*
X82540000Y-66400000D02*
X82540000Y-79060000D01*
X71800000Y-87800000D02*
X72800000Y-86800000D01*
X72800000Y-86800000D02*
X74600000Y-86800000D01*
X67600000Y-63400000D02*
X66200000Y-64800000D01*
X66200000Y-64800000D02*
X66200000Y-76200000D01*
X66200000Y-76200000D02*
X64000000Y-78400000D01*
X64000000Y-78400000D02*
X63800000Y-78400000D01*
X67600000Y-63400000D02*
X67600000Y-61800000D01*
X72340000Y-52600000D02*
X72340000Y-54260000D01*
X72340000Y-54260000D02*
X71200000Y-55400000D01*
X71200000Y-55400000D02*
X68400000Y-55400000D01*
X68400000Y-55400000D02*
X67600000Y-56200000D01*
X67600000Y-56200000D02*
X67600000Y-61800000D01*
X67600000Y-61800000D02*
X67600000Y-62000000D01*
X59400000Y-92800000D02*
X58800000Y-92200000D01*
X58800000Y-90600000D02*
X58800000Y-92200000D01*
X61000000Y-92800000D02*
X59400000Y-92800000D01*
X45750000Y-110750000D02*
X46650000Y-110750000D01*
X51400000Y-106000000D02*
X63500000Y-106000000D01*
X46650000Y-110750000D02*
X51400000Y-106000000D01*
X90300000Y-101600000D02*
X90300000Y-97500000D01*
X91350000Y-96450000D02*
X91350000Y-75500000D01*
X90300000Y-97500000D02*
X91350000Y-96450000D01*
D28*
X90300000Y-101600000D02*
X96100000Y-101600000D01*
D29*
X91350000Y-70050000D02*
X91400000Y-70000000D01*
X91350000Y-75500000D02*
X91350000Y-70050000D01*
X91350000Y-75500000D02*
X91350000Y-75450000D01*
X83400000Y-91600000D02*
X83400000Y-89000000D01*
D28*
X80300000Y-91600000D02*
X83400000Y-91600000D01*
X83400000Y-91600000D02*
X86100000Y-91600000D01*
D29*
X86100000Y-101600000D02*
X86100000Y-100100000D01*
X86100000Y-87300000D02*
X83100000Y-87300000D01*
X89400000Y-90600000D02*
X86100000Y-87300000D01*
X89400000Y-96800000D02*
X89400000Y-90600000D01*
X86100000Y-100100000D02*
X89400000Y-96800000D01*
D28*
X80300000Y-101600000D02*
X86100000Y-101600000D01*
D29*
X70300000Y-101600000D02*
X70300000Y-94500000D01*
X71400000Y-93400000D02*
X81550000Y-83250000D01*
X70300000Y-94500000D02*
X71400000Y-93400000D01*
D28*
X70300000Y-101600000D02*
X76100000Y-101600000D01*
D29*
X85900000Y-78900000D02*
X85200000Y-79600000D01*
X85200000Y-79600000D02*
X85300000Y-79500000D01*
X81550000Y-83250000D02*
X84200000Y-80600000D01*
X84200000Y-80600000D02*
X85200000Y-79600000D01*
X81550000Y-83250000D02*
X81600000Y-83200000D01*
D28*
X80300000Y-111600000D02*
X86100000Y-111600000D01*
D29*
X94400000Y-111600000D02*
X98400000Y-107600000D01*
X98400000Y-107600000D02*
X98400000Y-98200000D01*
X98400000Y-98200000D02*
X95600000Y-95400000D01*
X86100000Y-111600000D02*
X94400000Y-111600000D01*
X49700000Y-104200000D02*
X50600000Y-104200000D01*
X52100000Y-102200000D02*
X57100000Y-97200000D01*
X52100000Y-102700000D02*
X52100000Y-102200000D01*
X50600000Y-104200000D02*
X52100000Y-102700000D01*
X53000000Y-110800000D02*
X53000000Y-109800000D01*
X53000000Y-109800000D02*
X54600000Y-108200000D01*
X61600000Y-98600000D02*
X60800000Y-97800000D01*
X66100000Y-98600000D02*
X61600000Y-98600000D01*
X67400000Y-99900000D02*
X66100000Y-98600000D01*
X67400000Y-107200000D02*
X67400000Y-99900000D01*
X66400000Y-108200000D02*
X67400000Y-107200000D01*
X54600000Y-108200000D02*
X66400000Y-108200000D01*
X54400000Y-31500000D02*
X56950000Y-31500000D01*
X56950000Y-31500000D02*
X58200000Y-30250000D01*
D28*
X50600000Y-37260000D02*
X50600000Y-35300000D01*
X50600000Y-35300000D02*
X54400000Y-31500000D01*
X117800000Y-109450000D02*
X117800000Y-105600000D01*
X117800000Y-96200000D02*
X117800000Y-105600000D01*
X101600000Y-90800000D02*
X104000000Y-93200000D01*
X104000000Y-93200000D02*
X114800000Y-93200000D01*
X114800000Y-93200000D02*
X117400000Y-95800000D01*
X117400000Y-95800000D02*
X117800000Y-96200000D01*
X117800000Y-109450000D02*
X117650000Y-109600000D01*
X109200000Y-87800000D02*
X109200000Y-79000000D01*
X109000000Y-88000000D02*
X109200000Y-87800000D01*
X104200000Y-75200000D02*
X104200000Y-79000000D01*
D30*
G36*
X51372917Y-80294984D02*
X51372857Y-80363779D01*
X51498495Y-80667846D01*
X51730930Y-80900688D01*
X52034778Y-81026856D01*
X52363779Y-81027143D01*
X52667846Y-80901505D01*
X52900688Y-80669070D01*
X52914277Y-80636344D01*
X61614093Y-89336160D01*
X61573144Y-89434778D01*
X61572857Y-89763779D01*
X61634124Y-89912056D01*
X60527083Y-88805015D01*
X60527143Y-88736221D01*
X60401505Y-88432154D01*
X60169070Y-88199312D01*
X59865222Y-88073144D01*
X59536221Y-88072857D01*
X59232154Y-88198495D01*
X58999312Y-88430930D01*
X58873144Y-88734778D01*
X58872857Y-89063779D01*
X58998495Y-89367846D01*
X59230930Y-89600688D01*
X59534778Y-89726856D01*
X59604849Y-89726917D01*
X60434244Y-90556312D01*
X60332154Y-90598495D01*
X60099312Y-90830930D01*
X59973144Y-91134778D01*
X59972857Y-91463779D01*
X60098495Y-91767846D01*
X60330930Y-92000688D01*
X60549358Y-92091387D01*
X60532154Y-92098495D01*
X60482562Y-92148000D01*
X59670068Y-92148000D01*
X59452000Y-91929932D01*
X59452000Y-91117673D01*
X59500688Y-91069070D01*
X59626856Y-90765222D01*
X59627143Y-90436221D01*
X59501505Y-90132154D01*
X59269070Y-89899312D01*
X58965222Y-89773144D01*
X58636221Y-89772857D01*
X58332154Y-89898495D01*
X58099312Y-90130930D01*
X57973144Y-90434778D01*
X57972857Y-90763779D01*
X58098495Y-91067846D01*
X58148000Y-91117438D01*
X58148000Y-92199995D01*
X58147999Y-92200000D01*
X58177952Y-92350578D01*
X58197631Y-92449510D01*
X58265104Y-92550491D01*
X58338966Y-92661034D01*
X58938966Y-93261034D01*
X59150490Y-93402369D01*
X59400000Y-93452000D01*
X60249040Y-93452000D01*
X60173144Y-93634778D01*
X60172857Y-93963779D01*
X60298495Y-94267846D01*
X60530930Y-94500688D01*
X60834778Y-94626856D01*
X61163779Y-94627143D01*
X61467846Y-94501505D01*
X61517438Y-94452000D01*
X62499995Y-94452000D01*
X62500000Y-94452001D01*
X62708113Y-94410604D01*
X62749510Y-94402369D01*
X62961034Y-94261034D01*
X63361031Y-93861036D01*
X63361034Y-93861034D01*
X63502369Y-93649510D01*
X63552000Y-93400000D01*
X63552000Y-91700000D01*
X63502369Y-91450490D01*
X63427054Y-91337773D01*
X63427134Y-91246604D01*
X63608113Y-91210604D01*
X63649510Y-91202369D01*
X63861034Y-91061034D01*
X65461031Y-89461036D01*
X65461034Y-89461034D01*
X65589300Y-89269070D01*
X65602370Y-89249509D01*
X65652001Y-89000000D01*
X65652000Y-88999995D01*
X65652000Y-87317673D01*
X65700688Y-87269070D01*
X65826856Y-86965222D01*
X65826870Y-86948937D01*
X65948000Y-87070067D01*
X65948000Y-91525932D01*
X65727083Y-91305015D01*
X65727143Y-91236221D01*
X65601505Y-90932154D01*
X65369070Y-90699312D01*
X65065222Y-90573144D01*
X64736221Y-90572857D01*
X64432154Y-90698495D01*
X64199312Y-90930930D01*
X64073144Y-91234778D01*
X64072857Y-91563779D01*
X64198495Y-91867846D01*
X64248000Y-91917438D01*
X64248000Y-93829932D01*
X63015256Y-95062676D01*
X62200000Y-95062676D01*
X62004706Y-95099423D01*
X61825340Y-95214842D01*
X61705010Y-95390951D01*
X61662676Y-95600000D01*
X61662676Y-97200000D01*
X61699423Y-97395294D01*
X61814842Y-97574660D01*
X61990951Y-97694990D01*
X62200000Y-97737324D01*
X63200000Y-97737324D01*
X63395294Y-97700577D01*
X63574660Y-97585158D01*
X63694990Y-97409049D01*
X63737324Y-97200000D01*
X63737324Y-96184744D01*
X65361034Y-94561034D01*
X65502370Y-94349509D01*
X65552001Y-94100000D01*
X65552000Y-94099995D01*
X65552000Y-92974068D01*
X68552965Y-95975033D01*
X68547999Y-96000000D01*
X68580032Y-96161034D01*
X68597631Y-96249510D01*
X68738966Y-96461034D01*
X68950490Y-96602369D01*
X68991887Y-96610604D01*
X69200000Y-96652001D01*
X69200005Y-96652000D01*
X69300000Y-96652000D01*
X69425570Y-96627022D01*
X69563779Y-96627143D01*
X69648000Y-96592344D01*
X69648000Y-100562676D01*
X68900000Y-100562676D01*
X68704706Y-100599423D01*
X68525340Y-100714842D01*
X68405010Y-100890951D01*
X68362676Y-101100000D01*
X68362676Y-102100000D01*
X68399423Y-102295294D01*
X68514842Y-102474660D01*
X68690951Y-102594990D01*
X68900000Y-102637324D01*
X71700000Y-102637324D01*
X71895294Y-102600577D01*
X72074660Y-102485158D01*
X72148561Y-102377000D01*
X74251999Y-102377000D01*
X74314842Y-102474660D01*
X74490951Y-102594990D01*
X74700000Y-102637324D01*
X77423000Y-102637324D01*
X77423000Y-104562676D01*
X74700000Y-104562676D01*
X74504706Y-104599423D01*
X74325340Y-104714842D01*
X74251439Y-104823000D01*
X72148001Y-104823000D01*
X72085158Y-104725340D01*
X71909049Y-104605010D01*
X71700000Y-104562676D01*
X68900000Y-104562676D01*
X68704706Y-104599423D01*
X68525340Y-104714842D01*
X68405010Y-104890951D01*
X68362676Y-105100000D01*
X68362676Y-106100000D01*
X68399423Y-106295294D01*
X68514842Y-106474660D01*
X68690951Y-106594990D01*
X68900000Y-106637324D01*
X71700000Y-106637324D01*
X71895294Y-106600577D01*
X72074660Y-106485158D01*
X72148561Y-106377000D01*
X74251999Y-106377000D01*
X74314842Y-106474660D01*
X74490951Y-106594990D01*
X74700000Y-106637324D01*
X75323000Y-106637324D01*
X75323000Y-113500000D01*
X75382146Y-113797345D01*
X75550578Y-114049422D01*
X77650578Y-116149422D01*
X77902655Y-116317854D01*
X78200000Y-116377000D01*
X78451999Y-116377000D01*
X78514842Y-116474660D01*
X78690951Y-116594990D01*
X78900000Y-116637324D01*
X81700000Y-116637324D01*
X81895294Y-116600577D01*
X82074660Y-116485158D01*
X82148561Y-116377000D01*
X84251999Y-116377000D01*
X84314842Y-116474660D01*
X84490951Y-116594990D01*
X84700000Y-116637324D01*
X87500000Y-116637324D01*
X87695294Y-116600577D01*
X87874660Y-116485158D01*
X87948561Y-116377000D01*
X97000000Y-116377000D01*
X97297345Y-116317854D01*
X97549422Y-116149422D01*
X98147693Y-115551151D01*
X98267846Y-115501505D01*
X98500688Y-115269070D01*
X98626856Y-114965222D01*
X98627143Y-114636221D01*
X98501505Y-114332154D01*
X98269070Y-114099312D01*
X97965222Y-113973144D01*
X97636221Y-113972857D01*
X97332154Y-114098495D01*
X97099312Y-114330930D01*
X97048957Y-114452199D01*
X96678156Y-114823000D01*
X87948001Y-114823000D01*
X87885158Y-114725340D01*
X87709049Y-114605010D01*
X87500000Y-114562676D01*
X84700000Y-114562676D01*
X84504706Y-114599423D01*
X84325340Y-114714842D01*
X84251439Y-114823000D01*
X82148001Y-114823000D01*
X82085158Y-114725340D01*
X81909049Y-114605010D01*
X81700000Y-114562676D01*
X78900000Y-114562676D01*
X78704706Y-114599423D01*
X78525340Y-114714842D01*
X78480018Y-114781174D01*
X76877000Y-113178156D01*
X76877000Y-106637324D01*
X77500000Y-106637324D01*
X77695294Y-106600577D01*
X77874660Y-106485158D01*
X77948561Y-106377000D01*
X78451999Y-106377000D01*
X78514842Y-106474660D01*
X78690951Y-106594990D01*
X78900000Y-106637324D01*
X81700000Y-106637324D01*
X81895294Y-106600577D01*
X82074660Y-106485158D01*
X82148561Y-106377000D01*
X84251999Y-106377000D01*
X84314842Y-106474660D01*
X84490951Y-106594990D01*
X84700000Y-106637324D01*
X87500000Y-106637324D01*
X87695294Y-106600577D01*
X87874660Y-106485158D01*
X87948561Y-106377000D01*
X88451999Y-106377000D01*
X88514842Y-106474660D01*
X88690951Y-106594990D01*
X88900000Y-106637324D01*
X91700000Y-106637324D01*
X91895294Y-106600577D01*
X92074660Y-106485158D01*
X92148561Y-106377000D01*
X94251999Y-106377000D01*
X94314842Y-106474660D01*
X94490951Y-106594990D01*
X94700000Y-106637324D01*
X97500000Y-106637324D01*
X97695294Y-106600577D01*
X97748000Y-106566662D01*
X97748000Y-107329933D01*
X94129932Y-110948000D01*
X88008723Y-110948000D01*
X88000577Y-110904706D01*
X87885158Y-110725340D01*
X87709049Y-110605010D01*
X87500000Y-110562676D01*
X84700000Y-110562676D01*
X84504706Y-110599423D01*
X84325340Y-110714842D01*
X84251439Y-110823000D01*
X82148001Y-110823000D01*
X82085158Y-110725340D01*
X81909049Y-110605010D01*
X81700000Y-110562676D01*
X78900000Y-110562676D01*
X78704706Y-110599423D01*
X78525340Y-110714842D01*
X78405010Y-110890951D01*
X78362676Y-111100000D01*
X78362676Y-112100000D01*
X78399423Y-112295294D01*
X78514842Y-112474660D01*
X78690951Y-112594990D01*
X78900000Y-112637324D01*
X81700000Y-112637324D01*
X81895294Y-112600577D01*
X82074660Y-112485158D01*
X82148561Y-112377000D01*
X84251999Y-112377000D01*
X84314842Y-112474660D01*
X84490951Y-112594990D01*
X84700000Y-112637324D01*
X87500000Y-112637324D01*
X87695294Y-112600577D01*
X87874660Y-112485158D01*
X87994990Y-112309049D01*
X88006543Y-112252000D01*
X94399995Y-112252000D01*
X94400000Y-112252001D01*
X94608113Y-112210604D01*
X94649510Y-112202369D01*
X94861034Y-112061034D01*
X98823000Y-108099067D01*
X98823000Y-112400000D01*
X98882146Y-112697345D01*
X99050578Y-112949422D01*
X102848000Y-116746844D01*
X102848000Y-117562676D01*
X102150000Y-117562676D01*
X101954706Y-117599423D01*
X101775340Y-117714842D01*
X101655010Y-117890951D01*
X101612676Y-118100000D01*
X101612676Y-120500000D01*
X101649423Y-120695294D01*
X101764842Y-120874660D01*
X101940951Y-120994990D01*
X102079267Y-121023000D01*
X43777000Y-121023000D01*
X43777000Y-116821230D01*
X46872632Y-116821230D01*
X47195766Y-117603274D01*
X47793578Y-118202131D01*
X48575057Y-118526630D01*
X49421230Y-118527368D01*
X50203274Y-118204234D01*
X50802131Y-117606422D01*
X51126630Y-116824943D01*
X51127368Y-115978770D01*
X50804234Y-115196726D01*
X50206422Y-114597869D01*
X49424943Y-114273370D01*
X48578770Y-114272632D01*
X47796726Y-114595766D01*
X47197869Y-115193578D01*
X46873370Y-115975057D01*
X46872632Y-116821230D01*
X43777000Y-116821230D01*
X43777000Y-104402897D01*
X44472779Y-104402897D01*
X44666781Y-104872417D01*
X45025693Y-105231957D01*
X45494875Y-105426778D01*
X46002897Y-105427221D01*
X46472417Y-105233219D01*
X46831957Y-104874307D01*
X47026778Y-104405125D01*
X47027221Y-103897103D01*
X46833219Y-103427583D01*
X46474307Y-103068043D01*
X46005125Y-102873222D01*
X45497103Y-102872779D01*
X45027583Y-103066781D01*
X44668043Y-103425693D01*
X44473222Y-103894875D01*
X44472779Y-104402897D01*
X43777000Y-104402897D01*
X43777000Y-99975844D01*
X44473155Y-100671999D01*
X44472779Y-101102897D01*
X44666781Y-101572417D01*
X45025693Y-101931957D01*
X45494875Y-102126778D01*
X46002897Y-102127221D01*
X46472417Y-101933219D01*
X46831957Y-101574307D01*
X47026778Y-101105125D01*
X47026823Y-101052897D01*
X48522779Y-101052897D01*
X48716781Y-101522417D01*
X49075693Y-101881957D01*
X49544875Y-102076778D01*
X50052897Y-102077221D01*
X50522417Y-101883219D01*
X50881957Y-101524307D01*
X51076778Y-101055125D01*
X51077221Y-100547103D01*
X50883219Y-100077583D01*
X50524307Y-99718043D01*
X50055125Y-99523222D01*
X49547103Y-99522779D01*
X49077583Y-99716781D01*
X48718043Y-100075693D01*
X48523222Y-100544875D01*
X48522779Y-101052897D01*
X47026823Y-101052897D01*
X47027221Y-100597103D01*
X46833219Y-100127583D01*
X46474307Y-99768043D01*
X46005125Y-99573222D01*
X45571688Y-99572844D01*
X44877000Y-98878156D01*
X44877000Y-98183091D01*
X44975693Y-98281957D01*
X45444875Y-98476778D01*
X45952897Y-98477221D01*
X46422417Y-98283219D01*
X46781957Y-97924307D01*
X46976778Y-97455125D01*
X46977221Y-96947103D01*
X46947323Y-96874744D01*
X47470067Y-96352000D01*
X49042127Y-96352000D01*
X48818043Y-96575693D01*
X48623222Y-97044875D01*
X48622779Y-97552897D01*
X48816781Y-98022417D01*
X49175693Y-98381957D01*
X49644875Y-98576778D01*
X50152897Y-98577221D01*
X50622417Y-98383219D01*
X50981957Y-98024307D01*
X51176778Y-97555125D01*
X51177221Y-97047103D01*
X50983219Y-96577583D01*
X50758030Y-96352000D01*
X56829932Y-96352000D01*
X56875768Y-96397836D01*
X56632154Y-96498495D01*
X56399312Y-96730930D01*
X56273144Y-97034778D01*
X56273083Y-97104850D01*
X51638966Y-101738966D01*
X51497631Y-101950490D01*
X51497631Y-101950491D01*
X51447999Y-102200000D01*
X51448000Y-102200005D01*
X51448000Y-102429933D01*
X50591951Y-103285981D01*
X50424307Y-103118043D01*
X49955125Y-102923222D01*
X49447103Y-102922779D01*
X48977583Y-103116781D01*
X48618043Y-103475693D01*
X48423222Y-103944875D01*
X48422779Y-104452897D01*
X48616781Y-104922417D01*
X48975693Y-105281957D01*
X49444875Y-105476778D01*
X49800844Y-105477088D01*
X48579932Y-106698000D01*
X46862315Y-106698000D01*
X46833219Y-106627583D01*
X46474307Y-106268043D01*
X46005125Y-106073222D01*
X45497103Y-106072779D01*
X45027583Y-106266781D01*
X44668043Y-106625693D01*
X44473222Y-107094875D01*
X44472779Y-107602897D01*
X44666781Y-108072417D01*
X45025693Y-108431957D01*
X45494875Y-108626778D01*
X46002897Y-108627221D01*
X46472417Y-108433219D01*
X46831957Y-108074307D01*
X46861981Y-108002000D01*
X48475932Y-108002000D01*
X46641951Y-109835981D01*
X46474307Y-109668043D01*
X46005125Y-109473222D01*
X45497103Y-109472779D01*
X45027583Y-109666781D01*
X44668043Y-110025693D01*
X44473222Y-110494875D01*
X44472779Y-111002897D01*
X44666781Y-111472417D01*
X45025693Y-111831957D01*
X45494875Y-112026778D01*
X46002897Y-112027221D01*
X46472417Y-111833219D01*
X46831957Y-111474307D01*
X46881067Y-111356038D01*
X46899510Y-111352369D01*
X47111034Y-111211034D01*
X51670067Y-106652000D01*
X51725933Y-106652000D01*
X48938966Y-109438966D01*
X48797631Y-109650490D01*
X48794014Y-109668673D01*
X48677583Y-109716781D01*
X48318043Y-110075693D01*
X48123222Y-110544875D01*
X48122779Y-111052897D01*
X48316781Y-111522417D01*
X48675693Y-111881957D01*
X49144875Y-112076778D01*
X49652897Y-112077221D01*
X50122417Y-111883219D01*
X50481957Y-111524307D01*
X50676778Y-111055125D01*
X50677221Y-110547103D01*
X50483219Y-110077583D01*
X50314000Y-109908068D01*
X52570067Y-107652000D01*
X54269121Y-107652000D01*
X54138966Y-107738966D01*
X54138964Y-107738969D01*
X52538966Y-109338966D01*
X52397631Y-109550490D01*
X52397631Y-109550491D01*
X52372341Y-109677628D01*
X52277583Y-109716781D01*
X51918043Y-110075693D01*
X51723222Y-110544875D01*
X51722779Y-111052897D01*
X51916781Y-111522417D01*
X52275693Y-111881957D01*
X52744875Y-112076778D01*
X53252897Y-112077221D01*
X53722417Y-111883219D01*
X54081957Y-111524307D01*
X54276778Y-111055125D01*
X54277221Y-110547103D01*
X54083219Y-110077583D01*
X53864044Y-109858024D01*
X54870067Y-108852000D01*
X66399995Y-108852000D01*
X66400000Y-108852001D01*
X66608113Y-108810604D01*
X66649510Y-108802369D01*
X66861034Y-108661034D01*
X66861035Y-108661033D01*
X67861031Y-107661036D01*
X67861034Y-107661034D01*
X67989300Y-107469070D01*
X68002370Y-107449509D01*
X68052001Y-107200000D01*
X68052000Y-107199995D01*
X68052000Y-99900005D01*
X68052001Y-99900000D01*
X68002370Y-99650491D01*
X67934896Y-99549509D01*
X67861034Y-99438966D01*
X67861031Y-99438964D01*
X66561034Y-98138966D01*
X66427151Y-98049509D01*
X66349510Y-97997631D01*
X66308113Y-97989396D01*
X66100000Y-97947999D01*
X66099995Y-97948000D01*
X61870068Y-97948000D01*
X61627083Y-97705015D01*
X61627143Y-97636221D01*
X61501505Y-97332154D01*
X61269070Y-97099312D01*
X60965222Y-96973144D01*
X60636221Y-96972857D01*
X60332154Y-97098495D01*
X60099312Y-97330930D01*
X59973144Y-97634778D01*
X59973130Y-97651062D01*
X57561034Y-95238966D01*
X57498743Y-95197345D01*
X57349510Y-95097631D01*
X57308113Y-95089396D01*
X57100000Y-95047999D01*
X57099995Y-95048000D01*
X47200000Y-95048000D01*
X46950490Y-95097631D01*
X46738966Y-95238966D01*
X46738964Y-95238969D01*
X46025492Y-95952441D01*
X45955125Y-95923222D01*
X45447103Y-95922779D01*
X44977583Y-96116781D01*
X44877000Y-96217188D01*
X44877000Y-95221844D01*
X46649422Y-93449422D01*
X46817854Y-93197345D01*
X46877000Y-92900000D01*
X46877000Y-75799068D01*
X51372917Y-80294984D01*
X51372917Y-80294984D01*
G37*
X51372917Y-80294984D02*
X51372857Y-80363779D01*
X51498495Y-80667846D01*
X51730930Y-80900688D01*
X52034778Y-81026856D01*
X52363779Y-81027143D01*
X52667846Y-80901505D01*
X52900688Y-80669070D01*
X52914277Y-80636344D01*
X61614093Y-89336160D01*
X61573144Y-89434778D01*
X61572857Y-89763779D01*
X61634124Y-89912056D01*
X60527083Y-88805015D01*
X60527143Y-88736221D01*
X60401505Y-88432154D01*
X60169070Y-88199312D01*
X59865222Y-88073144D01*
X59536221Y-88072857D01*
X59232154Y-88198495D01*
X58999312Y-88430930D01*
X58873144Y-88734778D01*
X58872857Y-89063779D01*
X58998495Y-89367846D01*
X59230930Y-89600688D01*
X59534778Y-89726856D01*
X59604849Y-89726917D01*
X60434244Y-90556312D01*
X60332154Y-90598495D01*
X60099312Y-90830930D01*
X59973144Y-91134778D01*
X59972857Y-91463779D01*
X60098495Y-91767846D01*
X60330930Y-92000688D01*
X60549358Y-92091387D01*
X60532154Y-92098495D01*
X60482562Y-92148000D01*
X59670068Y-92148000D01*
X59452000Y-91929932D01*
X59452000Y-91117673D01*
X59500688Y-91069070D01*
X59626856Y-90765222D01*
X59627143Y-90436221D01*
X59501505Y-90132154D01*
X59269070Y-89899312D01*
X58965222Y-89773144D01*
X58636221Y-89772857D01*
X58332154Y-89898495D01*
X58099312Y-90130930D01*
X57973144Y-90434778D01*
X57972857Y-90763779D01*
X58098495Y-91067846D01*
X58148000Y-91117438D01*
X58148000Y-92199995D01*
X58147999Y-92200000D01*
X58177952Y-92350578D01*
X58197631Y-92449510D01*
X58265104Y-92550491D01*
X58338966Y-92661034D01*
X58938966Y-93261034D01*
X59150490Y-93402369D01*
X59400000Y-93452000D01*
X60249040Y-93452000D01*
X60173144Y-93634778D01*
X60172857Y-93963779D01*
X60298495Y-94267846D01*
X60530930Y-94500688D01*
X60834778Y-94626856D01*
X61163779Y-94627143D01*
X61467846Y-94501505D01*
X61517438Y-94452000D01*
X62499995Y-94452000D01*
X62500000Y-94452001D01*
X62708113Y-94410604D01*
X62749510Y-94402369D01*
X62961034Y-94261034D01*
X63361031Y-93861036D01*
X63361034Y-93861034D01*
X63502369Y-93649510D01*
X63552000Y-93400000D01*
X63552000Y-91700000D01*
X63502369Y-91450490D01*
X63427054Y-91337773D01*
X63427134Y-91246604D01*
X63608113Y-91210604D01*
X63649510Y-91202369D01*
X63861034Y-91061034D01*
X65461031Y-89461036D01*
X65461034Y-89461034D01*
X65589300Y-89269070D01*
X65602370Y-89249509D01*
X65652001Y-89000000D01*
X65652000Y-88999995D01*
X65652000Y-87317673D01*
X65700688Y-87269070D01*
X65826856Y-86965222D01*
X65826870Y-86948937D01*
X65948000Y-87070067D01*
X65948000Y-91525932D01*
X65727083Y-91305015D01*
X65727143Y-91236221D01*
X65601505Y-90932154D01*
X65369070Y-90699312D01*
X65065222Y-90573144D01*
X64736221Y-90572857D01*
X64432154Y-90698495D01*
X64199312Y-90930930D01*
X64073144Y-91234778D01*
X64072857Y-91563779D01*
X64198495Y-91867846D01*
X64248000Y-91917438D01*
X64248000Y-93829932D01*
X63015256Y-95062676D01*
X62200000Y-95062676D01*
X62004706Y-95099423D01*
X61825340Y-95214842D01*
X61705010Y-95390951D01*
X61662676Y-95600000D01*
X61662676Y-97200000D01*
X61699423Y-97395294D01*
X61814842Y-97574660D01*
X61990951Y-97694990D01*
X62200000Y-97737324D01*
X63200000Y-97737324D01*
X63395294Y-97700577D01*
X63574660Y-97585158D01*
X63694990Y-97409049D01*
X63737324Y-97200000D01*
X63737324Y-96184744D01*
X65361034Y-94561034D01*
X65502370Y-94349509D01*
X65552001Y-94100000D01*
X65552000Y-94099995D01*
X65552000Y-92974068D01*
X68552965Y-95975033D01*
X68547999Y-96000000D01*
X68580032Y-96161034D01*
X68597631Y-96249510D01*
X68738966Y-96461034D01*
X68950490Y-96602369D01*
X68991887Y-96610604D01*
X69200000Y-96652001D01*
X69200005Y-96652000D01*
X69300000Y-96652000D01*
X69425570Y-96627022D01*
X69563779Y-96627143D01*
X69648000Y-96592344D01*
X69648000Y-100562676D01*
X68900000Y-100562676D01*
X68704706Y-100599423D01*
X68525340Y-100714842D01*
X68405010Y-100890951D01*
X68362676Y-101100000D01*
X68362676Y-102100000D01*
X68399423Y-102295294D01*
X68514842Y-102474660D01*
X68690951Y-102594990D01*
X68900000Y-102637324D01*
X71700000Y-102637324D01*
X71895294Y-102600577D01*
X72074660Y-102485158D01*
X72148561Y-102377000D01*
X74251999Y-102377000D01*
X74314842Y-102474660D01*
X74490951Y-102594990D01*
X74700000Y-102637324D01*
X77423000Y-102637324D01*
X77423000Y-104562676D01*
X74700000Y-104562676D01*
X74504706Y-104599423D01*
X74325340Y-104714842D01*
X74251439Y-104823000D01*
X72148001Y-104823000D01*
X72085158Y-104725340D01*
X71909049Y-104605010D01*
X71700000Y-104562676D01*
X68900000Y-104562676D01*
X68704706Y-104599423D01*
X68525340Y-104714842D01*
X68405010Y-104890951D01*
X68362676Y-105100000D01*
X68362676Y-106100000D01*
X68399423Y-106295294D01*
X68514842Y-106474660D01*
X68690951Y-106594990D01*
X68900000Y-106637324D01*
X71700000Y-106637324D01*
X71895294Y-106600577D01*
X72074660Y-106485158D01*
X72148561Y-106377000D01*
X74251999Y-106377000D01*
X74314842Y-106474660D01*
X74490951Y-106594990D01*
X74700000Y-106637324D01*
X75323000Y-106637324D01*
X75323000Y-113500000D01*
X75382146Y-113797345D01*
X75550578Y-114049422D01*
X77650578Y-116149422D01*
X77902655Y-116317854D01*
X78200000Y-116377000D01*
X78451999Y-116377000D01*
X78514842Y-116474660D01*
X78690951Y-116594990D01*
X78900000Y-116637324D01*
X81700000Y-116637324D01*
X81895294Y-116600577D01*
X82074660Y-116485158D01*
X82148561Y-116377000D01*
X84251999Y-116377000D01*
X84314842Y-116474660D01*
X84490951Y-116594990D01*
X84700000Y-116637324D01*
X87500000Y-116637324D01*
X87695294Y-116600577D01*
X87874660Y-116485158D01*
X87948561Y-116377000D01*
X97000000Y-116377000D01*
X97297345Y-116317854D01*
X97549422Y-116149422D01*
X98147693Y-115551151D01*
X98267846Y-115501505D01*
X98500688Y-115269070D01*
X98626856Y-114965222D01*
X98627143Y-114636221D01*
X98501505Y-114332154D01*
X98269070Y-114099312D01*
X97965222Y-113973144D01*
X97636221Y-113972857D01*
X97332154Y-114098495D01*
X97099312Y-114330930D01*
X97048957Y-114452199D01*
X96678156Y-114823000D01*
X87948001Y-114823000D01*
X87885158Y-114725340D01*
X87709049Y-114605010D01*
X87500000Y-114562676D01*
X84700000Y-114562676D01*
X84504706Y-114599423D01*
X84325340Y-114714842D01*
X84251439Y-114823000D01*
X82148001Y-114823000D01*
X82085158Y-114725340D01*
X81909049Y-114605010D01*
X81700000Y-114562676D01*
X78900000Y-114562676D01*
X78704706Y-114599423D01*
X78525340Y-114714842D01*
X78480018Y-114781174D01*
X76877000Y-113178156D01*
X76877000Y-106637324D01*
X77500000Y-106637324D01*
X77695294Y-106600577D01*
X77874660Y-106485158D01*
X77948561Y-106377000D01*
X78451999Y-106377000D01*
X78514842Y-106474660D01*
X78690951Y-106594990D01*
X78900000Y-106637324D01*
X81700000Y-106637324D01*
X81895294Y-106600577D01*
X82074660Y-106485158D01*
X82148561Y-106377000D01*
X84251999Y-106377000D01*
X84314842Y-106474660D01*
X84490951Y-106594990D01*
X84700000Y-106637324D01*
X87500000Y-106637324D01*
X87695294Y-106600577D01*
X87874660Y-106485158D01*
X87948561Y-106377000D01*
X88451999Y-106377000D01*
X88514842Y-106474660D01*
X88690951Y-106594990D01*
X88900000Y-106637324D01*
X91700000Y-106637324D01*
X91895294Y-106600577D01*
X92074660Y-106485158D01*
X92148561Y-106377000D01*
X94251999Y-106377000D01*
X94314842Y-106474660D01*
X94490951Y-106594990D01*
X94700000Y-106637324D01*
X97500000Y-106637324D01*
X97695294Y-106600577D01*
X97748000Y-106566662D01*
X97748000Y-107329933D01*
X94129932Y-110948000D01*
X88008723Y-110948000D01*
X88000577Y-110904706D01*
X87885158Y-110725340D01*
X87709049Y-110605010D01*
X87500000Y-110562676D01*
X84700000Y-110562676D01*
X84504706Y-110599423D01*
X84325340Y-110714842D01*
X84251439Y-110823000D01*
X82148001Y-110823000D01*
X82085158Y-110725340D01*
X81909049Y-110605010D01*
X81700000Y-110562676D01*
X78900000Y-110562676D01*
X78704706Y-110599423D01*
X78525340Y-110714842D01*
X78405010Y-110890951D01*
X78362676Y-111100000D01*
X78362676Y-112100000D01*
X78399423Y-112295294D01*
X78514842Y-112474660D01*
X78690951Y-112594990D01*
X78900000Y-112637324D01*
X81700000Y-112637324D01*
X81895294Y-112600577D01*
X82074660Y-112485158D01*
X82148561Y-112377000D01*
X84251999Y-112377000D01*
X84314842Y-112474660D01*
X84490951Y-112594990D01*
X84700000Y-112637324D01*
X87500000Y-112637324D01*
X87695294Y-112600577D01*
X87874660Y-112485158D01*
X87994990Y-112309049D01*
X88006543Y-112252000D01*
X94399995Y-112252000D01*
X94400000Y-112252001D01*
X94608113Y-112210604D01*
X94649510Y-112202369D01*
X94861034Y-112061034D01*
X98823000Y-108099067D01*
X98823000Y-112400000D01*
X98882146Y-112697345D01*
X99050578Y-112949422D01*
X102848000Y-116746844D01*
X102848000Y-117562676D01*
X102150000Y-117562676D01*
X101954706Y-117599423D01*
X101775340Y-117714842D01*
X101655010Y-117890951D01*
X101612676Y-118100000D01*
X101612676Y-120500000D01*
X101649423Y-120695294D01*
X101764842Y-120874660D01*
X101940951Y-120994990D01*
X102079267Y-121023000D01*
X43777000Y-121023000D01*
X43777000Y-116821230D01*
X46872632Y-116821230D01*
X47195766Y-117603274D01*
X47793578Y-118202131D01*
X48575057Y-118526630D01*
X49421230Y-118527368D01*
X50203274Y-118204234D01*
X50802131Y-117606422D01*
X51126630Y-116824943D01*
X51127368Y-115978770D01*
X50804234Y-115196726D01*
X50206422Y-114597869D01*
X49424943Y-114273370D01*
X48578770Y-114272632D01*
X47796726Y-114595766D01*
X47197869Y-115193578D01*
X46873370Y-115975057D01*
X46872632Y-116821230D01*
X43777000Y-116821230D01*
X43777000Y-104402897D01*
X44472779Y-104402897D01*
X44666781Y-104872417D01*
X45025693Y-105231957D01*
X45494875Y-105426778D01*
X46002897Y-105427221D01*
X46472417Y-105233219D01*
X46831957Y-104874307D01*
X47026778Y-104405125D01*
X47027221Y-103897103D01*
X46833219Y-103427583D01*
X46474307Y-103068043D01*
X46005125Y-102873222D01*
X45497103Y-102872779D01*
X45027583Y-103066781D01*
X44668043Y-103425693D01*
X44473222Y-103894875D01*
X44472779Y-104402897D01*
X43777000Y-104402897D01*
X43777000Y-99975844D01*
X44473155Y-100671999D01*
X44472779Y-101102897D01*
X44666781Y-101572417D01*
X45025693Y-101931957D01*
X45494875Y-102126778D01*
X46002897Y-102127221D01*
X46472417Y-101933219D01*
X46831957Y-101574307D01*
X47026778Y-101105125D01*
X47026823Y-101052897D01*
X48522779Y-101052897D01*
X48716781Y-101522417D01*
X49075693Y-101881957D01*
X49544875Y-102076778D01*
X50052897Y-102077221D01*
X50522417Y-101883219D01*
X50881957Y-101524307D01*
X51076778Y-101055125D01*
X51077221Y-100547103D01*
X50883219Y-100077583D01*
X50524307Y-99718043D01*
X50055125Y-99523222D01*
X49547103Y-99522779D01*
X49077583Y-99716781D01*
X48718043Y-100075693D01*
X48523222Y-100544875D01*
X48522779Y-101052897D01*
X47026823Y-101052897D01*
X47027221Y-100597103D01*
X46833219Y-100127583D01*
X46474307Y-99768043D01*
X46005125Y-99573222D01*
X45571688Y-99572844D01*
X44877000Y-98878156D01*
X44877000Y-98183091D01*
X44975693Y-98281957D01*
X45444875Y-98476778D01*
X45952897Y-98477221D01*
X46422417Y-98283219D01*
X46781957Y-97924307D01*
X46976778Y-97455125D01*
X46977221Y-96947103D01*
X46947323Y-96874744D01*
X47470067Y-96352000D01*
X49042127Y-96352000D01*
X48818043Y-96575693D01*
X48623222Y-97044875D01*
X48622779Y-97552897D01*
X48816781Y-98022417D01*
X49175693Y-98381957D01*
X49644875Y-98576778D01*
X50152897Y-98577221D01*
X50622417Y-98383219D01*
X50981957Y-98024307D01*
X51176778Y-97555125D01*
X51177221Y-97047103D01*
X50983219Y-96577583D01*
X50758030Y-96352000D01*
X56829932Y-96352000D01*
X56875768Y-96397836D01*
X56632154Y-96498495D01*
X56399312Y-96730930D01*
X56273144Y-97034778D01*
X56273083Y-97104850D01*
X51638966Y-101738966D01*
X51497631Y-101950490D01*
X51497631Y-101950491D01*
X51447999Y-102200000D01*
X51448000Y-102200005D01*
X51448000Y-102429933D01*
X50591951Y-103285981D01*
X50424307Y-103118043D01*
X49955125Y-102923222D01*
X49447103Y-102922779D01*
X48977583Y-103116781D01*
X48618043Y-103475693D01*
X48423222Y-103944875D01*
X48422779Y-104452897D01*
X48616781Y-104922417D01*
X48975693Y-105281957D01*
X49444875Y-105476778D01*
X49800844Y-105477088D01*
X48579932Y-106698000D01*
X46862315Y-106698000D01*
X46833219Y-106627583D01*
X46474307Y-106268043D01*
X46005125Y-106073222D01*
X45497103Y-106072779D01*
X45027583Y-106266781D01*
X44668043Y-106625693D01*
X44473222Y-107094875D01*
X44472779Y-107602897D01*
X44666781Y-108072417D01*
X45025693Y-108431957D01*
X45494875Y-108626778D01*
X46002897Y-108627221D01*
X46472417Y-108433219D01*
X46831957Y-108074307D01*
X46861981Y-108002000D01*
X48475932Y-108002000D01*
X46641951Y-109835981D01*
X46474307Y-109668043D01*
X46005125Y-109473222D01*
X45497103Y-109472779D01*
X45027583Y-109666781D01*
X44668043Y-110025693D01*
X44473222Y-110494875D01*
X44472779Y-111002897D01*
X44666781Y-111472417D01*
X45025693Y-111831957D01*
X45494875Y-112026778D01*
X46002897Y-112027221D01*
X46472417Y-111833219D01*
X46831957Y-111474307D01*
X46881067Y-111356038D01*
X46899510Y-111352369D01*
X47111034Y-111211034D01*
X51670067Y-106652000D01*
X51725933Y-106652000D01*
X48938966Y-109438966D01*
X48797631Y-109650490D01*
X48794014Y-109668673D01*
X48677583Y-109716781D01*
X48318043Y-110075693D01*
X48123222Y-110544875D01*
X48122779Y-111052897D01*
X48316781Y-111522417D01*
X48675693Y-111881957D01*
X49144875Y-112076778D01*
X49652897Y-112077221D01*
X50122417Y-111883219D01*
X50481957Y-111524307D01*
X50676778Y-111055125D01*
X50677221Y-110547103D01*
X50483219Y-110077583D01*
X50314000Y-109908068D01*
X52570067Y-107652000D01*
X54269121Y-107652000D01*
X54138966Y-107738966D01*
X54138964Y-107738969D01*
X52538966Y-109338966D01*
X52397631Y-109550490D01*
X52397631Y-109550491D01*
X52372341Y-109677628D01*
X52277583Y-109716781D01*
X51918043Y-110075693D01*
X51723222Y-110544875D01*
X51722779Y-111052897D01*
X51916781Y-111522417D01*
X52275693Y-111881957D01*
X52744875Y-112076778D01*
X53252897Y-112077221D01*
X53722417Y-111883219D01*
X54081957Y-111524307D01*
X54276778Y-111055125D01*
X54277221Y-110547103D01*
X54083219Y-110077583D01*
X53864044Y-109858024D01*
X54870067Y-108852000D01*
X66399995Y-108852000D01*
X66400000Y-108852001D01*
X66608113Y-108810604D01*
X66649510Y-108802369D01*
X66861034Y-108661034D01*
X66861035Y-108661033D01*
X67861031Y-107661036D01*
X67861034Y-107661034D01*
X67989300Y-107469070D01*
X68002370Y-107449509D01*
X68052001Y-107200000D01*
X68052000Y-107199995D01*
X68052000Y-99900005D01*
X68052001Y-99900000D01*
X68002370Y-99650491D01*
X67934896Y-99549509D01*
X67861034Y-99438966D01*
X67861031Y-99438964D01*
X66561034Y-98138966D01*
X66427151Y-98049509D01*
X66349510Y-97997631D01*
X66308113Y-97989396D01*
X66100000Y-97947999D01*
X66099995Y-97948000D01*
X61870068Y-97948000D01*
X61627083Y-97705015D01*
X61627143Y-97636221D01*
X61501505Y-97332154D01*
X61269070Y-97099312D01*
X60965222Y-96973144D01*
X60636221Y-96972857D01*
X60332154Y-97098495D01*
X60099312Y-97330930D01*
X59973144Y-97634778D01*
X59973130Y-97651062D01*
X57561034Y-95238966D01*
X57498743Y-95197345D01*
X57349510Y-95097631D01*
X57308113Y-95089396D01*
X57100000Y-95047999D01*
X57099995Y-95048000D01*
X47200000Y-95048000D01*
X46950490Y-95097631D01*
X46738966Y-95238966D01*
X46738964Y-95238969D01*
X46025492Y-95952441D01*
X45955125Y-95923222D01*
X45447103Y-95922779D01*
X44977583Y-96116781D01*
X44877000Y-96217188D01*
X44877000Y-95221844D01*
X46649422Y-93449422D01*
X46817854Y-93197345D01*
X46877000Y-92900000D01*
X46877000Y-75799068D01*
X51372917Y-80294984D01*
G36*
X122623000Y-121023000D02*
X105176126Y-121023000D01*
X105295294Y-121000577D01*
X105474660Y-120885158D01*
X105594990Y-120709049D01*
X105637324Y-120500000D01*
X105637324Y-118353566D01*
X105795574Y-118736560D01*
X106161513Y-119103139D01*
X106639880Y-119301774D01*
X107157848Y-119302226D01*
X107636560Y-119104426D01*
X108003139Y-118738487D01*
X108201774Y-118260120D01*
X108202002Y-117999301D01*
X108314842Y-118174660D01*
X108490951Y-118294990D01*
X108700000Y-118337324D01*
X111650000Y-118337324D01*
X111845294Y-118300577D01*
X112024660Y-118185158D01*
X112144990Y-118009049D01*
X112187324Y-117800000D01*
X112187324Y-117021230D01*
X116072632Y-117021230D01*
X116395766Y-117803274D01*
X116993578Y-118402131D01*
X117775057Y-118726630D01*
X118621230Y-118727368D01*
X119403274Y-118404234D01*
X120002131Y-117806422D01*
X120326630Y-117024943D01*
X120327368Y-116178770D01*
X120004234Y-115396726D01*
X119406422Y-114797869D01*
X118624943Y-114473370D01*
X117778770Y-114472632D01*
X116996726Y-114795766D01*
X116397869Y-115393578D01*
X116073370Y-116175057D01*
X116072632Y-117021230D01*
X112187324Y-117021230D01*
X112187324Y-115686520D01*
X115299422Y-112574422D01*
X115467854Y-112322345D01*
X115527000Y-112025000D01*
X115527000Y-110865826D01*
X115574660Y-110835158D01*
X115694990Y-110659049D01*
X115737324Y-110450000D01*
X115737324Y-108750000D01*
X115700577Y-108554706D01*
X115585158Y-108375340D01*
X115409049Y-108255010D01*
X115200000Y-108212676D01*
X114300000Y-108212676D01*
X114104706Y-108249423D01*
X113925340Y-108364842D01*
X113805010Y-108540951D01*
X113762676Y-108750000D01*
X113762676Y-110450000D01*
X113799423Y-110645294D01*
X113914842Y-110824660D01*
X113973000Y-110864398D01*
X113973000Y-111703156D01*
X110813480Y-114862676D01*
X108700000Y-114862676D01*
X108504706Y-114899423D01*
X108325340Y-115014842D01*
X108205010Y-115190951D01*
X108162676Y-115400000D01*
X108162676Y-117646434D01*
X108004426Y-117263440D01*
X107638487Y-116896861D01*
X107160120Y-116698226D01*
X106642152Y-116697774D01*
X106163440Y-116895574D01*
X105796861Y-117261513D01*
X105598226Y-117739880D01*
X105598086Y-117900834D01*
X105485158Y-117725340D01*
X105309049Y-117605010D01*
X105100000Y-117562676D01*
X104402000Y-117562676D01*
X104402000Y-116425000D01*
X104342854Y-116127655D01*
X104174422Y-115875578D01*
X100556692Y-112257848D01*
X105597774Y-112257848D01*
X105795574Y-112736560D01*
X106161513Y-113103139D01*
X106639880Y-113301774D01*
X107157848Y-113302226D01*
X107636560Y-113104426D01*
X108003139Y-112738487D01*
X108201774Y-112260120D01*
X108202226Y-111742152D01*
X108004426Y-111263440D01*
X107638487Y-110896861D01*
X107160120Y-110698226D01*
X106642152Y-110697774D01*
X106163440Y-110895574D01*
X105796861Y-111261513D01*
X105598226Y-111739880D01*
X105597774Y-112257848D01*
X100556692Y-112257848D01*
X100377000Y-112078156D01*
X100377000Y-94600000D01*
X100317854Y-94302655D01*
X100149422Y-94050578D01*
X93462623Y-87363779D01*
X98372857Y-87363779D01*
X98423000Y-87485134D01*
X98423000Y-91400000D01*
X98482146Y-91697345D01*
X98650578Y-91949422D01*
X102698000Y-95996844D01*
X102698000Y-107862676D01*
X102150000Y-107862676D01*
X101954706Y-107899423D01*
X101775340Y-108014842D01*
X101655010Y-108190951D01*
X101612676Y-108400000D01*
X101612676Y-110800000D01*
X101649423Y-110995294D01*
X101764842Y-111174660D01*
X101940951Y-111294990D01*
X102150000Y-111337324D01*
X104800000Y-111337324D01*
X104995294Y-111300577D01*
X105174660Y-111185158D01*
X105294990Y-111009049D01*
X105337324Y-110800000D01*
X105337324Y-108400000D01*
X108462676Y-108400000D01*
X108462676Y-110800000D01*
X108499423Y-110995294D01*
X108614842Y-111174660D01*
X108790951Y-111294990D01*
X109000000Y-111337324D01*
X111650000Y-111337324D01*
X111845294Y-111300577D01*
X112024660Y-111185158D01*
X112144990Y-111009049D01*
X112187324Y-110800000D01*
X112187324Y-108400000D01*
X112150577Y-108204706D01*
X112035158Y-108025340D01*
X111859049Y-107905010D01*
X111650000Y-107862676D01*
X109000000Y-107862676D01*
X108804706Y-107899423D01*
X108625340Y-108014842D01*
X108505010Y-108190951D01*
X108462676Y-108400000D01*
X105337324Y-108400000D01*
X105300577Y-108204706D01*
X105185158Y-108025340D01*
X105009049Y-107905010D01*
X104800000Y-107862676D01*
X104252000Y-107862676D01*
X104252000Y-95675000D01*
X104192854Y-95377655D01*
X104024422Y-95125578D01*
X99977000Y-91078156D01*
X99977000Y-90963779D01*
X100772857Y-90963779D01*
X100898495Y-91267846D01*
X101130930Y-91500688D01*
X101252199Y-91551043D01*
X103450578Y-93749422D01*
X103702655Y-93917854D01*
X104000000Y-93977000D01*
X114478156Y-93977000D01*
X117023000Y-96521844D01*
X117023000Y-108245981D01*
X117004706Y-108249423D01*
X116825340Y-108364842D01*
X116705010Y-108540951D01*
X116662676Y-108750000D01*
X116662676Y-110450000D01*
X116699423Y-110645294D01*
X116814842Y-110824660D01*
X116990951Y-110944990D01*
X117200000Y-110987324D01*
X118100000Y-110987324D01*
X118295294Y-110950577D01*
X118474660Y-110835158D01*
X118594990Y-110659049D01*
X118637324Y-110450000D01*
X118637324Y-108750000D01*
X118600577Y-108554706D01*
X118577000Y-108518066D01*
X118577000Y-96200000D01*
X118517854Y-95902655D01*
X118349422Y-95650578D01*
X115349422Y-92650578D01*
X115097345Y-92482146D01*
X114800000Y-92423000D01*
X104321844Y-92423000D01*
X102351151Y-90452307D01*
X102301505Y-90332154D01*
X102069070Y-90099312D01*
X101765222Y-89973144D01*
X101436221Y-89972857D01*
X101132154Y-90098495D01*
X100899312Y-90330930D01*
X100773144Y-90634778D01*
X100772857Y-90963779D01*
X99977000Y-90963779D01*
X99977000Y-88163779D01*
X108172857Y-88163779D01*
X108298495Y-88467846D01*
X108530930Y-88700688D01*
X108834778Y-88826856D01*
X109163779Y-88827143D01*
X109467846Y-88701505D01*
X109700688Y-88469070D01*
X109751926Y-88345674D01*
X109917854Y-88097345D01*
X109977000Y-87800000D01*
X109977000Y-79285289D01*
X110026856Y-79165222D01*
X110027143Y-78836221D01*
X109901505Y-78532154D01*
X109669070Y-78299312D01*
X109365222Y-78173144D01*
X109036221Y-78172857D01*
X108732154Y-78298495D01*
X108499312Y-78530930D01*
X108373144Y-78834778D01*
X108372857Y-79163779D01*
X108423000Y-79285134D01*
X108423000Y-87407458D01*
X108299312Y-87530930D01*
X108173144Y-87834778D01*
X108172857Y-88163779D01*
X99977000Y-88163779D01*
X99977000Y-87485289D01*
X100026856Y-87365222D01*
X100027143Y-87036221D01*
X99901505Y-86732154D01*
X99669070Y-86499312D01*
X99365222Y-86373144D01*
X99036221Y-86372857D01*
X98732154Y-86498495D01*
X98499312Y-86730930D01*
X98373144Y-87034778D01*
X98372857Y-87363779D01*
X93462623Y-87363779D01*
X93377000Y-87278156D01*
X93377000Y-83685289D01*
X93426856Y-83565222D01*
X93427143Y-83236221D01*
X93301505Y-82932154D01*
X93069070Y-82699312D01*
X92765222Y-82573144D01*
X92436221Y-82572857D01*
X92132154Y-82698495D01*
X92002000Y-82828421D01*
X92002000Y-75363779D01*
X103372857Y-75363779D01*
X103423000Y-75485134D01*
X103423000Y-78714711D01*
X103373144Y-78834778D01*
X103372857Y-79163779D01*
X103498495Y-79467846D01*
X103730930Y-79700688D01*
X104034778Y-79826856D01*
X104363779Y-79827143D01*
X104667846Y-79701505D01*
X104900688Y-79469070D01*
X105026856Y-79165222D01*
X105027143Y-78836221D01*
X104977000Y-78714866D01*
X104977000Y-75485289D01*
X105026856Y-75365222D01*
X105027143Y-75036221D01*
X104901505Y-74732154D01*
X104669070Y-74499312D01*
X104365222Y-74373144D01*
X104036221Y-74372857D01*
X103732154Y-74498495D01*
X103499312Y-74730930D01*
X103373144Y-75034778D01*
X103372857Y-75363779D01*
X92002000Y-75363779D01*
X92002000Y-70567585D01*
X92100688Y-70469070D01*
X92226856Y-70165222D01*
X92227143Y-69836221D01*
X92101505Y-69532154D01*
X91869070Y-69299312D01*
X91565222Y-69173144D01*
X91236221Y-69172857D01*
X90932154Y-69298495D01*
X90699312Y-69530930D01*
X90573144Y-69834778D01*
X90572857Y-70163779D01*
X90698000Y-70466648D01*
X90698000Y-96179933D01*
X90045562Y-96832370D01*
X90052001Y-96800000D01*
X90052000Y-96799995D01*
X90052000Y-90600005D01*
X90052001Y-90600000D01*
X90002370Y-90350491D01*
X89901815Y-90200000D01*
X89861034Y-90138966D01*
X89861031Y-90138964D01*
X86561034Y-86838966D01*
X86549007Y-86830930D01*
X86349510Y-86697631D01*
X86308113Y-86689396D01*
X86100000Y-86647999D01*
X86099995Y-86648000D01*
X83617673Y-86648000D01*
X83569070Y-86599312D01*
X83265222Y-86473144D01*
X83049112Y-86472955D01*
X83070067Y-86452000D01*
X84082327Y-86452000D01*
X84130930Y-86500688D01*
X84434778Y-86626856D01*
X84763779Y-86627143D01*
X85067846Y-86501505D01*
X85300688Y-86269070D01*
X85426856Y-85965222D01*
X85427143Y-85636221D01*
X85301505Y-85332154D01*
X85069070Y-85099312D01*
X84765222Y-84973144D01*
X84549113Y-84972955D01*
X84661034Y-84861034D01*
X84734896Y-84750491D01*
X84802369Y-84649510D01*
X84852000Y-84400000D01*
X84852000Y-84317673D01*
X84900688Y-84269070D01*
X85026856Y-83965222D01*
X85027143Y-83636221D01*
X84901505Y-83332154D01*
X84669070Y-83099312D01*
X84365222Y-82973144D01*
X84036221Y-82972857D01*
X83732154Y-83098495D01*
X83499312Y-83330930D01*
X83373144Y-83634778D01*
X83372857Y-83963779D01*
X83472646Y-84205286D01*
X83329932Y-84348000D01*
X82400000Y-84348000D01*
X82150490Y-84397631D01*
X81938966Y-84538966D01*
X81938964Y-84538969D01*
X80914450Y-85563483D01*
X80901505Y-85532154D01*
X80669070Y-85299312D01*
X80495025Y-85227042D01*
X82011031Y-83711036D01*
X82011034Y-83711034D01*
X84661034Y-81061034D01*
X85661031Y-80061036D01*
X85661034Y-80061034D01*
X85994985Y-79727083D01*
X86063779Y-79727143D01*
X86367846Y-79601505D01*
X86600688Y-79369070D01*
X86726856Y-79065222D01*
X86727143Y-78736221D01*
X86601505Y-78432154D01*
X86369070Y-78199312D01*
X86065222Y-78073144D01*
X85736221Y-78072857D01*
X85432154Y-78198495D01*
X85199312Y-78430930D01*
X85073144Y-78734778D01*
X85073083Y-78804850D01*
X84777244Y-79100688D01*
X84738966Y-79138966D01*
X84738964Y-79138969D01*
X83738966Y-80138966D01*
X81088966Y-82788966D01*
X81088964Y-82788969D01*
X76914450Y-86963483D01*
X76901505Y-86932154D01*
X76745846Y-86776222D01*
X85317262Y-78204805D01*
X85329510Y-78202369D01*
X85541034Y-78061034D01*
X85682369Y-77849510D01*
X85732000Y-77600000D01*
X85732000Y-77520005D01*
X85732001Y-77520000D01*
X85732000Y-77519995D01*
X85732000Y-67615607D01*
X86053686Y-67400663D01*
X86352182Y-66953932D01*
X86457000Y-66426977D01*
X86457000Y-66373023D01*
X86352182Y-65846068D01*
X86053686Y-65399337D01*
X85606955Y-65100841D01*
X85080000Y-64996023D01*
X84553045Y-65100841D01*
X84106314Y-65399337D01*
X83810000Y-65842802D01*
X83513686Y-65399337D01*
X83066955Y-65100841D01*
X82540000Y-64996023D01*
X82013045Y-65100841D01*
X81566314Y-65399337D01*
X81485000Y-65521032D01*
X81485000Y-65423691D01*
X81388327Y-65190302D01*
X81209699Y-65011673D01*
X80976310Y-64915000D01*
X80285750Y-64915000D01*
X80127000Y-65073750D01*
X80127000Y-66273000D01*
X80147000Y-66273000D01*
X80147000Y-66527000D01*
X80127000Y-66527000D01*
X80127000Y-67726250D01*
X80285750Y-67885000D01*
X80976310Y-67885000D01*
X81209699Y-67788327D01*
X81388327Y-67609698D01*
X81485000Y-67376309D01*
X81485000Y-67278968D01*
X81566314Y-67400663D01*
X81888000Y-67615607D01*
X81888000Y-78789932D01*
X74529932Y-86148000D01*
X72800005Y-86148000D01*
X72800000Y-86147999D01*
X72550491Y-86197630D01*
X72550489Y-86197631D01*
X72550490Y-86197631D01*
X72338966Y-86338966D01*
X72338964Y-86338969D01*
X71705015Y-86972917D01*
X71652000Y-86972871D01*
X71652000Y-86270068D01*
X71894985Y-86027083D01*
X71963779Y-86027143D01*
X72267846Y-85901505D01*
X72500688Y-85669070D01*
X72626856Y-85365222D01*
X72627143Y-85036221D01*
X72501505Y-84732154D01*
X72269070Y-84499312D01*
X71965222Y-84373144D01*
X71636221Y-84372857D01*
X71332154Y-84498495D01*
X71099312Y-84730930D01*
X70973144Y-85034778D01*
X70973083Y-85104849D01*
X70538966Y-85538966D01*
X70397631Y-85750490D01*
X70397631Y-85750491D01*
X70347999Y-86000000D01*
X70348000Y-86000005D01*
X70348000Y-89199995D01*
X70347999Y-89200000D01*
X70388254Y-89402369D01*
X70397631Y-89449510D01*
X70499190Y-89601505D01*
X70538966Y-89661034D01*
X71172917Y-90294984D01*
X71172857Y-90363779D01*
X71298495Y-90667846D01*
X71530930Y-90900688D01*
X71834778Y-91026856D01*
X72163779Y-91027143D01*
X72467846Y-90901505D01*
X72700688Y-90669070D01*
X72826856Y-90365222D01*
X72827143Y-90036221D01*
X72701505Y-89732154D01*
X72469070Y-89499312D01*
X72165222Y-89373144D01*
X72095150Y-89373083D01*
X71652000Y-88929932D01*
X71652000Y-88626871D01*
X71881647Y-88627071D01*
X71898495Y-88667846D01*
X72130930Y-88900688D01*
X72391494Y-89008883D01*
X72498495Y-89267846D01*
X72730930Y-89500688D01*
X73034778Y-89626856D01*
X73363779Y-89627143D01*
X73667846Y-89501505D01*
X73900688Y-89269070D01*
X74026856Y-88965222D01*
X74026917Y-88895151D01*
X74070068Y-88852000D01*
X75025932Y-88852000D01*
X71026956Y-92850976D01*
X71027143Y-92636221D01*
X70901505Y-92332154D01*
X70669070Y-92099312D01*
X70365222Y-91973144D01*
X70295151Y-91973083D01*
X68052000Y-89729932D01*
X68052000Y-86400005D01*
X68052001Y-86400000D01*
X68002370Y-86150491D01*
X67934896Y-86049509D01*
X67861034Y-85938966D01*
X67861031Y-85938964D01*
X54085847Y-72163779D01*
X60772857Y-72163779D01*
X60898495Y-72467846D01*
X61130930Y-72700688D01*
X61434778Y-72826856D01*
X61763779Y-72827143D01*
X62067846Y-72701505D01*
X62117438Y-72652000D01*
X64882327Y-72652000D01*
X64930930Y-72700688D01*
X65234778Y-72826856D01*
X65548000Y-72827129D01*
X65548000Y-75929932D01*
X63904841Y-77573091D01*
X63636221Y-77572857D01*
X63332154Y-77698495D01*
X63099312Y-77930930D01*
X62973144Y-78234778D01*
X62972857Y-78563779D01*
X63098495Y-78867846D01*
X63330930Y-79100688D01*
X63634778Y-79226856D01*
X63963779Y-79227143D01*
X64267846Y-79101505D01*
X64500688Y-78869070D01*
X64534552Y-78787516D01*
X66148000Y-77174068D01*
X66148000Y-81682327D01*
X66099312Y-81730930D01*
X65973144Y-82034778D01*
X65972857Y-82363779D01*
X66098495Y-82667846D01*
X66330930Y-82900688D01*
X66634778Y-83026856D01*
X66963779Y-83027143D01*
X67267846Y-82901505D01*
X67500688Y-82669070D01*
X67626856Y-82365222D01*
X67626870Y-82348938D01*
X68538964Y-83261031D01*
X68538966Y-83261034D01*
X69572917Y-84294985D01*
X69572857Y-84363779D01*
X69698495Y-84667846D01*
X69930930Y-84900688D01*
X70234778Y-85026856D01*
X70563779Y-85027143D01*
X70867846Y-84901505D01*
X71100688Y-84669070D01*
X71226856Y-84365222D01*
X71227143Y-84036221D01*
X71101505Y-83732154D01*
X70869070Y-83499312D01*
X70565222Y-83373144D01*
X70495151Y-83373083D01*
X69461034Y-82338966D01*
X69461031Y-82338964D01*
X68052000Y-80929932D01*
X68052000Y-66685750D01*
X78515000Y-66685750D01*
X78515000Y-67376309D01*
X78611673Y-67609698D01*
X78790301Y-67788327D01*
X79023690Y-67885000D01*
X79714250Y-67885000D01*
X79873000Y-67726250D01*
X79873000Y-66527000D01*
X78673750Y-66527000D01*
X78515000Y-66685750D01*
X68052000Y-66685750D01*
X68052000Y-65870068D01*
X68498377Y-65423691D01*
X78515000Y-65423691D01*
X78515000Y-66114250D01*
X78673750Y-66273000D01*
X79873000Y-66273000D01*
X79873000Y-65073750D01*
X79714250Y-64915000D01*
X79023690Y-64915000D01*
X78790301Y-65011673D01*
X78611673Y-65190302D01*
X78515000Y-65423691D01*
X68498377Y-65423691D01*
X69870068Y-64052000D01*
X82599995Y-64052000D01*
X82600000Y-64052001D01*
X82808113Y-64010604D01*
X82849510Y-64002369D01*
X83061034Y-63861034D01*
X84681034Y-62241034D01*
X84822369Y-62029510D01*
X84838070Y-61950577D01*
X84863833Y-61821064D01*
X85193686Y-61600663D01*
X85490000Y-61157198D01*
X85786314Y-61600663D01*
X86233045Y-61899159D01*
X86760000Y-62003977D01*
X87286955Y-61899159D01*
X87733686Y-61600663D01*
X88030000Y-61157198D01*
X88326314Y-61600663D01*
X88773045Y-61899159D01*
X89300000Y-62003977D01*
X89826955Y-61899159D01*
X90273686Y-61600663D01*
X90572182Y-61153932D01*
X90677000Y-60626977D01*
X90677000Y-60573023D01*
X90572182Y-60046068D01*
X90273686Y-59599337D01*
X89826955Y-59300841D01*
X89300000Y-59196023D01*
X88773045Y-59300841D01*
X88326314Y-59599337D01*
X88030000Y-60042802D01*
X87733686Y-59599337D01*
X87286955Y-59300841D01*
X86760000Y-59196023D01*
X86233045Y-59300841D01*
X85786314Y-59599337D01*
X85490000Y-60042802D01*
X85193686Y-59599337D01*
X84746955Y-59300841D01*
X84220000Y-59196023D01*
X83693045Y-59300841D01*
X83246314Y-59599337D01*
X82995463Y-59974762D01*
X82875183Y-59718642D01*
X82446924Y-59328355D01*
X82036890Y-59158524D01*
X81807000Y-59279845D01*
X81807000Y-60473000D01*
X81827000Y-60473000D01*
X81827000Y-60727000D01*
X81807000Y-60727000D01*
X81807000Y-61920155D01*
X82036890Y-62041476D01*
X82446924Y-61871645D01*
X82875183Y-61481358D01*
X82995463Y-61225238D01*
X83246314Y-61600663D01*
X83384761Y-61693171D01*
X82329932Y-62748000D01*
X79374067Y-62748000D01*
X79601031Y-62521036D01*
X79601034Y-62521034D01*
X79742369Y-62309510D01*
X79792000Y-62060000D01*
X79792000Y-61815607D01*
X80113686Y-61600663D01*
X80364537Y-61225238D01*
X80484817Y-61481358D01*
X80913076Y-61871645D01*
X81323110Y-62041476D01*
X81553000Y-61920155D01*
X81553000Y-60727000D01*
X81533000Y-60727000D01*
X81533000Y-60473000D01*
X81553000Y-60473000D01*
X81553000Y-59279845D01*
X81323110Y-59158524D01*
X80913076Y-59328355D01*
X80484817Y-59718642D01*
X80364537Y-59974762D01*
X80113686Y-59599337D01*
X79666955Y-59300841D01*
X79140000Y-59196023D01*
X78613045Y-59300841D01*
X78166314Y-59599337D01*
X77987324Y-59867215D01*
X77987324Y-59750000D01*
X77950577Y-59554706D01*
X77835158Y-59375340D01*
X77659049Y-59255010D01*
X77450000Y-59212676D01*
X75750000Y-59212676D01*
X75554706Y-59249423D01*
X75375340Y-59364842D01*
X75255010Y-59540951D01*
X75212676Y-59750000D01*
X75212676Y-59823000D01*
X71187324Y-59823000D01*
X71187324Y-59750000D01*
X71150577Y-59554706D01*
X71035158Y-59375340D01*
X70859049Y-59255010D01*
X70650000Y-59212676D01*
X70532785Y-59212676D01*
X70800663Y-59033686D01*
X71099159Y-58586955D01*
X71203977Y-58060000D01*
X71099159Y-57533045D01*
X70800663Y-57086314D01*
X70353932Y-56787818D01*
X69826977Y-56683000D01*
X69773023Y-56683000D01*
X69246068Y-56787818D01*
X68799337Y-57086314D01*
X68500841Y-57533045D01*
X68396023Y-58060000D01*
X68500841Y-58586955D01*
X68799337Y-59033686D01*
X69067215Y-59212676D01*
X68950000Y-59212676D01*
X68754706Y-59249423D01*
X68575340Y-59364842D01*
X68455010Y-59540951D01*
X68412676Y-59750000D01*
X68412676Y-61450000D01*
X68449423Y-61645294D01*
X68564842Y-61824660D01*
X68740951Y-61944990D01*
X68950000Y-61987324D01*
X69202306Y-61987324D01*
X69150490Y-61997631D01*
X68938966Y-62138966D01*
X68938964Y-62138969D01*
X68252000Y-62825933D01*
X68252000Y-56470068D01*
X68670068Y-56052000D01*
X71199995Y-56052000D01*
X71200000Y-56052001D01*
X71408113Y-56010604D01*
X71449510Y-56002369D01*
X71661034Y-55861034D01*
X72801031Y-54721036D01*
X72801034Y-54721034D01*
X72942369Y-54509510D01*
X72992000Y-54260000D01*
X72992000Y-53815607D01*
X73313686Y-53600663D01*
X73564537Y-53225238D01*
X73684817Y-53481358D01*
X74113076Y-53871645D01*
X74523110Y-54041476D01*
X74753000Y-53920155D01*
X74753000Y-52727000D01*
X75007000Y-52727000D01*
X75007000Y-53920155D01*
X75236890Y-54041476D01*
X75646924Y-53871645D01*
X76075183Y-53481358D01*
X76321486Y-52956892D01*
X76200819Y-52727000D01*
X75007000Y-52727000D01*
X74753000Y-52727000D01*
X74733000Y-52727000D01*
X74733000Y-52473000D01*
X74753000Y-52473000D01*
X74753000Y-51279845D01*
X75007000Y-51279845D01*
X75007000Y-52473000D01*
X76200819Y-52473000D01*
X76321486Y-52243108D01*
X76075183Y-51718642D01*
X75646924Y-51328355D01*
X75236890Y-51158524D01*
X75007000Y-51279845D01*
X74753000Y-51279845D01*
X74523110Y-51158524D01*
X74113076Y-51328355D01*
X73684817Y-51718642D01*
X73564537Y-51974762D01*
X73313686Y-51599337D01*
X72866955Y-51300841D01*
X72340000Y-51196023D01*
X71813045Y-51300841D01*
X71366314Y-51599337D01*
X71187324Y-51867215D01*
X71187324Y-51750000D01*
X71150577Y-51554706D01*
X71035158Y-51375340D01*
X70859049Y-51255010D01*
X70650000Y-51212676D01*
X70577000Y-51212676D01*
X70577000Y-51121844D01*
X71198844Y-50500000D01*
X81162676Y-50500000D01*
X81162676Y-53500000D01*
X81199423Y-53695294D01*
X81314842Y-53874660D01*
X81490951Y-53994990D01*
X81700000Y-54037324D01*
X84700000Y-54037324D01*
X84895294Y-54000577D01*
X85074660Y-53885158D01*
X85194990Y-53709049D01*
X85237324Y-53500000D01*
X85237324Y-52777000D01*
X85878156Y-52777000D01*
X94450578Y-61349422D01*
X94702655Y-61517854D01*
X95000000Y-61577000D01*
X95812676Y-61577000D01*
X95812676Y-61650000D01*
X95849423Y-61845294D01*
X95964842Y-62024660D01*
X96140951Y-62144990D01*
X96350000Y-62187324D01*
X98050000Y-62187324D01*
X98245294Y-62150577D01*
X98424660Y-62035158D01*
X98544990Y-61859049D01*
X98587324Y-61650000D01*
X98587324Y-59950000D01*
X98550577Y-59754706D01*
X98435158Y-59575340D01*
X98259049Y-59455010D01*
X98050000Y-59412676D01*
X97932785Y-59412676D01*
X98200663Y-59233686D01*
X98499159Y-58786955D01*
X98603977Y-58260000D01*
X98602565Y-58252897D01*
X107122779Y-58252897D01*
X107316781Y-58722417D01*
X107675693Y-59081957D01*
X108144875Y-59276778D01*
X108652897Y-59277221D01*
X109122417Y-59083219D01*
X109481957Y-58724307D01*
X109676778Y-58255125D01*
X109677221Y-57747103D01*
X109483219Y-57277583D01*
X109124307Y-56918043D01*
X108655125Y-56723222D01*
X108147103Y-56722779D01*
X107677583Y-56916781D01*
X107318043Y-57275693D01*
X107123222Y-57744875D01*
X107122779Y-58252897D01*
X98602565Y-58252897D01*
X98499159Y-57733045D01*
X98200663Y-57286314D01*
X97753932Y-56987818D01*
X97226977Y-56883000D01*
X97173023Y-56883000D01*
X96646068Y-56987818D01*
X96199337Y-57286314D01*
X95900841Y-57733045D01*
X95796023Y-58260000D01*
X95900841Y-58786955D01*
X96199337Y-59233686D01*
X96467215Y-59412676D01*
X96350000Y-59412676D01*
X96154706Y-59449423D01*
X95975340Y-59564842D01*
X95855010Y-59740951D01*
X95812676Y-59950000D01*
X95812676Y-60023000D01*
X95321844Y-60023000D01*
X86749422Y-51450578D01*
X86497345Y-51282146D01*
X86200000Y-51223000D01*
X85237324Y-51223000D01*
X85237324Y-50500000D01*
X85200577Y-50304706D01*
X85085158Y-50125340D01*
X84909049Y-50005010D01*
X84700000Y-49962676D01*
X81700000Y-49962676D01*
X81504706Y-49999423D01*
X81325340Y-50114842D01*
X81205010Y-50290951D01*
X81162676Y-50500000D01*
X71198844Y-50500000D01*
X73121844Y-48577000D01*
X97714711Y-48577000D01*
X97834778Y-48626856D01*
X98163779Y-48627143D01*
X98467846Y-48501505D01*
X98700688Y-48269070D01*
X98826856Y-47965222D01*
X98827143Y-47636221D01*
X98701505Y-47332154D01*
X98469070Y-47099312D01*
X98165222Y-46973144D01*
X97836221Y-46972857D01*
X97714866Y-47023000D01*
X72800000Y-47023000D01*
X72502655Y-47082146D01*
X72250578Y-47250578D01*
X69250578Y-50250578D01*
X69082146Y-50502655D01*
X69023000Y-50800000D01*
X69023000Y-51212676D01*
X68950000Y-51212676D01*
X68754706Y-51249423D01*
X68575340Y-51364842D01*
X68455010Y-51540951D01*
X68412676Y-51750000D01*
X68412676Y-53450000D01*
X68449423Y-53645294D01*
X68564842Y-53824660D01*
X68740951Y-53944990D01*
X68950000Y-53987324D01*
X70650000Y-53987324D01*
X70845294Y-53950577D01*
X71024660Y-53835158D01*
X71144990Y-53659049D01*
X71187324Y-53450000D01*
X71187324Y-53332785D01*
X71366314Y-53600663D01*
X71688000Y-53815607D01*
X71688000Y-53989933D01*
X70929932Y-54748000D01*
X68400005Y-54748000D01*
X68400000Y-54747999D01*
X68150491Y-54797630D01*
X67938966Y-54938966D01*
X67138966Y-55738966D01*
X66997631Y-55950490D01*
X66997631Y-55950491D01*
X66947999Y-56200000D01*
X66948000Y-56200005D01*
X66948000Y-63129932D01*
X65738966Y-64338966D01*
X65597631Y-64550490D01*
X65597631Y-64550491D01*
X65547999Y-64800000D01*
X65548000Y-64800005D01*
X65548000Y-71173129D01*
X65236221Y-71172857D01*
X64932154Y-71298495D01*
X64882562Y-71348000D01*
X62117673Y-71348000D01*
X62069070Y-71299312D01*
X61765222Y-71173144D01*
X61436221Y-71172857D01*
X61132154Y-71298495D01*
X60899312Y-71530930D01*
X60773144Y-71834778D01*
X60772857Y-72163779D01*
X54085847Y-72163779D01*
X53427083Y-71505015D01*
X53427143Y-71436221D01*
X53301505Y-71132154D01*
X53252000Y-71082562D01*
X53252000Y-64917673D01*
X53300688Y-64869070D01*
X53426856Y-64565222D01*
X53427143Y-64236221D01*
X53301505Y-63932154D01*
X53069070Y-63699312D01*
X52765222Y-63573144D01*
X52452000Y-63572871D01*
X52452000Y-62163779D01*
X53572857Y-62163779D01*
X53698495Y-62467846D01*
X53930444Y-62700202D01*
X53699312Y-62930930D01*
X53573144Y-63234778D01*
X53572857Y-63563779D01*
X53698495Y-63867846D01*
X53930930Y-64100688D01*
X54234778Y-64226856D01*
X54563779Y-64227143D01*
X54867846Y-64101505D01*
X55100688Y-63869070D01*
X55226856Y-63565222D01*
X55226917Y-63495151D01*
X58261034Y-60461034D01*
X58402369Y-60249510D01*
X58452000Y-60000000D01*
X58452000Y-57200000D01*
X58402369Y-56950490D01*
X58261034Y-56738966D01*
X58261031Y-56738964D01*
X57861034Y-56338966D01*
X57804969Y-56301505D01*
X57649510Y-56197631D01*
X57608113Y-56189396D01*
X57400000Y-56147999D01*
X57399995Y-56148000D01*
X57317673Y-56148000D01*
X57269070Y-56099312D01*
X56965222Y-55973144D01*
X56636221Y-55972857D01*
X56332154Y-56098495D01*
X56099312Y-56330930D01*
X55973144Y-56634778D01*
X55972857Y-56963779D01*
X56098495Y-57267846D01*
X56330930Y-57500688D01*
X56634778Y-57626856D01*
X56963779Y-57627143D01*
X57148000Y-57551024D01*
X57148000Y-58649040D01*
X56965222Y-58573144D01*
X56636221Y-58572857D01*
X56332154Y-58698495D01*
X56099312Y-58930930D01*
X55973144Y-59234778D01*
X55972908Y-59505025D01*
X54305015Y-61172917D01*
X54236221Y-61172857D01*
X53932154Y-61298495D01*
X53699312Y-61530930D01*
X53573144Y-61834778D01*
X53572857Y-62163779D01*
X52452000Y-62163779D01*
X52452000Y-58317673D01*
X52500688Y-58269070D01*
X52626856Y-57965222D01*
X52627143Y-57636221D01*
X52501505Y-57332154D01*
X52269070Y-57099312D01*
X51965222Y-56973144D01*
X51652000Y-56972871D01*
X51652000Y-56117673D01*
X51700688Y-56069070D01*
X51826856Y-55765222D01*
X51827143Y-55436221D01*
X51701505Y-55132154D01*
X51469070Y-54899312D01*
X51165222Y-54773144D01*
X50918353Y-54772929D01*
X50901505Y-54732154D01*
X50669070Y-54499312D01*
X50365222Y-54373144D01*
X50052000Y-54372871D01*
X50052000Y-54308052D01*
X50067846Y-54301505D01*
X50300688Y-54069070D01*
X50426856Y-53765222D01*
X50427143Y-53436221D01*
X50301505Y-53132154D01*
X50069070Y-52899312D01*
X49765222Y-52773144D01*
X49436221Y-52772857D01*
X49427020Y-52776659D01*
X49427143Y-52636221D01*
X49301505Y-52332154D01*
X49069070Y-52099312D01*
X48765222Y-51973144D01*
X48436221Y-51972857D01*
X48194714Y-52072646D01*
X47852000Y-51729932D01*
X47852000Y-48317673D01*
X47900688Y-48269070D01*
X48026856Y-47965222D01*
X48027143Y-47636221D01*
X47901505Y-47332154D01*
X47669070Y-47099312D01*
X47365222Y-46973144D01*
X47036221Y-46972857D01*
X46877000Y-47038646D01*
X46877000Y-46621844D01*
X47845947Y-45652897D01*
X116322779Y-45652897D01*
X116516781Y-46122417D01*
X116875693Y-46481957D01*
X117344875Y-46676778D01*
X117778312Y-46677156D01*
X119623000Y-48521844D01*
X119623000Y-106714711D01*
X119573144Y-106834778D01*
X119572857Y-107163779D01*
X119698495Y-107467846D01*
X119930930Y-107700688D01*
X120234778Y-107826856D01*
X120563779Y-107827143D01*
X120867846Y-107701505D01*
X121100688Y-107469070D01*
X121226856Y-107165222D01*
X121227143Y-106836221D01*
X121177000Y-106714866D01*
X121177000Y-48200000D01*
X121117854Y-47902655D01*
X120949422Y-47650578D01*
X118876845Y-45578001D01*
X118877221Y-45147103D01*
X118683219Y-44677583D01*
X118324307Y-44318043D01*
X117855125Y-44123222D01*
X117347103Y-44122779D01*
X116877583Y-44316781D01*
X116518043Y-44675693D01*
X116323222Y-45144875D01*
X116322779Y-45652897D01*
X47845947Y-45652897D01*
X49921844Y-43577000D01*
X52800000Y-43577000D01*
X53097345Y-43517854D01*
X53349422Y-43349422D01*
X59721844Y-36977000D01*
X83800000Y-36977000D01*
X84097345Y-36917854D01*
X84349422Y-36749422D01*
X87021844Y-34077000D01*
X115423000Y-34077000D01*
X115423000Y-34251999D01*
X115325340Y-34314842D01*
X115205010Y-34490951D01*
X115162676Y-34700000D01*
X115162676Y-36300000D01*
X115199423Y-36495294D01*
X115314842Y-36674660D01*
X115490951Y-36794990D01*
X115700000Y-36837324D01*
X116700000Y-36837324D01*
X116895294Y-36800577D01*
X117074660Y-36685158D01*
X117194990Y-36509049D01*
X117237324Y-36300000D01*
X117237324Y-34700000D01*
X117200577Y-34504706D01*
X117085158Y-34325340D01*
X116977000Y-34251439D01*
X116977000Y-33231733D01*
X117094990Y-33059049D01*
X117137324Y-32850000D01*
X117137324Y-31150000D01*
X117100577Y-30954706D01*
X116985158Y-30775340D01*
X116809049Y-30655010D01*
X116600000Y-30612676D01*
X115700000Y-30612676D01*
X115504706Y-30649423D01*
X115325340Y-30764842D01*
X115205010Y-30940951D01*
X115162676Y-31150000D01*
X115162676Y-32523000D01*
X112177000Y-32523000D01*
X112177000Y-31361605D01*
X112574842Y-31526804D01*
X113023191Y-31527195D01*
X113437560Y-31355981D01*
X113754867Y-31039228D01*
X113926804Y-30625158D01*
X113927195Y-30176809D01*
X113755981Y-29762440D01*
X113439228Y-29445133D01*
X113330780Y-29400102D01*
X113437560Y-29355981D01*
X113754867Y-29039228D01*
X113926804Y-28625158D01*
X113927195Y-28176809D01*
X113755981Y-27762440D01*
X113439228Y-27445133D01*
X113025158Y-27273196D01*
X112576809Y-27272805D01*
X112162440Y-27444019D01*
X111845133Y-27760772D01*
X111673196Y-28174842D01*
X111672805Y-28623191D01*
X111844019Y-29037560D01*
X112160772Y-29354867D01*
X112269220Y-29399898D01*
X112162440Y-29444019D01*
X111845133Y-29760772D01*
X111673340Y-30174496D01*
X110373050Y-28874206D01*
X110373050Y-28350086D01*
X110508554Y-28214818D01*
X110672863Y-27819118D01*
X110673237Y-27390661D01*
X110520592Y-27021230D01*
X116072632Y-27021230D01*
X116395766Y-27803274D01*
X116993578Y-28402131D01*
X117775057Y-28726630D01*
X118621230Y-28727368D01*
X119403274Y-28404234D01*
X120002131Y-27806422D01*
X120326630Y-27024943D01*
X120327368Y-26178770D01*
X120004234Y-25396726D01*
X119406422Y-24797869D01*
X118624943Y-24473370D01*
X117778770Y-24472632D01*
X116996726Y-24795766D01*
X116397869Y-25393578D01*
X116073370Y-26175057D01*
X116072632Y-27021230D01*
X110520592Y-27021230D01*
X110509619Y-26994675D01*
X110206918Y-26691446D01*
X109811218Y-26527137D01*
X109382761Y-26526763D01*
X108986775Y-26690381D01*
X108683546Y-26993082D01*
X108519237Y-27388782D01*
X108518863Y-27817239D01*
X108682481Y-28213225D01*
X108819050Y-28350032D01*
X108819050Y-29196050D01*
X108878196Y-29493395D01*
X109046628Y-29745472D01*
X109327385Y-30026229D01*
X109282654Y-30029187D01*
X108992558Y-30149349D01*
X108949222Y-30369617D01*
X109596050Y-31016445D01*
X109610193Y-31002303D01*
X109789798Y-31181908D01*
X109775655Y-31196050D01*
X110422483Y-31842878D01*
X110623000Y-31803428D01*
X110623000Y-32523000D01*
X86700000Y-32523000D01*
X86402655Y-32582146D01*
X86150578Y-32750578D01*
X83478156Y-35423000D01*
X59400000Y-35423000D01*
X59102655Y-35482146D01*
X59075935Y-35500000D01*
X58850578Y-35650578D01*
X52478156Y-42023000D01*
X49600000Y-42023000D01*
X49302655Y-42082146D01*
X49050578Y-42250578D01*
X45550578Y-45750578D01*
X45382146Y-46002655D01*
X45323000Y-46300000D01*
X45323000Y-92578156D01*
X43777000Y-94124156D01*
X43777000Y-34600000D01*
X47023000Y-34600000D01*
X47023000Y-39000000D01*
X47082146Y-39297345D01*
X47250578Y-39549422D01*
X48050578Y-40349422D01*
X48302655Y-40517854D01*
X48600000Y-40577000D01*
X49212676Y-40577000D01*
X49212676Y-40650000D01*
X49249423Y-40845294D01*
X49364842Y-41024660D01*
X49540951Y-41144990D01*
X49750000Y-41187324D01*
X51450000Y-41187324D01*
X51645294Y-41150577D01*
X51824660Y-41035158D01*
X51944990Y-40859049D01*
X51987324Y-40650000D01*
X51987324Y-38950000D01*
X51950577Y-38754706D01*
X51835158Y-38575340D01*
X51659049Y-38455010D01*
X51450000Y-38412676D01*
X51332785Y-38412676D01*
X51600663Y-38233686D01*
X51899159Y-37786955D01*
X52003977Y-37260000D01*
X51899159Y-36733045D01*
X51600663Y-36286314D01*
X51377000Y-36136867D01*
X51377000Y-35621844D01*
X54461520Y-32537324D01*
X55200000Y-32537324D01*
X55395294Y-32500577D01*
X55574660Y-32385158D01*
X55694990Y-32209049D01*
X55706543Y-32152000D01*
X56949995Y-32152000D01*
X56950000Y-32152001D01*
X57158113Y-32110604D01*
X57199510Y-32102369D01*
X57411034Y-31961034D01*
X58434744Y-30937324D01*
X58575000Y-30937324D01*
X58770294Y-30900577D01*
X58829741Y-30862324D01*
X59548000Y-30862324D01*
X59548000Y-32129933D01*
X59466811Y-32211122D01*
X59255125Y-32123222D01*
X58747103Y-32122779D01*
X58277583Y-32316781D01*
X57918043Y-32675693D01*
X57723222Y-33144875D01*
X57722779Y-33652897D01*
X57916781Y-34122417D01*
X58275693Y-34481957D01*
X58744875Y-34676778D01*
X59252897Y-34677221D01*
X59722417Y-34483219D01*
X60081957Y-34124307D01*
X60276778Y-33655125D01*
X60277136Y-33244932D01*
X60661031Y-32861036D01*
X60661034Y-32861034D01*
X60778935Y-32684582D01*
X60802370Y-32649509D01*
X60852001Y-32400000D01*
X60852000Y-32399995D01*
X60852000Y-30902000D01*
X62575933Y-30902000D01*
X61738966Y-31738966D01*
X61597631Y-31950490D01*
X61597631Y-31950491D01*
X61547999Y-32200000D01*
X61548000Y-32200005D01*
X61548000Y-32287685D01*
X61477583Y-32316781D01*
X61118043Y-32675693D01*
X60923222Y-33144875D01*
X60922779Y-33652897D01*
X61116781Y-34122417D01*
X61475693Y-34481957D01*
X61944875Y-34676778D01*
X62452897Y-34677221D01*
X62922417Y-34483219D01*
X63281957Y-34124307D01*
X63476778Y-33655125D01*
X63477221Y-33147103D01*
X63283219Y-32677583D01*
X62964131Y-32357937D01*
X63470067Y-31852000D01*
X66225932Y-31852000D01*
X65925491Y-32152441D01*
X65855125Y-32123222D01*
X65347103Y-32122779D01*
X64877583Y-32316781D01*
X64518043Y-32675693D01*
X64323222Y-33144875D01*
X64322779Y-33652897D01*
X64516781Y-34122417D01*
X64875693Y-34481957D01*
X65344875Y-34676778D01*
X65852897Y-34677221D01*
X66322417Y-34483219D01*
X66681957Y-34124307D01*
X66876778Y-33655125D01*
X66877221Y-33147103D01*
X66847323Y-33074745D01*
X67270068Y-32652000D01*
X71599995Y-32652000D01*
X71600000Y-32652001D01*
X71808113Y-32610604D01*
X71849510Y-32602369D01*
X72061034Y-32461034D01*
X74061034Y-30461034D01*
X74101815Y-30400000D01*
X74202369Y-30249510D01*
X74252000Y-30000000D01*
X74252000Y-29099299D01*
X74364842Y-29274660D01*
X74540951Y-29394990D01*
X74750000Y-29437324D01*
X74823000Y-29437324D01*
X74823000Y-33214711D01*
X74773144Y-33334778D01*
X74772857Y-33663779D01*
X74898495Y-33967846D01*
X75130930Y-34200688D01*
X75434778Y-34326856D01*
X75763779Y-34327143D01*
X76067846Y-34201505D01*
X76300688Y-33969070D01*
X76426856Y-33665222D01*
X76427143Y-33336221D01*
X76377000Y-33214866D01*
X76377000Y-33023970D01*
X81865635Y-33023970D01*
X82025418Y-33342739D01*
X82816187Y-33652723D01*
X83665387Y-33636497D01*
X84374582Y-33342739D01*
X84534365Y-33023970D01*
X83200000Y-31689605D01*
X81865635Y-33023970D01*
X76377000Y-33023970D01*
X76377000Y-31126187D01*
X81057277Y-31126187D01*
X81073503Y-31975387D01*
X81367261Y-32684582D01*
X81686030Y-32844365D01*
X83020395Y-31510000D01*
X83379605Y-31510000D01*
X84713970Y-32844365D01*
X85032739Y-32684582D01*
X85292283Y-32022483D01*
X108949222Y-32022483D01*
X108992558Y-32242751D01*
X109439051Y-32394022D01*
X109909446Y-32362913D01*
X110199542Y-32242751D01*
X110242878Y-32022483D01*
X109596050Y-31375655D01*
X108949222Y-32022483D01*
X85292283Y-32022483D01*
X85342723Y-31893813D01*
X85326497Y-31044613D01*
X85324194Y-31039051D01*
X108398078Y-31039051D01*
X108429187Y-31509446D01*
X108549349Y-31799542D01*
X108769617Y-31842878D01*
X109416445Y-31196050D01*
X108769617Y-30549222D01*
X108549349Y-30592558D01*
X108398078Y-31039051D01*
X85324194Y-31039051D01*
X85032739Y-30335418D01*
X84713970Y-30175635D01*
X83379605Y-31510000D01*
X83020395Y-31510000D01*
X81686030Y-30175635D01*
X81367261Y-30335418D01*
X81057277Y-31126187D01*
X76377000Y-31126187D01*
X76377000Y-29996030D01*
X81865635Y-29996030D01*
X83200000Y-31330395D01*
X84534365Y-29996030D01*
X84374582Y-29677261D01*
X83583813Y-29367277D01*
X82734613Y-29383503D01*
X82025418Y-29677261D01*
X81865635Y-29996030D01*
X76377000Y-29996030D01*
X76377000Y-29437324D01*
X76450000Y-29437324D01*
X76645294Y-29400577D01*
X76824660Y-29285158D01*
X76944990Y-29109049D01*
X76987324Y-28900000D01*
X76987324Y-28000000D01*
X76950577Y-27804706D01*
X76835158Y-27625340D01*
X76659049Y-27505010D01*
X76450000Y-27462676D01*
X75711520Y-27462676D01*
X74786168Y-26537324D01*
X76450000Y-26537324D01*
X76645294Y-26500577D01*
X76824660Y-26385158D01*
X76864398Y-26327000D01*
X77584174Y-26327000D01*
X77614842Y-26374660D01*
X77790951Y-26494990D01*
X78000000Y-26537324D01*
X79600000Y-26537324D01*
X79795294Y-26500577D01*
X79974660Y-26385158D01*
X80048561Y-26277000D01*
X80751999Y-26277000D01*
X80814842Y-26374660D01*
X80990951Y-26494990D01*
X81200000Y-26537324D01*
X82800000Y-26537324D01*
X82995294Y-26500577D01*
X83174660Y-26385158D01*
X83248561Y-26277000D01*
X84151999Y-26277000D01*
X84214842Y-26374660D01*
X84390951Y-26494990D01*
X84600000Y-26537324D01*
X86200000Y-26537324D01*
X86395294Y-26500577D01*
X86574660Y-26385158D01*
X86648561Y-26277000D01*
X87551999Y-26277000D01*
X87614842Y-26374660D01*
X87790951Y-26494990D01*
X88000000Y-26537324D01*
X89600000Y-26537324D01*
X89795294Y-26500577D01*
X89974660Y-26385158D01*
X90048561Y-26277000D01*
X90951999Y-26277000D01*
X91014842Y-26374660D01*
X91190951Y-26494990D01*
X91400000Y-26537324D01*
X93000000Y-26537324D01*
X93195294Y-26500577D01*
X93374660Y-26385158D01*
X93448561Y-26277000D01*
X94151999Y-26277000D01*
X94214842Y-26374660D01*
X94390951Y-26494990D01*
X94600000Y-26537324D01*
X96200000Y-26537324D01*
X96395294Y-26500577D01*
X96574660Y-26385158D01*
X96648561Y-26277000D01*
X97351999Y-26277000D01*
X97414842Y-26374660D01*
X97590951Y-26494990D01*
X97800000Y-26537324D01*
X99400000Y-26537324D01*
X99595294Y-26500577D01*
X99774660Y-26385158D01*
X99848561Y-26277000D01*
X103578156Y-26277000D01*
X104926930Y-27625774D01*
X104926763Y-27817239D01*
X105090381Y-28213225D01*
X105393082Y-28516454D01*
X105788782Y-28680763D01*
X106217239Y-28681137D01*
X106613225Y-28517519D01*
X106916454Y-28214818D01*
X107080763Y-27819118D01*
X107081137Y-27390661D01*
X106917519Y-26994675D01*
X106614818Y-26691446D01*
X106219118Y-26527137D01*
X106025812Y-26526968D01*
X104449422Y-24950578D01*
X104197345Y-24782146D01*
X103900000Y-24723000D01*
X99848001Y-24723000D01*
X99785158Y-24625340D01*
X99782013Y-24623191D01*
X105672805Y-24623191D01*
X105844019Y-25037560D01*
X106160772Y-25354867D01*
X106574842Y-25526804D01*
X107023191Y-25527195D01*
X107437560Y-25355981D01*
X107754867Y-25039228D01*
X107799898Y-24930780D01*
X107844019Y-25037560D01*
X108160772Y-25354867D01*
X108574842Y-25526804D01*
X109023191Y-25527195D01*
X109437560Y-25355981D01*
X109754867Y-25039228D01*
X109926804Y-24625158D01*
X109927195Y-24176809D01*
X109755981Y-23762440D01*
X109439228Y-23445133D01*
X109025158Y-23273196D01*
X108576809Y-23272805D01*
X108162440Y-23444019D01*
X107845133Y-23760772D01*
X107800102Y-23869220D01*
X107755981Y-23762440D01*
X107439228Y-23445133D01*
X107025158Y-23273196D01*
X106576809Y-23272805D01*
X106162440Y-23444019D01*
X105845133Y-23760772D01*
X105673196Y-24174842D01*
X105672805Y-24623191D01*
X99782013Y-24623191D01*
X99609049Y-24505010D01*
X99400000Y-24462676D01*
X97800000Y-24462676D01*
X97604706Y-24499423D01*
X97425340Y-24614842D01*
X97351439Y-24723000D01*
X96648001Y-24723000D01*
X96585158Y-24625340D01*
X96409049Y-24505010D01*
X96200000Y-24462676D01*
X94600000Y-24462676D01*
X94404706Y-24499423D01*
X94225340Y-24614842D01*
X94151439Y-24723000D01*
X93448001Y-24723000D01*
X93385158Y-24625340D01*
X93209049Y-24505010D01*
X93000000Y-24462676D01*
X91400000Y-24462676D01*
X91204706Y-24499423D01*
X91025340Y-24614842D01*
X90951439Y-24723000D01*
X90048001Y-24723000D01*
X89985158Y-24625340D01*
X89809049Y-24505010D01*
X89600000Y-24462676D01*
X88000000Y-24462676D01*
X87804706Y-24499423D01*
X87625340Y-24614842D01*
X87551439Y-24723000D01*
X86648001Y-24723000D01*
X86585158Y-24625340D01*
X86409049Y-24505010D01*
X86200000Y-24462676D01*
X84600000Y-24462676D01*
X84404706Y-24499423D01*
X84225340Y-24614842D01*
X84151439Y-24723000D01*
X83248001Y-24723000D01*
X83185158Y-24625340D01*
X83009049Y-24505010D01*
X82800000Y-24462676D01*
X81200000Y-24462676D01*
X81004706Y-24499423D01*
X80825340Y-24614842D01*
X80751439Y-24723000D01*
X80048001Y-24723000D01*
X79985158Y-24625340D01*
X79809049Y-24505010D01*
X79600000Y-24462676D01*
X78000000Y-24462676D01*
X77804706Y-24499423D01*
X77625340Y-24614842D01*
X77517275Y-24773000D01*
X76865826Y-24773000D01*
X76835158Y-24725340D01*
X76659049Y-24605010D01*
X76450000Y-24562676D01*
X74750000Y-24562676D01*
X74554706Y-24599423D01*
X74375340Y-24714842D01*
X74255010Y-24890951D01*
X74212676Y-25100000D01*
X74212676Y-25963832D01*
X73299422Y-25050578D01*
X73047345Y-24882146D01*
X72750000Y-24823000D01*
X72298001Y-24823000D01*
X72235158Y-24725340D01*
X72059049Y-24605010D01*
X71850000Y-24562676D01*
X70150000Y-24562676D01*
X69954706Y-24599423D01*
X69775340Y-24714842D01*
X69735602Y-24773000D01*
X68865826Y-24773000D01*
X68835158Y-24725340D01*
X68659049Y-24605010D01*
X68450000Y-24562676D01*
X66750000Y-24562676D01*
X66554706Y-24599423D01*
X66375340Y-24714842D01*
X66335602Y-24773000D01*
X65465826Y-24773000D01*
X65435158Y-24725340D01*
X65259049Y-24605010D01*
X65050000Y-24562676D01*
X63350000Y-24562676D01*
X63154706Y-24599423D01*
X62975340Y-24714842D01*
X62901439Y-24823000D01*
X53600000Y-24823000D01*
X53302655Y-24882146D01*
X53050578Y-25050578D01*
X51850578Y-26250578D01*
X51682146Y-26502655D01*
X51623000Y-26800000D01*
X51623000Y-29678156D01*
X47250578Y-34050578D01*
X47082146Y-34302655D01*
X47023000Y-34600000D01*
X43777000Y-34600000D01*
X43777000Y-27021230D01*
X46072632Y-27021230D01*
X46395766Y-27803274D01*
X46993578Y-28402131D01*
X47775057Y-28726630D01*
X48621230Y-28727368D01*
X49403274Y-28404234D01*
X50002131Y-27806422D01*
X50326630Y-27024943D01*
X50327368Y-26178770D01*
X50004234Y-25396726D01*
X49406422Y-24797869D01*
X48624943Y-24473370D01*
X47778770Y-24472632D01*
X46996726Y-24795766D01*
X46397869Y-25393578D01*
X46073370Y-26175057D01*
X46072632Y-27021230D01*
X43777000Y-27021230D01*
X43777000Y-22177000D01*
X122623000Y-22177000D01*
X122623000Y-121023000D01*
X122623000Y-121023000D01*
G37*
X122623000Y-121023000D02*
X105176126Y-121023000D01*
X105295294Y-121000577D01*
X105474660Y-120885158D01*
X105594990Y-120709049D01*
X105637324Y-120500000D01*
X105637324Y-118353566D01*
X105795574Y-118736560D01*
X106161513Y-119103139D01*
X106639880Y-119301774D01*
X107157848Y-119302226D01*
X107636560Y-119104426D01*
X108003139Y-118738487D01*
X108201774Y-118260120D01*
X108202002Y-117999301D01*
X108314842Y-118174660D01*
X108490951Y-118294990D01*
X108700000Y-118337324D01*
X111650000Y-118337324D01*
X111845294Y-118300577D01*
X112024660Y-118185158D01*
X112144990Y-118009049D01*
X112187324Y-117800000D01*
X112187324Y-117021230D01*
X116072632Y-117021230D01*
X116395766Y-117803274D01*
X116993578Y-118402131D01*
X117775057Y-118726630D01*
X118621230Y-118727368D01*
X119403274Y-118404234D01*
X120002131Y-117806422D01*
X120326630Y-117024943D01*
X120327368Y-116178770D01*
X120004234Y-115396726D01*
X119406422Y-114797869D01*
X118624943Y-114473370D01*
X117778770Y-114472632D01*
X116996726Y-114795766D01*
X116397869Y-115393578D01*
X116073370Y-116175057D01*
X116072632Y-117021230D01*
X112187324Y-117021230D01*
X112187324Y-115686520D01*
X115299422Y-112574422D01*
X115467854Y-112322345D01*
X115527000Y-112025000D01*
X115527000Y-110865826D01*
X115574660Y-110835158D01*
X115694990Y-110659049D01*
X115737324Y-110450000D01*
X115737324Y-108750000D01*
X115700577Y-108554706D01*
X115585158Y-108375340D01*
X115409049Y-108255010D01*
X115200000Y-108212676D01*
X114300000Y-108212676D01*
X114104706Y-108249423D01*
X113925340Y-108364842D01*
X113805010Y-108540951D01*
X113762676Y-108750000D01*
X113762676Y-110450000D01*
X113799423Y-110645294D01*
X113914842Y-110824660D01*
X113973000Y-110864398D01*
X113973000Y-111703156D01*
X110813480Y-114862676D01*
X108700000Y-114862676D01*
X108504706Y-114899423D01*
X108325340Y-115014842D01*
X108205010Y-115190951D01*
X108162676Y-115400000D01*
X108162676Y-117646434D01*
X108004426Y-117263440D01*
X107638487Y-116896861D01*
X107160120Y-116698226D01*
X106642152Y-116697774D01*
X106163440Y-116895574D01*
X105796861Y-117261513D01*
X105598226Y-117739880D01*
X105598086Y-117900834D01*
X105485158Y-117725340D01*
X105309049Y-117605010D01*
X105100000Y-117562676D01*
X104402000Y-117562676D01*
X104402000Y-116425000D01*
X104342854Y-116127655D01*
X104174422Y-115875578D01*
X100556692Y-112257848D01*
X105597774Y-112257848D01*
X105795574Y-112736560D01*
X106161513Y-113103139D01*
X106639880Y-113301774D01*
X107157848Y-113302226D01*
X107636560Y-113104426D01*
X108003139Y-112738487D01*
X108201774Y-112260120D01*
X108202226Y-111742152D01*
X108004426Y-111263440D01*
X107638487Y-110896861D01*
X107160120Y-110698226D01*
X106642152Y-110697774D01*
X106163440Y-110895574D01*
X105796861Y-111261513D01*
X105598226Y-111739880D01*
X105597774Y-112257848D01*
X100556692Y-112257848D01*
X100377000Y-112078156D01*
X100377000Y-94600000D01*
X100317854Y-94302655D01*
X100149422Y-94050578D01*
X93462623Y-87363779D01*
X98372857Y-87363779D01*
X98423000Y-87485134D01*
X98423000Y-91400000D01*
X98482146Y-91697345D01*
X98650578Y-91949422D01*
X102698000Y-95996844D01*
X102698000Y-107862676D01*
X102150000Y-107862676D01*
X101954706Y-107899423D01*
X101775340Y-108014842D01*
X101655010Y-108190951D01*
X101612676Y-108400000D01*
X101612676Y-110800000D01*
X101649423Y-110995294D01*
X101764842Y-111174660D01*
X101940951Y-111294990D01*
X102150000Y-111337324D01*
X104800000Y-111337324D01*
X104995294Y-111300577D01*
X105174660Y-111185158D01*
X105294990Y-111009049D01*
X105337324Y-110800000D01*
X105337324Y-108400000D01*
X108462676Y-108400000D01*
X108462676Y-110800000D01*
X108499423Y-110995294D01*
X108614842Y-111174660D01*
X108790951Y-111294990D01*
X109000000Y-111337324D01*
X111650000Y-111337324D01*
X111845294Y-111300577D01*
X112024660Y-111185158D01*
X112144990Y-111009049D01*
X112187324Y-110800000D01*
X112187324Y-108400000D01*
X112150577Y-108204706D01*
X112035158Y-108025340D01*
X111859049Y-107905010D01*
X111650000Y-107862676D01*
X109000000Y-107862676D01*
X108804706Y-107899423D01*
X108625340Y-108014842D01*
X108505010Y-108190951D01*
X108462676Y-108400000D01*
X105337324Y-108400000D01*
X105300577Y-108204706D01*
X105185158Y-108025340D01*
X105009049Y-107905010D01*
X104800000Y-107862676D01*
X104252000Y-107862676D01*
X104252000Y-95675000D01*
X104192854Y-95377655D01*
X104024422Y-95125578D01*
X99977000Y-91078156D01*
X99977000Y-90963779D01*
X100772857Y-90963779D01*
X100898495Y-91267846D01*
X101130930Y-91500688D01*
X101252199Y-91551043D01*
X103450578Y-93749422D01*
X103702655Y-93917854D01*
X104000000Y-93977000D01*
X114478156Y-93977000D01*
X117023000Y-96521844D01*
X117023000Y-108245981D01*
X117004706Y-108249423D01*
X116825340Y-108364842D01*
X116705010Y-108540951D01*
X116662676Y-108750000D01*
X116662676Y-110450000D01*
X116699423Y-110645294D01*
X116814842Y-110824660D01*
X116990951Y-110944990D01*
X117200000Y-110987324D01*
X118100000Y-110987324D01*
X118295294Y-110950577D01*
X118474660Y-110835158D01*
X118594990Y-110659049D01*
X118637324Y-110450000D01*
X118637324Y-108750000D01*
X118600577Y-108554706D01*
X118577000Y-108518066D01*
X118577000Y-96200000D01*
X118517854Y-95902655D01*
X118349422Y-95650578D01*
X115349422Y-92650578D01*
X115097345Y-92482146D01*
X114800000Y-92423000D01*
X104321844Y-92423000D01*
X102351151Y-90452307D01*
X102301505Y-90332154D01*
X102069070Y-90099312D01*
X101765222Y-89973144D01*
X101436221Y-89972857D01*
X101132154Y-90098495D01*
X100899312Y-90330930D01*
X100773144Y-90634778D01*
X100772857Y-90963779D01*
X99977000Y-90963779D01*
X99977000Y-88163779D01*
X108172857Y-88163779D01*
X108298495Y-88467846D01*
X108530930Y-88700688D01*
X108834778Y-88826856D01*
X109163779Y-88827143D01*
X109467846Y-88701505D01*
X109700688Y-88469070D01*
X109751926Y-88345674D01*
X109917854Y-88097345D01*
X109977000Y-87800000D01*
X109977000Y-79285289D01*
X110026856Y-79165222D01*
X110027143Y-78836221D01*
X109901505Y-78532154D01*
X109669070Y-78299312D01*
X109365222Y-78173144D01*
X109036221Y-78172857D01*
X108732154Y-78298495D01*
X108499312Y-78530930D01*
X108373144Y-78834778D01*
X108372857Y-79163779D01*
X108423000Y-79285134D01*
X108423000Y-87407458D01*
X108299312Y-87530930D01*
X108173144Y-87834778D01*
X108172857Y-88163779D01*
X99977000Y-88163779D01*
X99977000Y-87485289D01*
X100026856Y-87365222D01*
X100027143Y-87036221D01*
X99901505Y-86732154D01*
X99669070Y-86499312D01*
X99365222Y-86373144D01*
X99036221Y-86372857D01*
X98732154Y-86498495D01*
X98499312Y-86730930D01*
X98373144Y-87034778D01*
X98372857Y-87363779D01*
X93462623Y-87363779D01*
X93377000Y-87278156D01*
X93377000Y-83685289D01*
X93426856Y-83565222D01*
X93427143Y-83236221D01*
X93301505Y-82932154D01*
X93069070Y-82699312D01*
X92765222Y-82573144D01*
X92436221Y-82572857D01*
X92132154Y-82698495D01*
X92002000Y-82828421D01*
X92002000Y-75363779D01*
X103372857Y-75363779D01*
X103423000Y-75485134D01*
X103423000Y-78714711D01*
X103373144Y-78834778D01*
X103372857Y-79163779D01*
X103498495Y-79467846D01*
X103730930Y-79700688D01*
X104034778Y-79826856D01*
X104363779Y-79827143D01*
X104667846Y-79701505D01*
X104900688Y-79469070D01*
X105026856Y-79165222D01*
X105027143Y-78836221D01*
X104977000Y-78714866D01*
X104977000Y-75485289D01*
X105026856Y-75365222D01*
X105027143Y-75036221D01*
X104901505Y-74732154D01*
X104669070Y-74499312D01*
X104365222Y-74373144D01*
X104036221Y-74372857D01*
X103732154Y-74498495D01*
X103499312Y-74730930D01*
X103373144Y-75034778D01*
X103372857Y-75363779D01*
X92002000Y-75363779D01*
X92002000Y-70567585D01*
X92100688Y-70469070D01*
X92226856Y-70165222D01*
X92227143Y-69836221D01*
X92101505Y-69532154D01*
X91869070Y-69299312D01*
X91565222Y-69173144D01*
X91236221Y-69172857D01*
X90932154Y-69298495D01*
X90699312Y-69530930D01*
X90573144Y-69834778D01*
X90572857Y-70163779D01*
X90698000Y-70466648D01*
X90698000Y-96179933D01*
X90045562Y-96832370D01*
X90052001Y-96800000D01*
X90052000Y-96799995D01*
X90052000Y-90600005D01*
X90052001Y-90600000D01*
X90002370Y-90350491D01*
X89901815Y-90200000D01*
X89861034Y-90138966D01*
X89861031Y-90138964D01*
X86561034Y-86838966D01*
X86549007Y-86830930D01*
X86349510Y-86697631D01*
X86308113Y-86689396D01*
X86100000Y-86647999D01*
X86099995Y-86648000D01*
X83617673Y-86648000D01*
X83569070Y-86599312D01*
X83265222Y-86473144D01*
X83049112Y-86472955D01*
X83070067Y-86452000D01*
X84082327Y-86452000D01*
X84130930Y-86500688D01*
X84434778Y-86626856D01*
X84763779Y-86627143D01*
X85067846Y-86501505D01*
X85300688Y-86269070D01*
X85426856Y-85965222D01*
X85427143Y-85636221D01*
X85301505Y-85332154D01*
X85069070Y-85099312D01*
X84765222Y-84973144D01*
X84549113Y-84972955D01*
X84661034Y-84861034D01*
X84734896Y-84750491D01*
X84802369Y-84649510D01*
X84852000Y-84400000D01*
X84852000Y-84317673D01*
X84900688Y-84269070D01*
X85026856Y-83965222D01*
X85027143Y-83636221D01*
X84901505Y-83332154D01*
X84669070Y-83099312D01*
X84365222Y-82973144D01*
X84036221Y-82972857D01*
X83732154Y-83098495D01*
X83499312Y-83330930D01*
X83373144Y-83634778D01*
X83372857Y-83963779D01*
X83472646Y-84205286D01*
X83329932Y-84348000D01*
X82400000Y-84348000D01*
X82150490Y-84397631D01*
X81938966Y-84538966D01*
X81938964Y-84538969D01*
X80914450Y-85563483D01*
X80901505Y-85532154D01*
X80669070Y-85299312D01*
X80495025Y-85227042D01*
X82011031Y-83711036D01*
X82011034Y-83711034D01*
X84661034Y-81061034D01*
X85661031Y-80061036D01*
X85661034Y-80061034D01*
X85994985Y-79727083D01*
X86063779Y-79727143D01*
X86367846Y-79601505D01*
X86600688Y-79369070D01*
X86726856Y-79065222D01*
X86727143Y-78736221D01*
X86601505Y-78432154D01*
X86369070Y-78199312D01*
X86065222Y-78073144D01*
X85736221Y-78072857D01*
X85432154Y-78198495D01*
X85199312Y-78430930D01*
X85073144Y-78734778D01*
X85073083Y-78804850D01*
X84777244Y-79100688D01*
X84738966Y-79138966D01*
X84738964Y-79138969D01*
X83738966Y-80138966D01*
X81088966Y-82788966D01*
X81088964Y-82788969D01*
X76914450Y-86963483D01*
X76901505Y-86932154D01*
X76745846Y-86776222D01*
X85317262Y-78204805D01*
X85329510Y-78202369D01*
X85541034Y-78061034D01*
X85682369Y-77849510D01*
X85732000Y-77600000D01*
X85732000Y-77520005D01*
X85732001Y-77520000D01*
X85732000Y-77519995D01*
X85732000Y-67615607D01*
X86053686Y-67400663D01*
X86352182Y-66953932D01*
X86457000Y-66426977D01*
X86457000Y-66373023D01*
X86352182Y-65846068D01*
X86053686Y-65399337D01*
X85606955Y-65100841D01*
X85080000Y-64996023D01*
X84553045Y-65100841D01*
X84106314Y-65399337D01*
X83810000Y-65842802D01*
X83513686Y-65399337D01*
X83066955Y-65100841D01*
X82540000Y-64996023D01*
X82013045Y-65100841D01*
X81566314Y-65399337D01*
X81485000Y-65521032D01*
X81485000Y-65423691D01*
X81388327Y-65190302D01*
X81209699Y-65011673D01*
X80976310Y-64915000D01*
X80285750Y-64915000D01*
X80127000Y-65073750D01*
X80127000Y-66273000D01*
X80147000Y-66273000D01*
X80147000Y-66527000D01*
X80127000Y-66527000D01*
X80127000Y-67726250D01*
X80285750Y-67885000D01*
X80976310Y-67885000D01*
X81209699Y-67788327D01*
X81388327Y-67609698D01*
X81485000Y-67376309D01*
X81485000Y-67278968D01*
X81566314Y-67400663D01*
X81888000Y-67615607D01*
X81888000Y-78789932D01*
X74529932Y-86148000D01*
X72800005Y-86148000D01*
X72800000Y-86147999D01*
X72550491Y-86197630D01*
X72550489Y-86197631D01*
X72550490Y-86197631D01*
X72338966Y-86338966D01*
X72338964Y-86338969D01*
X71705015Y-86972917D01*
X71652000Y-86972871D01*
X71652000Y-86270068D01*
X71894985Y-86027083D01*
X71963779Y-86027143D01*
X72267846Y-85901505D01*
X72500688Y-85669070D01*
X72626856Y-85365222D01*
X72627143Y-85036221D01*
X72501505Y-84732154D01*
X72269070Y-84499312D01*
X71965222Y-84373144D01*
X71636221Y-84372857D01*
X71332154Y-84498495D01*
X71099312Y-84730930D01*
X70973144Y-85034778D01*
X70973083Y-85104849D01*
X70538966Y-85538966D01*
X70397631Y-85750490D01*
X70397631Y-85750491D01*
X70347999Y-86000000D01*
X70348000Y-86000005D01*
X70348000Y-89199995D01*
X70347999Y-89200000D01*
X70388254Y-89402369D01*
X70397631Y-89449510D01*
X70499190Y-89601505D01*
X70538966Y-89661034D01*
X71172917Y-90294984D01*
X71172857Y-90363779D01*
X71298495Y-90667846D01*
X71530930Y-90900688D01*
X71834778Y-91026856D01*
X72163779Y-91027143D01*
X72467846Y-90901505D01*
X72700688Y-90669070D01*
X72826856Y-90365222D01*
X72827143Y-90036221D01*
X72701505Y-89732154D01*
X72469070Y-89499312D01*
X72165222Y-89373144D01*
X72095150Y-89373083D01*
X71652000Y-88929932D01*
X71652000Y-88626871D01*
X71881647Y-88627071D01*
X71898495Y-88667846D01*
X72130930Y-88900688D01*
X72391494Y-89008883D01*
X72498495Y-89267846D01*
X72730930Y-89500688D01*
X73034778Y-89626856D01*
X73363779Y-89627143D01*
X73667846Y-89501505D01*
X73900688Y-89269070D01*
X74026856Y-88965222D01*
X74026917Y-88895151D01*
X74070068Y-88852000D01*
X75025932Y-88852000D01*
X71026956Y-92850976D01*
X71027143Y-92636221D01*
X70901505Y-92332154D01*
X70669070Y-92099312D01*
X70365222Y-91973144D01*
X70295151Y-91973083D01*
X68052000Y-89729932D01*
X68052000Y-86400005D01*
X68052001Y-86400000D01*
X68002370Y-86150491D01*
X67934896Y-86049509D01*
X67861034Y-85938966D01*
X67861031Y-85938964D01*
X54085847Y-72163779D01*
X60772857Y-72163779D01*
X60898495Y-72467846D01*
X61130930Y-72700688D01*
X61434778Y-72826856D01*
X61763779Y-72827143D01*
X62067846Y-72701505D01*
X62117438Y-72652000D01*
X64882327Y-72652000D01*
X64930930Y-72700688D01*
X65234778Y-72826856D01*
X65548000Y-72827129D01*
X65548000Y-75929932D01*
X63904841Y-77573091D01*
X63636221Y-77572857D01*
X63332154Y-77698495D01*
X63099312Y-77930930D01*
X62973144Y-78234778D01*
X62972857Y-78563779D01*
X63098495Y-78867846D01*
X63330930Y-79100688D01*
X63634778Y-79226856D01*
X63963779Y-79227143D01*
X64267846Y-79101505D01*
X64500688Y-78869070D01*
X64534552Y-78787516D01*
X66148000Y-77174068D01*
X66148000Y-81682327D01*
X66099312Y-81730930D01*
X65973144Y-82034778D01*
X65972857Y-82363779D01*
X66098495Y-82667846D01*
X66330930Y-82900688D01*
X66634778Y-83026856D01*
X66963779Y-83027143D01*
X67267846Y-82901505D01*
X67500688Y-82669070D01*
X67626856Y-82365222D01*
X67626870Y-82348938D01*
X68538964Y-83261031D01*
X68538966Y-83261034D01*
X69572917Y-84294985D01*
X69572857Y-84363779D01*
X69698495Y-84667846D01*
X69930930Y-84900688D01*
X70234778Y-85026856D01*
X70563779Y-85027143D01*
X70867846Y-84901505D01*
X71100688Y-84669070D01*
X71226856Y-84365222D01*
X71227143Y-84036221D01*
X71101505Y-83732154D01*
X70869070Y-83499312D01*
X70565222Y-83373144D01*
X70495151Y-83373083D01*
X69461034Y-82338966D01*
X69461031Y-82338964D01*
X68052000Y-80929932D01*
X68052000Y-66685750D01*
X78515000Y-66685750D01*
X78515000Y-67376309D01*
X78611673Y-67609698D01*
X78790301Y-67788327D01*
X79023690Y-67885000D01*
X79714250Y-67885000D01*
X79873000Y-67726250D01*
X79873000Y-66527000D01*
X78673750Y-66527000D01*
X78515000Y-66685750D01*
X68052000Y-66685750D01*
X68052000Y-65870068D01*
X68498377Y-65423691D01*
X78515000Y-65423691D01*
X78515000Y-66114250D01*
X78673750Y-66273000D01*
X79873000Y-66273000D01*
X79873000Y-65073750D01*
X79714250Y-64915000D01*
X79023690Y-64915000D01*
X78790301Y-65011673D01*
X78611673Y-65190302D01*
X78515000Y-65423691D01*
X68498377Y-65423691D01*
X69870068Y-64052000D01*
X82599995Y-64052000D01*
X82600000Y-64052001D01*
X82808113Y-64010604D01*
X82849510Y-64002369D01*
X83061034Y-63861034D01*
X84681034Y-62241034D01*
X84822369Y-62029510D01*
X84838070Y-61950577D01*
X84863833Y-61821064D01*
X85193686Y-61600663D01*
X85490000Y-61157198D01*
X85786314Y-61600663D01*
X86233045Y-61899159D01*
X86760000Y-62003977D01*
X87286955Y-61899159D01*
X87733686Y-61600663D01*
X88030000Y-61157198D01*
X88326314Y-61600663D01*
X88773045Y-61899159D01*
X89300000Y-62003977D01*
X89826955Y-61899159D01*
X90273686Y-61600663D01*
X90572182Y-61153932D01*
X90677000Y-60626977D01*
X90677000Y-60573023D01*
X90572182Y-60046068D01*
X90273686Y-59599337D01*
X89826955Y-59300841D01*
X89300000Y-59196023D01*
X88773045Y-59300841D01*
X88326314Y-59599337D01*
X88030000Y-60042802D01*
X87733686Y-59599337D01*
X87286955Y-59300841D01*
X86760000Y-59196023D01*
X86233045Y-59300841D01*
X85786314Y-59599337D01*
X85490000Y-60042802D01*
X85193686Y-59599337D01*
X84746955Y-59300841D01*
X84220000Y-59196023D01*
X83693045Y-59300841D01*
X83246314Y-59599337D01*
X82995463Y-59974762D01*
X82875183Y-59718642D01*
X82446924Y-59328355D01*
X82036890Y-59158524D01*
X81807000Y-59279845D01*
X81807000Y-60473000D01*
X81827000Y-60473000D01*
X81827000Y-60727000D01*
X81807000Y-60727000D01*
X81807000Y-61920155D01*
X82036890Y-62041476D01*
X82446924Y-61871645D01*
X82875183Y-61481358D01*
X82995463Y-61225238D01*
X83246314Y-61600663D01*
X83384761Y-61693171D01*
X82329932Y-62748000D01*
X79374067Y-62748000D01*
X79601031Y-62521036D01*
X79601034Y-62521034D01*
X79742369Y-62309510D01*
X79792000Y-62060000D01*
X79792000Y-61815607D01*
X80113686Y-61600663D01*
X80364537Y-61225238D01*
X80484817Y-61481358D01*
X80913076Y-61871645D01*
X81323110Y-62041476D01*
X81553000Y-61920155D01*
X81553000Y-60727000D01*
X81533000Y-60727000D01*
X81533000Y-60473000D01*
X81553000Y-60473000D01*
X81553000Y-59279845D01*
X81323110Y-59158524D01*
X80913076Y-59328355D01*
X80484817Y-59718642D01*
X80364537Y-59974762D01*
X80113686Y-59599337D01*
X79666955Y-59300841D01*
X79140000Y-59196023D01*
X78613045Y-59300841D01*
X78166314Y-59599337D01*
X77987324Y-59867215D01*
X77987324Y-59750000D01*
X77950577Y-59554706D01*
X77835158Y-59375340D01*
X77659049Y-59255010D01*
X77450000Y-59212676D01*
X75750000Y-59212676D01*
X75554706Y-59249423D01*
X75375340Y-59364842D01*
X75255010Y-59540951D01*
X75212676Y-59750000D01*
X75212676Y-59823000D01*
X71187324Y-59823000D01*
X71187324Y-59750000D01*
X71150577Y-59554706D01*
X71035158Y-59375340D01*
X70859049Y-59255010D01*
X70650000Y-59212676D01*
X70532785Y-59212676D01*
X70800663Y-59033686D01*
X71099159Y-58586955D01*
X71203977Y-58060000D01*
X71099159Y-57533045D01*
X70800663Y-57086314D01*
X70353932Y-56787818D01*
X69826977Y-56683000D01*
X69773023Y-56683000D01*
X69246068Y-56787818D01*
X68799337Y-57086314D01*
X68500841Y-57533045D01*
X68396023Y-58060000D01*
X68500841Y-58586955D01*
X68799337Y-59033686D01*
X69067215Y-59212676D01*
X68950000Y-59212676D01*
X68754706Y-59249423D01*
X68575340Y-59364842D01*
X68455010Y-59540951D01*
X68412676Y-59750000D01*
X68412676Y-61450000D01*
X68449423Y-61645294D01*
X68564842Y-61824660D01*
X68740951Y-61944990D01*
X68950000Y-61987324D01*
X69202306Y-61987324D01*
X69150490Y-61997631D01*
X68938966Y-62138966D01*
X68938964Y-62138969D01*
X68252000Y-62825933D01*
X68252000Y-56470068D01*
X68670068Y-56052000D01*
X71199995Y-56052000D01*
X71200000Y-56052001D01*
X71408113Y-56010604D01*
X71449510Y-56002369D01*
X71661034Y-55861034D01*
X72801031Y-54721036D01*
X72801034Y-54721034D01*
X72942369Y-54509510D01*
X72992000Y-54260000D01*
X72992000Y-53815607D01*
X73313686Y-53600663D01*
X73564537Y-53225238D01*
X73684817Y-53481358D01*
X74113076Y-53871645D01*
X74523110Y-54041476D01*
X74753000Y-53920155D01*
X74753000Y-52727000D01*
X75007000Y-52727000D01*
X75007000Y-53920155D01*
X75236890Y-54041476D01*
X75646924Y-53871645D01*
X76075183Y-53481358D01*
X76321486Y-52956892D01*
X76200819Y-52727000D01*
X75007000Y-52727000D01*
X74753000Y-52727000D01*
X74733000Y-52727000D01*
X74733000Y-52473000D01*
X74753000Y-52473000D01*
X74753000Y-51279845D01*
X75007000Y-51279845D01*
X75007000Y-52473000D01*
X76200819Y-52473000D01*
X76321486Y-52243108D01*
X76075183Y-51718642D01*
X75646924Y-51328355D01*
X75236890Y-51158524D01*
X75007000Y-51279845D01*
X74753000Y-51279845D01*
X74523110Y-51158524D01*
X74113076Y-51328355D01*
X73684817Y-51718642D01*
X73564537Y-51974762D01*
X73313686Y-51599337D01*
X72866955Y-51300841D01*
X72340000Y-51196023D01*
X71813045Y-51300841D01*
X71366314Y-51599337D01*
X71187324Y-51867215D01*
X71187324Y-51750000D01*
X71150577Y-51554706D01*
X71035158Y-51375340D01*
X70859049Y-51255010D01*
X70650000Y-51212676D01*
X70577000Y-51212676D01*
X70577000Y-51121844D01*
X71198844Y-50500000D01*
X81162676Y-50500000D01*
X81162676Y-53500000D01*
X81199423Y-53695294D01*
X81314842Y-53874660D01*
X81490951Y-53994990D01*
X81700000Y-54037324D01*
X84700000Y-54037324D01*
X84895294Y-54000577D01*
X85074660Y-53885158D01*
X85194990Y-53709049D01*
X85237324Y-53500000D01*
X85237324Y-52777000D01*
X85878156Y-52777000D01*
X94450578Y-61349422D01*
X94702655Y-61517854D01*
X95000000Y-61577000D01*
X95812676Y-61577000D01*
X95812676Y-61650000D01*
X95849423Y-61845294D01*
X95964842Y-62024660D01*
X96140951Y-62144990D01*
X96350000Y-62187324D01*
X98050000Y-62187324D01*
X98245294Y-62150577D01*
X98424660Y-62035158D01*
X98544990Y-61859049D01*
X98587324Y-61650000D01*
X98587324Y-59950000D01*
X98550577Y-59754706D01*
X98435158Y-59575340D01*
X98259049Y-59455010D01*
X98050000Y-59412676D01*
X97932785Y-59412676D01*
X98200663Y-59233686D01*
X98499159Y-58786955D01*
X98603977Y-58260000D01*
X98602565Y-58252897D01*
X107122779Y-58252897D01*
X107316781Y-58722417D01*
X107675693Y-59081957D01*
X108144875Y-59276778D01*
X108652897Y-59277221D01*
X109122417Y-59083219D01*
X109481957Y-58724307D01*
X109676778Y-58255125D01*
X109677221Y-57747103D01*
X109483219Y-57277583D01*
X109124307Y-56918043D01*
X108655125Y-56723222D01*
X108147103Y-56722779D01*
X107677583Y-56916781D01*
X107318043Y-57275693D01*
X107123222Y-57744875D01*
X107122779Y-58252897D01*
X98602565Y-58252897D01*
X98499159Y-57733045D01*
X98200663Y-57286314D01*
X97753932Y-56987818D01*
X97226977Y-56883000D01*
X97173023Y-56883000D01*
X96646068Y-56987818D01*
X96199337Y-57286314D01*
X95900841Y-57733045D01*
X95796023Y-58260000D01*
X95900841Y-58786955D01*
X96199337Y-59233686D01*
X96467215Y-59412676D01*
X96350000Y-59412676D01*
X96154706Y-59449423D01*
X95975340Y-59564842D01*
X95855010Y-59740951D01*
X95812676Y-59950000D01*
X95812676Y-60023000D01*
X95321844Y-60023000D01*
X86749422Y-51450578D01*
X86497345Y-51282146D01*
X86200000Y-51223000D01*
X85237324Y-51223000D01*
X85237324Y-50500000D01*
X85200577Y-50304706D01*
X85085158Y-50125340D01*
X84909049Y-50005010D01*
X84700000Y-49962676D01*
X81700000Y-49962676D01*
X81504706Y-49999423D01*
X81325340Y-50114842D01*
X81205010Y-50290951D01*
X81162676Y-50500000D01*
X71198844Y-50500000D01*
X73121844Y-48577000D01*
X97714711Y-48577000D01*
X97834778Y-48626856D01*
X98163779Y-48627143D01*
X98467846Y-48501505D01*
X98700688Y-48269070D01*
X98826856Y-47965222D01*
X98827143Y-47636221D01*
X98701505Y-47332154D01*
X98469070Y-47099312D01*
X98165222Y-46973144D01*
X97836221Y-46972857D01*
X97714866Y-47023000D01*
X72800000Y-47023000D01*
X72502655Y-47082146D01*
X72250578Y-47250578D01*
X69250578Y-50250578D01*
X69082146Y-50502655D01*
X69023000Y-50800000D01*
X69023000Y-51212676D01*
X68950000Y-51212676D01*
X68754706Y-51249423D01*
X68575340Y-51364842D01*
X68455010Y-51540951D01*
X68412676Y-51750000D01*
X68412676Y-53450000D01*
X68449423Y-53645294D01*
X68564842Y-53824660D01*
X68740951Y-53944990D01*
X68950000Y-53987324D01*
X70650000Y-53987324D01*
X70845294Y-53950577D01*
X71024660Y-53835158D01*
X71144990Y-53659049D01*
X71187324Y-53450000D01*
X71187324Y-53332785D01*
X71366314Y-53600663D01*
X71688000Y-53815607D01*
X71688000Y-53989933D01*
X70929932Y-54748000D01*
X68400005Y-54748000D01*
X68400000Y-54747999D01*
X68150491Y-54797630D01*
X67938966Y-54938966D01*
X67138966Y-55738966D01*
X66997631Y-55950490D01*
X66997631Y-55950491D01*
X66947999Y-56200000D01*
X66948000Y-56200005D01*
X66948000Y-63129932D01*
X65738966Y-64338966D01*
X65597631Y-64550490D01*
X65597631Y-64550491D01*
X65547999Y-64800000D01*
X65548000Y-64800005D01*
X65548000Y-71173129D01*
X65236221Y-71172857D01*
X64932154Y-71298495D01*
X64882562Y-71348000D01*
X62117673Y-71348000D01*
X62069070Y-71299312D01*
X61765222Y-71173144D01*
X61436221Y-71172857D01*
X61132154Y-71298495D01*
X60899312Y-71530930D01*
X60773144Y-71834778D01*
X60772857Y-72163779D01*
X54085847Y-72163779D01*
X53427083Y-71505015D01*
X53427143Y-71436221D01*
X53301505Y-71132154D01*
X53252000Y-71082562D01*
X53252000Y-64917673D01*
X53300688Y-64869070D01*
X53426856Y-64565222D01*
X53427143Y-64236221D01*
X53301505Y-63932154D01*
X53069070Y-63699312D01*
X52765222Y-63573144D01*
X52452000Y-63572871D01*
X52452000Y-62163779D01*
X53572857Y-62163779D01*
X53698495Y-62467846D01*
X53930444Y-62700202D01*
X53699312Y-62930930D01*
X53573144Y-63234778D01*
X53572857Y-63563779D01*
X53698495Y-63867846D01*
X53930930Y-64100688D01*
X54234778Y-64226856D01*
X54563779Y-64227143D01*
X54867846Y-64101505D01*
X55100688Y-63869070D01*
X55226856Y-63565222D01*
X55226917Y-63495151D01*
X58261034Y-60461034D01*
X58402369Y-60249510D01*
X58452000Y-60000000D01*
X58452000Y-57200000D01*
X58402369Y-56950490D01*
X58261034Y-56738966D01*
X58261031Y-56738964D01*
X57861034Y-56338966D01*
X57804969Y-56301505D01*
X57649510Y-56197631D01*
X57608113Y-56189396D01*
X57400000Y-56147999D01*
X57399995Y-56148000D01*
X57317673Y-56148000D01*
X57269070Y-56099312D01*
X56965222Y-55973144D01*
X56636221Y-55972857D01*
X56332154Y-56098495D01*
X56099312Y-56330930D01*
X55973144Y-56634778D01*
X55972857Y-56963779D01*
X56098495Y-57267846D01*
X56330930Y-57500688D01*
X56634778Y-57626856D01*
X56963779Y-57627143D01*
X57148000Y-57551024D01*
X57148000Y-58649040D01*
X56965222Y-58573144D01*
X56636221Y-58572857D01*
X56332154Y-58698495D01*
X56099312Y-58930930D01*
X55973144Y-59234778D01*
X55972908Y-59505025D01*
X54305015Y-61172917D01*
X54236221Y-61172857D01*
X53932154Y-61298495D01*
X53699312Y-61530930D01*
X53573144Y-61834778D01*
X53572857Y-62163779D01*
X52452000Y-62163779D01*
X52452000Y-58317673D01*
X52500688Y-58269070D01*
X52626856Y-57965222D01*
X52627143Y-57636221D01*
X52501505Y-57332154D01*
X52269070Y-57099312D01*
X51965222Y-56973144D01*
X51652000Y-56972871D01*
X51652000Y-56117673D01*
X51700688Y-56069070D01*
X51826856Y-55765222D01*
X51827143Y-55436221D01*
X51701505Y-55132154D01*
X51469070Y-54899312D01*
X51165222Y-54773144D01*
X50918353Y-54772929D01*
X50901505Y-54732154D01*
X50669070Y-54499312D01*
X50365222Y-54373144D01*
X50052000Y-54372871D01*
X50052000Y-54308052D01*
X50067846Y-54301505D01*
X50300688Y-54069070D01*
X50426856Y-53765222D01*
X50427143Y-53436221D01*
X50301505Y-53132154D01*
X50069070Y-52899312D01*
X49765222Y-52773144D01*
X49436221Y-52772857D01*
X49427020Y-52776659D01*
X49427143Y-52636221D01*
X49301505Y-52332154D01*
X49069070Y-52099312D01*
X48765222Y-51973144D01*
X48436221Y-51972857D01*
X48194714Y-52072646D01*
X47852000Y-51729932D01*
X47852000Y-48317673D01*
X47900688Y-48269070D01*
X48026856Y-47965222D01*
X48027143Y-47636221D01*
X47901505Y-47332154D01*
X47669070Y-47099312D01*
X47365222Y-46973144D01*
X47036221Y-46972857D01*
X46877000Y-47038646D01*
X46877000Y-46621844D01*
X47845947Y-45652897D01*
X116322779Y-45652897D01*
X116516781Y-46122417D01*
X116875693Y-46481957D01*
X117344875Y-46676778D01*
X117778312Y-46677156D01*
X119623000Y-48521844D01*
X119623000Y-106714711D01*
X119573144Y-106834778D01*
X119572857Y-107163779D01*
X119698495Y-107467846D01*
X119930930Y-107700688D01*
X120234778Y-107826856D01*
X120563779Y-107827143D01*
X120867846Y-107701505D01*
X121100688Y-107469070D01*
X121226856Y-107165222D01*
X121227143Y-106836221D01*
X121177000Y-106714866D01*
X121177000Y-48200000D01*
X121117854Y-47902655D01*
X120949422Y-47650578D01*
X118876845Y-45578001D01*
X118877221Y-45147103D01*
X118683219Y-44677583D01*
X118324307Y-44318043D01*
X117855125Y-44123222D01*
X117347103Y-44122779D01*
X116877583Y-44316781D01*
X116518043Y-44675693D01*
X116323222Y-45144875D01*
X116322779Y-45652897D01*
X47845947Y-45652897D01*
X49921844Y-43577000D01*
X52800000Y-43577000D01*
X53097345Y-43517854D01*
X53349422Y-43349422D01*
X59721844Y-36977000D01*
X83800000Y-36977000D01*
X84097345Y-36917854D01*
X84349422Y-36749422D01*
X87021844Y-34077000D01*
X115423000Y-34077000D01*
X115423000Y-34251999D01*
X115325340Y-34314842D01*
X115205010Y-34490951D01*
X115162676Y-34700000D01*
X115162676Y-36300000D01*
X115199423Y-36495294D01*
X115314842Y-36674660D01*
X115490951Y-36794990D01*
X115700000Y-36837324D01*
X116700000Y-36837324D01*
X116895294Y-36800577D01*
X117074660Y-36685158D01*
X117194990Y-36509049D01*
X117237324Y-36300000D01*
X117237324Y-34700000D01*
X117200577Y-34504706D01*
X117085158Y-34325340D01*
X116977000Y-34251439D01*
X116977000Y-33231733D01*
X117094990Y-33059049D01*
X117137324Y-32850000D01*
X117137324Y-31150000D01*
X117100577Y-30954706D01*
X116985158Y-30775340D01*
X116809049Y-30655010D01*
X116600000Y-30612676D01*
X115700000Y-30612676D01*
X115504706Y-30649423D01*
X115325340Y-30764842D01*
X115205010Y-30940951D01*
X115162676Y-31150000D01*
X115162676Y-32523000D01*
X112177000Y-32523000D01*
X112177000Y-31361605D01*
X112574842Y-31526804D01*
X113023191Y-31527195D01*
X113437560Y-31355981D01*
X113754867Y-31039228D01*
X113926804Y-30625158D01*
X113927195Y-30176809D01*
X113755981Y-29762440D01*
X113439228Y-29445133D01*
X113330780Y-29400102D01*
X113437560Y-29355981D01*
X113754867Y-29039228D01*
X113926804Y-28625158D01*
X113927195Y-28176809D01*
X113755981Y-27762440D01*
X113439228Y-27445133D01*
X113025158Y-27273196D01*
X112576809Y-27272805D01*
X112162440Y-27444019D01*
X111845133Y-27760772D01*
X111673196Y-28174842D01*
X111672805Y-28623191D01*
X111844019Y-29037560D01*
X112160772Y-29354867D01*
X112269220Y-29399898D01*
X112162440Y-29444019D01*
X111845133Y-29760772D01*
X111673340Y-30174496D01*
X110373050Y-28874206D01*
X110373050Y-28350086D01*
X110508554Y-28214818D01*
X110672863Y-27819118D01*
X110673237Y-27390661D01*
X110520592Y-27021230D01*
X116072632Y-27021230D01*
X116395766Y-27803274D01*
X116993578Y-28402131D01*
X117775057Y-28726630D01*
X118621230Y-28727368D01*
X119403274Y-28404234D01*
X120002131Y-27806422D01*
X120326630Y-27024943D01*
X120327368Y-26178770D01*
X120004234Y-25396726D01*
X119406422Y-24797869D01*
X118624943Y-24473370D01*
X117778770Y-24472632D01*
X116996726Y-24795766D01*
X116397869Y-25393578D01*
X116073370Y-26175057D01*
X116072632Y-27021230D01*
X110520592Y-27021230D01*
X110509619Y-26994675D01*
X110206918Y-26691446D01*
X109811218Y-26527137D01*
X109382761Y-26526763D01*
X108986775Y-26690381D01*
X108683546Y-26993082D01*
X108519237Y-27388782D01*
X108518863Y-27817239D01*
X108682481Y-28213225D01*
X108819050Y-28350032D01*
X108819050Y-29196050D01*
X108878196Y-29493395D01*
X109046628Y-29745472D01*
X109327385Y-30026229D01*
X109282654Y-30029187D01*
X108992558Y-30149349D01*
X108949222Y-30369617D01*
X109596050Y-31016445D01*
X109610193Y-31002303D01*
X109789798Y-31181908D01*
X109775655Y-31196050D01*
X110422483Y-31842878D01*
X110623000Y-31803428D01*
X110623000Y-32523000D01*
X86700000Y-32523000D01*
X86402655Y-32582146D01*
X86150578Y-32750578D01*
X83478156Y-35423000D01*
X59400000Y-35423000D01*
X59102655Y-35482146D01*
X59075935Y-35500000D01*
X58850578Y-35650578D01*
X52478156Y-42023000D01*
X49600000Y-42023000D01*
X49302655Y-42082146D01*
X49050578Y-42250578D01*
X45550578Y-45750578D01*
X45382146Y-46002655D01*
X45323000Y-46300000D01*
X45323000Y-92578156D01*
X43777000Y-94124156D01*
X43777000Y-34600000D01*
X47023000Y-34600000D01*
X47023000Y-39000000D01*
X47082146Y-39297345D01*
X47250578Y-39549422D01*
X48050578Y-40349422D01*
X48302655Y-40517854D01*
X48600000Y-40577000D01*
X49212676Y-40577000D01*
X49212676Y-40650000D01*
X49249423Y-40845294D01*
X49364842Y-41024660D01*
X49540951Y-41144990D01*
X49750000Y-41187324D01*
X51450000Y-41187324D01*
X51645294Y-41150577D01*
X51824660Y-41035158D01*
X51944990Y-40859049D01*
X51987324Y-40650000D01*
X51987324Y-38950000D01*
X51950577Y-38754706D01*
X51835158Y-38575340D01*
X51659049Y-38455010D01*
X51450000Y-38412676D01*
X51332785Y-38412676D01*
X51600663Y-38233686D01*
X51899159Y-37786955D01*
X52003977Y-37260000D01*
X51899159Y-36733045D01*
X51600663Y-36286314D01*
X51377000Y-36136867D01*
X51377000Y-35621844D01*
X54461520Y-32537324D01*
X55200000Y-32537324D01*
X55395294Y-32500577D01*
X55574660Y-32385158D01*
X55694990Y-32209049D01*
X55706543Y-32152000D01*
X56949995Y-32152000D01*
X56950000Y-32152001D01*
X57158113Y-32110604D01*
X57199510Y-32102369D01*
X57411034Y-31961034D01*
X58434744Y-30937324D01*
X58575000Y-30937324D01*
X58770294Y-30900577D01*
X58829741Y-30862324D01*
X59548000Y-30862324D01*
X59548000Y-32129933D01*
X59466811Y-32211122D01*
X59255125Y-32123222D01*
X58747103Y-32122779D01*
X58277583Y-32316781D01*
X57918043Y-32675693D01*
X57723222Y-33144875D01*
X57722779Y-33652897D01*
X57916781Y-34122417D01*
X58275693Y-34481957D01*
X58744875Y-34676778D01*
X59252897Y-34677221D01*
X59722417Y-34483219D01*
X60081957Y-34124307D01*
X60276778Y-33655125D01*
X60277136Y-33244932D01*
X60661031Y-32861036D01*
X60661034Y-32861034D01*
X60778935Y-32684582D01*
X60802370Y-32649509D01*
X60852001Y-32400000D01*
X60852000Y-32399995D01*
X60852000Y-30902000D01*
X62575933Y-30902000D01*
X61738966Y-31738966D01*
X61597631Y-31950490D01*
X61597631Y-31950491D01*
X61547999Y-32200000D01*
X61548000Y-32200005D01*
X61548000Y-32287685D01*
X61477583Y-32316781D01*
X61118043Y-32675693D01*
X60923222Y-33144875D01*
X60922779Y-33652897D01*
X61116781Y-34122417D01*
X61475693Y-34481957D01*
X61944875Y-34676778D01*
X62452897Y-34677221D01*
X62922417Y-34483219D01*
X63281957Y-34124307D01*
X63476778Y-33655125D01*
X63477221Y-33147103D01*
X63283219Y-32677583D01*
X62964131Y-32357937D01*
X63470067Y-31852000D01*
X66225932Y-31852000D01*
X65925491Y-32152441D01*
X65855125Y-32123222D01*
X65347103Y-32122779D01*
X64877583Y-32316781D01*
X64518043Y-32675693D01*
X64323222Y-33144875D01*
X64322779Y-33652897D01*
X64516781Y-34122417D01*
X64875693Y-34481957D01*
X65344875Y-34676778D01*
X65852897Y-34677221D01*
X66322417Y-34483219D01*
X66681957Y-34124307D01*
X66876778Y-33655125D01*
X66877221Y-33147103D01*
X66847323Y-33074745D01*
X67270068Y-32652000D01*
X71599995Y-32652000D01*
X71600000Y-32652001D01*
X71808113Y-32610604D01*
X71849510Y-32602369D01*
X72061034Y-32461034D01*
X74061034Y-30461034D01*
X74101815Y-30400000D01*
X74202369Y-30249510D01*
X74252000Y-30000000D01*
X74252000Y-29099299D01*
X74364842Y-29274660D01*
X74540951Y-29394990D01*
X74750000Y-29437324D01*
X74823000Y-29437324D01*
X74823000Y-33214711D01*
X74773144Y-33334778D01*
X74772857Y-33663779D01*
X74898495Y-33967846D01*
X75130930Y-34200688D01*
X75434778Y-34326856D01*
X75763779Y-34327143D01*
X76067846Y-34201505D01*
X76300688Y-33969070D01*
X76426856Y-33665222D01*
X76427143Y-33336221D01*
X76377000Y-33214866D01*
X76377000Y-33023970D01*
X81865635Y-33023970D01*
X82025418Y-33342739D01*
X82816187Y-33652723D01*
X83665387Y-33636497D01*
X84374582Y-33342739D01*
X84534365Y-33023970D01*
X83200000Y-31689605D01*
X81865635Y-33023970D01*
X76377000Y-33023970D01*
X76377000Y-31126187D01*
X81057277Y-31126187D01*
X81073503Y-31975387D01*
X81367261Y-32684582D01*
X81686030Y-32844365D01*
X83020395Y-31510000D01*
X83379605Y-31510000D01*
X84713970Y-32844365D01*
X85032739Y-32684582D01*
X85292283Y-32022483D01*
X108949222Y-32022483D01*
X108992558Y-32242751D01*
X109439051Y-32394022D01*
X109909446Y-32362913D01*
X110199542Y-32242751D01*
X110242878Y-32022483D01*
X109596050Y-31375655D01*
X108949222Y-32022483D01*
X85292283Y-32022483D01*
X85342723Y-31893813D01*
X85326497Y-31044613D01*
X85324194Y-31039051D01*
X108398078Y-31039051D01*
X108429187Y-31509446D01*
X108549349Y-31799542D01*
X108769617Y-31842878D01*
X109416445Y-31196050D01*
X108769617Y-30549222D01*
X108549349Y-30592558D01*
X108398078Y-31039051D01*
X85324194Y-31039051D01*
X85032739Y-30335418D01*
X84713970Y-30175635D01*
X83379605Y-31510000D01*
X83020395Y-31510000D01*
X81686030Y-30175635D01*
X81367261Y-30335418D01*
X81057277Y-31126187D01*
X76377000Y-31126187D01*
X76377000Y-29996030D01*
X81865635Y-29996030D01*
X83200000Y-31330395D01*
X84534365Y-29996030D01*
X84374582Y-29677261D01*
X83583813Y-29367277D01*
X82734613Y-29383503D01*
X82025418Y-29677261D01*
X81865635Y-29996030D01*
X76377000Y-29996030D01*
X76377000Y-29437324D01*
X76450000Y-29437324D01*
X76645294Y-29400577D01*
X76824660Y-29285158D01*
X76944990Y-29109049D01*
X76987324Y-28900000D01*
X76987324Y-28000000D01*
X76950577Y-27804706D01*
X76835158Y-27625340D01*
X76659049Y-27505010D01*
X76450000Y-27462676D01*
X75711520Y-27462676D01*
X74786168Y-26537324D01*
X76450000Y-26537324D01*
X76645294Y-26500577D01*
X76824660Y-26385158D01*
X76864398Y-26327000D01*
X77584174Y-26327000D01*
X77614842Y-26374660D01*
X77790951Y-26494990D01*
X78000000Y-26537324D01*
X79600000Y-26537324D01*
X79795294Y-26500577D01*
X79974660Y-26385158D01*
X80048561Y-26277000D01*
X80751999Y-26277000D01*
X80814842Y-26374660D01*
X80990951Y-26494990D01*
X81200000Y-26537324D01*
X82800000Y-26537324D01*
X82995294Y-26500577D01*
X83174660Y-26385158D01*
X83248561Y-26277000D01*
X84151999Y-26277000D01*
X84214842Y-26374660D01*
X84390951Y-26494990D01*
X84600000Y-26537324D01*
X86200000Y-26537324D01*
X86395294Y-26500577D01*
X86574660Y-26385158D01*
X86648561Y-26277000D01*
X87551999Y-26277000D01*
X87614842Y-26374660D01*
X87790951Y-26494990D01*
X88000000Y-26537324D01*
X89600000Y-26537324D01*
X89795294Y-26500577D01*
X89974660Y-26385158D01*
X90048561Y-26277000D01*
X90951999Y-26277000D01*
X91014842Y-26374660D01*
X91190951Y-26494990D01*
X91400000Y-26537324D01*
X93000000Y-26537324D01*
X93195294Y-26500577D01*
X93374660Y-26385158D01*
X93448561Y-26277000D01*
X94151999Y-26277000D01*
X94214842Y-26374660D01*
X94390951Y-26494990D01*
X94600000Y-26537324D01*
X96200000Y-26537324D01*
X96395294Y-26500577D01*
X96574660Y-26385158D01*
X96648561Y-26277000D01*
X97351999Y-26277000D01*
X97414842Y-26374660D01*
X97590951Y-26494990D01*
X97800000Y-26537324D01*
X99400000Y-26537324D01*
X99595294Y-26500577D01*
X99774660Y-26385158D01*
X99848561Y-26277000D01*
X103578156Y-26277000D01*
X104926930Y-27625774D01*
X104926763Y-27817239D01*
X105090381Y-28213225D01*
X105393082Y-28516454D01*
X105788782Y-28680763D01*
X106217239Y-28681137D01*
X106613225Y-28517519D01*
X106916454Y-28214818D01*
X107080763Y-27819118D01*
X107081137Y-27390661D01*
X106917519Y-26994675D01*
X106614818Y-26691446D01*
X106219118Y-26527137D01*
X106025812Y-26526968D01*
X104449422Y-24950578D01*
X104197345Y-24782146D01*
X103900000Y-24723000D01*
X99848001Y-24723000D01*
X99785158Y-24625340D01*
X99782013Y-24623191D01*
X105672805Y-24623191D01*
X105844019Y-25037560D01*
X106160772Y-25354867D01*
X106574842Y-25526804D01*
X107023191Y-25527195D01*
X107437560Y-25355981D01*
X107754867Y-25039228D01*
X107799898Y-24930780D01*
X107844019Y-25037560D01*
X108160772Y-25354867D01*
X108574842Y-25526804D01*
X109023191Y-25527195D01*
X109437560Y-25355981D01*
X109754867Y-25039228D01*
X109926804Y-24625158D01*
X109927195Y-24176809D01*
X109755981Y-23762440D01*
X109439228Y-23445133D01*
X109025158Y-23273196D01*
X108576809Y-23272805D01*
X108162440Y-23444019D01*
X107845133Y-23760772D01*
X107800102Y-23869220D01*
X107755981Y-23762440D01*
X107439228Y-23445133D01*
X107025158Y-23273196D01*
X106576809Y-23272805D01*
X106162440Y-23444019D01*
X105845133Y-23760772D01*
X105673196Y-24174842D01*
X105672805Y-24623191D01*
X99782013Y-24623191D01*
X99609049Y-24505010D01*
X99400000Y-24462676D01*
X97800000Y-24462676D01*
X97604706Y-24499423D01*
X97425340Y-24614842D01*
X97351439Y-24723000D01*
X96648001Y-24723000D01*
X96585158Y-24625340D01*
X96409049Y-24505010D01*
X96200000Y-24462676D01*
X94600000Y-24462676D01*
X94404706Y-24499423D01*
X94225340Y-24614842D01*
X94151439Y-24723000D01*
X93448001Y-24723000D01*
X93385158Y-24625340D01*
X93209049Y-24505010D01*
X93000000Y-24462676D01*
X91400000Y-24462676D01*
X91204706Y-24499423D01*
X91025340Y-24614842D01*
X90951439Y-24723000D01*
X90048001Y-24723000D01*
X89985158Y-24625340D01*
X89809049Y-24505010D01*
X89600000Y-24462676D01*
X88000000Y-24462676D01*
X87804706Y-24499423D01*
X87625340Y-24614842D01*
X87551439Y-24723000D01*
X86648001Y-24723000D01*
X86585158Y-24625340D01*
X86409049Y-24505010D01*
X86200000Y-24462676D01*
X84600000Y-24462676D01*
X84404706Y-24499423D01*
X84225340Y-24614842D01*
X84151439Y-24723000D01*
X83248001Y-24723000D01*
X83185158Y-24625340D01*
X83009049Y-24505010D01*
X82800000Y-24462676D01*
X81200000Y-24462676D01*
X81004706Y-24499423D01*
X80825340Y-24614842D01*
X80751439Y-24723000D01*
X80048001Y-24723000D01*
X79985158Y-24625340D01*
X79809049Y-24505010D01*
X79600000Y-24462676D01*
X78000000Y-24462676D01*
X77804706Y-24499423D01*
X77625340Y-24614842D01*
X77517275Y-24773000D01*
X76865826Y-24773000D01*
X76835158Y-24725340D01*
X76659049Y-24605010D01*
X76450000Y-24562676D01*
X74750000Y-24562676D01*
X74554706Y-24599423D01*
X74375340Y-24714842D01*
X74255010Y-24890951D01*
X74212676Y-25100000D01*
X74212676Y-25963832D01*
X73299422Y-25050578D01*
X73047345Y-24882146D01*
X72750000Y-24823000D01*
X72298001Y-24823000D01*
X72235158Y-24725340D01*
X72059049Y-24605010D01*
X71850000Y-24562676D01*
X70150000Y-24562676D01*
X69954706Y-24599423D01*
X69775340Y-24714842D01*
X69735602Y-24773000D01*
X68865826Y-24773000D01*
X68835158Y-24725340D01*
X68659049Y-24605010D01*
X68450000Y-24562676D01*
X66750000Y-24562676D01*
X66554706Y-24599423D01*
X66375340Y-24714842D01*
X66335602Y-24773000D01*
X65465826Y-24773000D01*
X65435158Y-24725340D01*
X65259049Y-24605010D01*
X65050000Y-24562676D01*
X63350000Y-24562676D01*
X63154706Y-24599423D01*
X62975340Y-24714842D01*
X62901439Y-24823000D01*
X53600000Y-24823000D01*
X53302655Y-24882146D01*
X53050578Y-25050578D01*
X51850578Y-26250578D01*
X51682146Y-26502655D01*
X51623000Y-26800000D01*
X51623000Y-29678156D01*
X47250578Y-34050578D01*
X47082146Y-34302655D01*
X47023000Y-34600000D01*
X43777000Y-34600000D01*
X43777000Y-27021230D01*
X46072632Y-27021230D01*
X46395766Y-27803274D01*
X46993578Y-28402131D01*
X47775057Y-28726630D01*
X48621230Y-28727368D01*
X49403274Y-28404234D01*
X50002131Y-27806422D01*
X50326630Y-27024943D01*
X50327368Y-26178770D01*
X50004234Y-25396726D01*
X49406422Y-24797869D01*
X48624943Y-24473370D01*
X47778770Y-24472632D01*
X46996726Y-24795766D01*
X46397869Y-25393578D01*
X46073370Y-26175057D01*
X46072632Y-27021230D01*
X43777000Y-27021230D01*
X43777000Y-22177000D01*
X122623000Y-22177000D01*
X122623000Y-121023000D01*
G36*
X63140951Y-26494990D02*
X63350000Y-26537324D01*
X65050000Y-26537324D01*
X65161610Y-26516323D01*
X64215256Y-27462676D01*
X63350000Y-27462676D01*
X63154706Y-27499423D01*
X62975340Y-27614842D01*
X62855010Y-27790951D01*
X62812676Y-28000000D01*
X62812676Y-28298000D01*
X60749433Y-28298000D01*
X60575000Y-28262676D01*
X59825000Y-28262676D01*
X59629706Y-28299423D01*
X59570259Y-28337676D01*
X58825000Y-28337676D01*
X58629706Y-28374423D01*
X58450340Y-28489842D01*
X58330010Y-28665951D01*
X58287676Y-28875000D01*
X58287676Y-29562676D01*
X57825000Y-29562676D01*
X57629706Y-29599423D01*
X57450340Y-29714842D01*
X57330010Y-29890951D01*
X57287676Y-30100000D01*
X57287676Y-30240256D01*
X56679932Y-30848000D01*
X55708723Y-30848000D01*
X55700577Y-30804706D01*
X55585158Y-30625340D01*
X55409049Y-30505010D01*
X55200000Y-30462676D01*
X53600000Y-30462676D01*
X53404706Y-30499423D01*
X53225340Y-30614842D01*
X53105010Y-30790951D01*
X53062676Y-31000000D01*
X53062676Y-31738480D01*
X50050578Y-34750578D01*
X49882146Y-35002655D01*
X49823000Y-35300000D01*
X49823000Y-36136867D01*
X49599337Y-36286314D01*
X49300841Y-36733045D01*
X49196023Y-37260000D01*
X49300841Y-37786955D01*
X49599337Y-38233686D01*
X49867215Y-38412676D01*
X49750000Y-38412676D01*
X49554706Y-38449423D01*
X49375340Y-38564842D01*
X49255010Y-38740951D01*
X49212676Y-38950000D01*
X49212676Y-39023000D01*
X48921844Y-39023000D01*
X48577000Y-38678156D01*
X48577000Y-34921844D01*
X52949422Y-30549422D01*
X53117854Y-30297345D01*
X53177000Y-30000000D01*
X53177000Y-27121844D01*
X53921844Y-26377000D01*
X62968267Y-26377000D01*
X63140951Y-26494990D01*
X63140951Y-26494990D01*
G37*
X63140951Y-26494990D02*
X63350000Y-26537324D01*
X65050000Y-26537324D01*
X65161610Y-26516323D01*
X64215256Y-27462676D01*
X63350000Y-27462676D01*
X63154706Y-27499423D01*
X62975340Y-27614842D01*
X62855010Y-27790951D01*
X62812676Y-28000000D01*
X62812676Y-28298000D01*
X60749433Y-28298000D01*
X60575000Y-28262676D01*
X59825000Y-28262676D01*
X59629706Y-28299423D01*
X59570259Y-28337676D01*
X58825000Y-28337676D01*
X58629706Y-28374423D01*
X58450340Y-28489842D01*
X58330010Y-28665951D01*
X58287676Y-28875000D01*
X58287676Y-29562676D01*
X57825000Y-29562676D01*
X57629706Y-29599423D01*
X57450340Y-29714842D01*
X57330010Y-29890951D01*
X57287676Y-30100000D01*
X57287676Y-30240256D01*
X56679932Y-30848000D01*
X55708723Y-30848000D01*
X55700577Y-30804706D01*
X55585158Y-30625340D01*
X55409049Y-30505010D01*
X55200000Y-30462676D01*
X53600000Y-30462676D01*
X53404706Y-30499423D01*
X53225340Y-30614842D01*
X53105010Y-30790951D01*
X53062676Y-31000000D01*
X53062676Y-31738480D01*
X50050578Y-34750578D01*
X49882146Y-35002655D01*
X49823000Y-35300000D01*
X49823000Y-36136867D01*
X49599337Y-36286314D01*
X49300841Y-36733045D01*
X49196023Y-37260000D01*
X49300841Y-37786955D01*
X49599337Y-38233686D01*
X49867215Y-38412676D01*
X49750000Y-38412676D01*
X49554706Y-38449423D01*
X49375340Y-38564842D01*
X49255010Y-38740951D01*
X49212676Y-38950000D01*
X49212676Y-39023000D01*
X48921844Y-39023000D01*
X48577000Y-38678156D01*
X48577000Y-34921844D01*
X52949422Y-30549422D01*
X53117854Y-30297345D01*
X53177000Y-30000000D01*
X53177000Y-27121844D01*
X53921844Y-26377000D01*
X62968267Y-26377000D01*
X63140951Y-26494990D01*
M02*
