G04 #@! TF.FileFunction,Legend,Top*
%FSLAX46Y46*%
G04 Gerber Fmt 4.6, Leading zero omitted, Abs format (unit mm)*
G04 Created by KiCad (PCBNEW 4.0.7) date Fri Feb 23 18:49:45 2018*
%MOMM*%
%LPD*%
G01*
G04 APERTURE LIST*
%ADD10C,0.100000*%
%ADD11C,0.120000*%
%ADD12C,0.254000*%
%ADD13C,0.200000*%
%ADD14C,0.150000*%
G04 APERTURE END LIST*
D10*
D11*
X83184769Y-22800262D02*
G75*
G02X86720000Y-50350000I15231J-13999738D01*
G01*
X83215231Y-22800262D02*
G75*
G03X79680000Y-50350000I-15231J-13999738D01*
G01*
X86743485Y-50345231D02*
G75*
G03X86250000Y-51050000I256515J-704769D01*
G01*
X79656515Y-50345231D02*
G75*
G02X80150000Y-51050000I-256515J-704769D01*
G01*
X80150000Y-51050000D02*
X80150000Y-53500000D01*
X86250000Y-53500000D02*
X86250000Y-51050000D01*
X80150000Y-53500000D02*
G75*
G03X80700000Y-54050000I550000J0D01*
G01*
X86250000Y-53500000D02*
G75*
G02X85700000Y-54050000I-550000J0D01*
G01*
X80700000Y-54050000D02*
X85700000Y-54050000D01*
X58800000Y-114180000D02*
X56800000Y-114180000D01*
X56800000Y-116220000D02*
X58800000Y-116220000D01*
X56800000Y-108820000D02*
X58800000Y-108820000D01*
X58800000Y-106780000D02*
X56800000Y-106780000D01*
X62400000Y-108920000D02*
X64400000Y-108920000D01*
X64400000Y-106880000D02*
X62400000Y-106880000D01*
X67900000Y-105220000D02*
X69900000Y-105220000D01*
X69900000Y-103180000D02*
X67900000Y-103180000D01*
X109070000Y-44910000D02*
X109070000Y-46460000D01*
X109070000Y-50240000D02*
X109070000Y-48690000D01*
X103730000Y-49480000D02*
X103730000Y-48690000D01*
X103730000Y-45670000D02*
X103730000Y-46460000D01*
X109070000Y-44910000D02*
X104490000Y-44910000D01*
X104490000Y-44910000D02*
X103730000Y-45670000D01*
X103730000Y-49480000D02*
X104490000Y-50240000D01*
X104490000Y-50240000D02*
X109070000Y-50240000D01*
D12*
X93190000Y-100550000D02*
X93190000Y-94050000D01*
X93190000Y-94050000D02*
X88610000Y-94050000D01*
X88610000Y-94050000D02*
X88610000Y-100550000D01*
X88610000Y-100550000D02*
X93190000Y-100550000D01*
X89620250Y-103062000D02*
G75*
G03X89620250Y-103062000I-90250J0D01*
G01*
X100690000Y-100750000D02*
X100690000Y-94250000D01*
X100690000Y-94250000D02*
X96110000Y-94250000D01*
X96110000Y-94250000D02*
X96110000Y-100750000D01*
X96110000Y-100750000D02*
X100690000Y-100750000D01*
X97120250Y-103262000D02*
G75*
G03X97120250Y-103262000I-90250J0D01*
G01*
D13*
X94850000Y-53460000D02*
X94750000Y-53460000D01*
X94750000Y-53460000D02*
X94750000Y-50540000D01*
X94750000Y-50540000D02*
X94850000Y-50540000D01*
X94850000Y-50540000D02*
X94850000Y-53460000D01*
X96500000Y-53500000D02*
X95200000Y-53500000D01*
D14*
X57825000Y-84425000D02*
X57825000Y-85425000D01*
X68175000Y-84425000D02*
X68175000Y-85500000D01*
X68175000Y-94775000D02*
X68175000Y-93700000D01*
X57825000Y-94775000D02*
X57825000Y-93700000D01*
X57825000Y-84425000D02*
X58900000Y-84425000D01*
X57825000Y-94775000D02*
X58900000Y-94775000D01*
X68175000Y-94775000D02*
X67100000Y-94775000D01*
X68175000Y-84425000D02*
X67100000Y-84425000D01*
X57825000Y-85425000D02*
X56800000Y-85425000D01*
D11*
X51900000Y-90500000D02*
X51900000Y-87650000D01*
X51900000Y-87650000D02*
X50300000Y-87650000D01*
X50300000Y-87650000D02*
X50300000Y-90500000D01*
X51900000Y-86500000D02*
X51900000Y-83650000D01*
X51900000Y-83650000D02*
X50300000Y-83650000D01*
X50300000Y-83650000D02*
X50300000Y-86500000D01*
D13*
X100400000Y-49675000D02*
X100400000Y-53345000D01*
X98800000Y-50655000D02*
X98800000Y-53345000D01*
X64600000Y-66475000D02*
X64600000Y-70145000D01*
X63000000Y-67455000D02*
X63000000Y-70145000D01*
X60525000Y-77800000D02*
X56855000Y-77800000D01*
X59545000Y-76200000D02*
X56855000Y-76200000D01*
X55875000Y-72400000D02*
X59545000Y-72400000D01*
X56855000Y-74000000D02*
X59545000Y-74000000D01*
X96600000Y-84675000D02*
X96600000Y-88345000D01*
X95000000Y-85655000D02*
X95000000Y-88345000D01*
X105000000Y-84675000D02*
X105000000Y-88345000D01*
X103400000Y-85655000D02*
X103400000Y-88345000D01*
X113000000Y-84475000D02*
X113000000Y-88145000D01*
X111400000Y-85455000D02*
X111400000Y-88145000D01*
D12*
X108390000Y-100750000D02*
X108390000Y-94250000D01*
X108390000Y-94250000D02*
X103810000Y-94250000D01*
X103810000Y-94250000D02*
X103810000Y-100750000D01*
X103810000Y-100750000D02*
X108390000Y-100750000D01*
X104820250Y-103262000D02*
G75*
G03X104820250Y-103262000I-90250J0D01*
G01*
X116690000Y-100550000D02*
X116690000Y-94050000D01*
X116690000Y-94050000D02*
X112110000Y-94050000D01*
X112110000Y-94050000D02*
X112110000Y-100550000D01*
X112110000Y-100550000D02*
X116690000Y-100550000D01*
X113120250Y-103062000D02*
G75*
G03X113120250Y-103062000I-90250J0D01*
G01*
D13*
X57800000Y-59000000D02*
X58900000Y-59000000D01*
X55800000Y-84200000D02*
X54700000Y-84200000D01*
D11*
X79000000Y-95330000D02*
X81000000Y-95330000D01*
X81000000Y-97470000D02*
X79000000Y-97470000D01*
X79100000Y-91230000D02*
X81100000Y-91230000D01*
X81100000Y-93370000D02*
X79100000Y-93370000D01*
X102600000Y-82270000D02*
X100600000Y-82270000D01*
X100600000Y-80130000D02*
X102600000Y-80130000D01*
X107600000Y-82270000D02*
X105600000Y-82270000D01*
X105600000Y-80130000D02*
X107600000Y-80130000D01*
X113000000Y-82270000D02*
X111000000Y-82270000D01*
X111000000Y-80130000D02*
X113000000Y-80130000D01*
X97200000Y-82270000D02*
X95200000Y-82270000D01*
X95200000Y-80130000D02*
X97200000Y-80130000D01*
X100380000Y-39800000D02*
X100380000Y-41800000D01*
X102420000Y-41800000D02*
X102420000Y-39800000D01*
X105780000Y-39800000D02*
X105780000Y-41800000D01*
X107820000Y-41800000D02*
X107820000Y-39800000D01*
X111180000Y-39800000D02*
X111180000Y-41800000D01*
X113220000Y-41800000D02*
X113220000Y-39800000D01*
X116580000Y-39800000D02*
X116580000Y-41800000D01*
X118620000Y-41800000D02*
X118620000Y-39800000D01*
X75020000Y-82000000D02*
X75020000Y-80000000D01*
X72980000Y-80000000D02*
X72980000Y-82000000D01*
X51200000Y-42980000D02*
X49200000Y-42980000D01*
X49200000Y-45020000D02*
X51200000Y-45020000D01*
X64620000Y-75600000D02*
X64620000Y-73600000D01*
X62580000Y-73600000D02*
X62580000Y-75600000D01*
X78220000Y-74000000D02*
X78220000Y-72000000D01*
X76180000Y-72000000D02*
X76180000Y-74000000D01*
X59800000Y-52820000D02*
X61800000Y-52820000D01*
X61800000Y-50780000D02*
X59800000Y-50780000D01*
X59800000Y-48020000D02*
X61800000Y-48020000D01*
X61800000Y-45980000D02*
X59800000Y-45980000D01*
X81020000Y-74000000D02*
X81020000Y-72000000D01*
X78980000Y-72000000D02*
X78980000Y-74000000D01*
X59800000Y-43220000D02*
X61800000Y-43220000D01*
X61800000Y-41180000D02*
X59800000Y-41180000D01*
X61800000Y-36380000D02*
X59800000Y-36380000D01*
X59800000Y-38420000D02*
X61800000Y-38420000D01*
X59800000Y-58620000D02*
X61800000Y-58620000D01*
X61800000Y-56580000D02*
X59800000Y-56580000D01*
X87520000Y-73900000D02*
X87520000Y-71900000D01*
X85480000Y-71900000D02*
X85480000Y-73900000D01*
X58800000Y-64980000D02*
X56800000Y-64980000D01*
X56800000Y-67020000D02*
X58800000Y-67020000D01*
X59800000Y-40820000D02*
X61800000Y-40820000D01*
X61800000Y-38780000D02*
X59800000Y-38780000D01*
X59800000Y-45620000D02*
X61800000Y-45620000D01*
X61800000Y-43580000D02*
X59800000Y-43580000D01*
X59800000Y-50420000D02*
X61800000Y-50420000D01*
X61800000Y-48380000D02*
X59800000Y-48380000D01*
X61800000Y-53580000D02*
X59800000Y-53580000D01*
X59800000Y-55620000D02*
X61800000Y-55620000D01*
X87320000Y-83100000D02*
X87320000Y-81100000D01*
X85280000Y-81100000D02*
X85280000Y-83100000D01*
X48100000Y-87580000D02*
X46100000Y-87580000D01*
X46100000Y-89620000D02*
X48100000Y-89620000D01*
X48100000Y-89980000D02*
X46100000Y-89980000D01*
X46100000Y-92020000D02*
X48100000Y-92020000D01*
X48100000Y-82880000D02*
X46100000Y-82880000D01*
X46100000Y-84920000D02*
X48100000Y-84920000D01*
X104800000Y-60380000D02*
X102800000Y-60380000D01*
X102800000Y-62420000D02*
X104800000Y-62420000D01*
X48100000Y-85180000D02*
X46100000Y-85180000D01*
X46100000Y-87220000D02*
X48100000Y-87220000D01*
X56800000Y-110530000D02*
X58800000Y-110530000D01*
X58800000Y-112670000D02*
X56800000Y-112670000D01*
X56700000Y-103030000D02*
X58700000Y-103030000D01*
X58700000Y-105170000D02*
X56700000Y-105170000D01*
X67900000Y-106830000D02*
X69900000Y-106830000D01*
X69900000Y-108970000D02*
X67900000Y-108970000D01*
X62400000Y-103030000D02*
X64400000Y-103030000D01*
X64400000Y-105170000D02*
X62400000Y-105170000D01*
X64300000Y-102370000D02*
X62300000Y-102370000D01*
X62300000Y-100230000D02*
X64300000Y-100230000D01*
X104800000Y-54670000D02*
X102800000Y-54670000D01*
X102800000Y-52530000D02*
X104800000Y-52530000D01*
X78900000Y-103330000D02*
X80900000Y-103330000D01*
X80900000Y-105470000D02*
X78900000Y-105470000D01*
X78900000Y-99430000D02*
X80900000Y-99430000D01*
X80900000Y-101570000D02*
X78900000Y-101570000D01*
X75730000Y-82000000D02*
X75730000Y-80000000D01*
X77870000Y-80000000D02*
X77870000Y-82000000D01*
X74400000Y-83530000D02*
X76400000Y-83530000D01*
X76400000Y-85670000D02*
X74400000Y-85670000D01*
X56800000Y-68330000D02*
X58800000Y-68330000D01*
X58800000Y-70470000D02*
X56800000Y-70470000D01*
X56600000Y-61730000D02*
X58600000Y-61730000D01*
X58600000Y-63870000D02*
X56600000Y-63870000D01*
X72930000Y-74000000D02*
X72930000Y-72000000D01*
X75070000Y-72000000D02*
X75070000Y-74000000D01*
X76185001Y-78045000D02*
X74185001Y-78045000D01*
X74185001Y-75905000D02*
X76185001Y-75905000D01*
X48200000Y-82470000D02*
X46200000Y-82470000D01*
X46200000Y-80330000D02*
X48200000Y-80330000D01*
X82230000Y-73900000D02*
X82230000Y-71900000D01*
X84370000Y-71900000D02*
X84370000Y-73900000D01*
X80700000Y-75630000D02*
X82700000Y-75630000D01*
X82700000Y-77770000D02*
X80700000Y-77770000D01*
X88430000Y-73900000D02*
X88430000Y-71900000D01*
X90570000Y-71900000D02*
X90570000Y-73900000D01*
X86900000Y-75630000D02*
X88900000Y-75630000D01*
X88900000Y-77770000D02*
X86900000Y-77770000D01*
X88030000Y-83100000D02*
X88030000Y-81100000D01*
X90170000Y-81100000D02*
X90170000Y-83100000D01*
X86700000Y-84630000D02*
X88700000Y-84630000D01*
X88700000Y-86770000D02*
X86700000Y-86770000D01*
X102800000Y-56930000D02*
X104800000Y-56930000D01*
X104800000Y-59070000D02*
X102800000Y-59070000D01*
X90630000Y-61930000D02*
X90630000Y-59270000D01*
X77870000Y-61930000D02*
X90630000Y-61930000D01*
X77870000Y-59270000D02*
X90630000Y-59270000D01*
X77870000Y-61930000D02*
X77870000Y-59270000D01*
X76600000Y-61930000D02*
X75270000Y-61930000D01*
X75270000Y-61930000D02*
X75270000Y-60600000D01*
X86410000Y-67730000D02*
X86410000Y-65070000D01*
X81270000Y-67730000D02*
X86410000Y-67730000D01*
X81270000Y-65070000D02*
X86410000Y-65070000D01*
X81270000Y-67730000D02*
X81270000Y-65070000D01*
X80000000Y-67730000D02*
X78670000Y-67730000D01*
X78670000Y-67730000D02*
X78670000Y-66400000D01*
X98530000Y-56930000D02*
X95870000Y-56930000D01*
X98530000Y-59530000D02*
X98530000Y-56930000D01*
X95870000Y-59530000D02*
X95870000Y-56930000D01*
X98530000Y-59530000D02*
X95870000Y-59530000D01*
X98530000Y-60800000D02*
X98530000Y-62130000D01*
X98530000Y-62130000D02*
X97200000Y-62130000D01*
X71130000Y-56730000D02*
X68470000Y-56730000D01*
X71130000Y-59330000D02*
X71130000Y-56730000D01*
X68470000Y-59330000D02*
X68470000Y-56730000D01*
X71130000Y-59330000D02*
X68470000Y-59330000D01*
X71130000Y-60600000D02*
X71130000Y-61930000D01*
X71130000Y-61930000D02*
X69800000Y-61930000D01*
X76210000Y-53930000D02*
X76210000Y-51270000D01*
X71070000Y-53930000D02*
X76210000Y-53930000D01*
X71070000Y-51270000D02*
X76210000Y-51270000D01*
X71070000Y-53930000D02*
X71070000Y-51270000D01*
X69800000Y-53930000D02*
X68470000Y-53930000D01*
X68470000Y-53930000D02*
X68470000Y-52600000D01*
X51930000Y-35930000D02*
X49270000Y-35930000D01*
X51930000Y-38530000D02*
X51930000Y-35930000D01*
X49270000Y-38530000D02*
X49270000Y-35930000D01*
X51930000Y-38530000D02*
X49270000Y-38530000D01*
X51930000Y-39800000D02*
X51930000Y-41130000D01*
X51930000Y-41130000D02*
X50600000Y-41130000D01*
X55350000Y-99300000D02*
X55350000Y-101300000D01*
X55350000Y-101300000D02*
X59250000Y-101300000D01*
X55350000Y-99300000D02*
X59250000Y-99300000D01*
X59200000Y-81270000D02*
X57200000Y-81270000D01*
X57200000Y-79130000D02*
X59200000Y-79130000D01*
D12*
X47200000Y-62275000D02*
X47200000Y-46925000D01*
X47200000Y-62275000D02*
X49065000Y-62275000D01*
X47200000Y-46925000D02*
X49065000Y-46925000D01*
X53400000Y-62275000D02*
X51982000Y-62275000D01*
X53400000Y-46925000D02*
X51982000Y-46925000D01*
X53400000Y-62275000D02*
X53400000Y-60927000D01*
X53400000Y-46925000D02*
X53400000Y-48273000D01*
D14*
X78628571Y-54035714D02*
X78676190Y-53892857D01*
X78723810Y-53845238D01*
X78819048Y-53797619D01*
X78961905Y-53797619D01*
X79057143Y-53845238D01*
X79104762Y-53892857D01*
X79152381Y-53988095D01*
X79152381Y-54369048D01*
X78152381Y-54369048D01*
X78152381Y-54035714D01*
X78200000Y-53940476D01*
X78247619Y-53892857D01*
X78342857Y-53845238D01*
X78438095Y-53845238D01*
X78533333Y-53892857D01*
X78580952Y-53940476D01*
X78628571Y-54035714D01*
X78628571Y-54369048D01*
X78152381Y-53511905D02*
X78152381Y-52940476D01*
X79152381Y-53226191D02*
X78152381Y-53226191D01*
X79152381Y-52083333D02*
X79152381Y-52654762D01*
X79152381Y-52369048D02*
X78152381Y-52369048D01*
X78295238Y-52464286D01*
X78390476Y-52559524D01*
X78438095Y-52654762D01*
X83307143Y-49821428D02*
X83307143Y-48678571D01*
X83878571Y-49250000D02*
X82735714Y-49250000D01*
X57633334Y-117457143D02*
X57585715Y-117504762D01*
X57442858Y-117552381D01*
X57347620Y-117552381D01*
X57204762Y-117504762D01*
X57109524Y-117409524D01*
X57061905Y-117314286D01*
X57014286Y-117123810D01*
X57014286Y-116980952D01*
X57061905Y-116790476D01*
X57109524Y-116695238D01*
X57204762Y-116600000D01*
X57347620Y-116552381D01*
X57442858Y-116552381D01*
X57585715Y-116600000D01*
X57633334Y-116647619D01*
X58204762Y-116980952D02*
X58109524Y-116933333D01*
X58061905Y-116885714D01*
X58014286Y-116790476D01*
X58014286Y-116742857D01*
X58061905Y-116647619D01*
X58109524Y-116600000D01*
X58204762Y-116552381D01*
X58395239Y-116552381D01*
X58490477Y-116600000D01*
X58538096Y-116647619D01*
X58585715Y-116742857D01*
X58585715Y-116790476D01*
X58538096Y-116885714D01*
X58490477Y-116933333D01*
X58395239Y-116980952D01*
X58204762Y-116980952D01*
X58109524Y-117028571D01*
X58061905Y-117076190D01*
X58014286Y-117171429D01*
X58014286Y-117361905D01*
X58061905Y-117457143D01*
X58109524Y-117504762D01*
X58204762Y-117552381D01*
X58395239Y-117552381D01*
X58490477Y-117504762D01*
X58538096Y-117457143D01*
X58585715Y-117361905D01*
X58585715Y-117171429D01*
X58538096Y-117076190D01*
X58490477Y-117028571D01*
X58395239Y-116980952D01*
X57633334Y-109907143D02*
X57585715Y-109954762D01*
X57442858Y-110002381D01*
X57347620Y-110002381D01*
X57204762Y-109954762D01*
X57109524Y-109859524D01*
X57061905Y-109764286D01*
X57014286Y-109573810D01*
X57014286Y-109430952D01*
X57061905Y-109240476D01*
X57109524Y-109145238D01*
X57204762Y-109050000D01*
X57347620Y-109002381D01*
X57442858Y-109002381D01*
X57585715Y-109050000D01*
X57633334Y-109097619D01*
X58109524Y-110002381D02*
X58300000Y-110002381D01*
X58395239Y-109954762D01*
X58442858Y-109907143D01*
X58538096Y-109764286D01*
X58585715Y-109573810D01*
X58585715Y-109192857D01*
X58538096Y-109097619D01*
X58490477Y-109050000D01*
X58395239Y-109002381D01*
X58204762Y-109002381D01*
X58109524Y-109050000D01*
X58061905Y-109097619D01*
X58014286Y-109192857D01*
X58014286Y-109430952D01*
X58061905Y-109526190D01*
X58109524Y-109573810D01*
X58204762Y-109621429D01*
X58395239Y-109621429D01*
X58490477Y-109573810D01*
X58538096Y-109526190D01*
X58585715Y-109430952D01*
X62757143Y-110007143D02*
X62709524Y-110054762D01*
X62566667Y-110102381D01*
X62471429Y-110102381D01*
X62328571Y-110054762D01*
X62233333Y-109959524D01*
X62185714Y-109864286D01*
X62138095Y-109673810D01*
X62138095Y-109530952D01*
X62185714Y-109340476D01*
X62233333Y-109245238D01*
X62328571Y-109150000D01*
X62471429Y-109102381D01*
X62566667Y-109102381D01*
X62709524Y-109150000D01*
X62757143Y-109197619D01*
X63709524Y-110102381D02*
X63138095Y-110102381D01*
X63423809Y-110102381D02*
X63423809Y-109102381D01*
X63328571Y-109245238D01*
X63233333Y-109340476D01*
X63138095Y-109388095D01*
X64661905Y-110102381D02*
X64090476Y-110102381D01*
X64376190Y-110102381D02*
X64376190Y-109102381D01*
X64280952Y-109245238D01*
X64185714Y-109340476D01*
X64090476Y-109388095D01*
X68257143Y-106307143D02*
X68209524Y-106354762D01*
X68066667Y-106402381D01*
X67971429Y-106402381D01*
X67828571Y-106354762D01*
X67733333Y-106259524D01*
X67685714Y-106164286D01*
X67638095Y-105973810D01*
X67638095Y-105830952D01*
X67685714Y-105640476D01*
X67733333Y-105545238D01*
X67828571Y-105450000D01*
X67971429Y-105402381D01*
X68066667Y-105402381D01*
X68209524Y-105450000D01*
X68257143Y-105497619D01*
X69209524Y-106402381D02*
X68638095Y-106402381D01*
X68923809Y-106402381D02*
X68923809Y-105402381D01*
X68828571Y-105545238D01*
X68733333Y-105640476D01*
X68638095Y-105688095D01*
X69590476Y-105497619D02*
X69638095Y-105450000D01*
X69733333Y-105402381D01*
X69971429Y-105402381D01*
X70066667Y-105450000D01*
X70114286Y-105497619D01*
X70161905Y-105592857D01*
X70161905Y-105688095D01*
X70114286Y-105830952D01*
X69542857Y-106402381D01*
X70161905Y-106402381D01*
X111357143Y-47957143D02*
X111309524Y-48004762D01*
X111166667Y-48052381D01*
X111071429Y-48052381D01*
X110928571Y-48004762D01*
X110833333Y-47909524D01*
X110785714Y-47814286D01*
X110738095Y-47623810D01*
X110738095Y-47480952D01*
X110785714Y-47290476D01*
X110833333Y-47195238D01*
X110928571Y-47100000D01*
X111071429Y-47052381D01*
X111166667Y-47052381D01*
X111309524Y-47100000D01*
X111357143Y-47147619D01*
X112309524Y-48052381D02*
X111738095Y-48052381D01*
X112023809Y-48052381D02*
X112023809Y-47052381D01*
X111928571Y-47195238D01*
X111833333Y-47290476D01*
X111738095Y-47338095D01*
X112642857Y-47052381D02*
X113261905Y-47052381D01*
X112928571Y-47433333D01*
X113071429Y-47433333D01*
X113166667Y-47480952D01*
X113214286Y-47528571D01*
X113261905Y-47623810D01*
X113261905Y-47861905D01*
X113214286Y-47957143D01*
X113166667Y-48004762D01*
X113071429Y-48052381D01*
X112785714Y-48052381D01*
X112690476Y-48004762D01*
X112642857Y-47957143D01*
X102639048Y-50011429D02*
X103400953Y-50011429D01*
X103020001Y-50392381D02*
X103020001Y-49630476D01*
D12*
X90825524Y-98635762D02*
X89555524Y-98635762D01*
X90704571Y-97305286D02*
X90765048Y-97365762D01*
X90825524Y-97547191D01*
X90825524Y-97668143D01*
X90765048Y-97849571D01*
X90644095Y-97970524D01*
X90523143Y-98031000D01*
X90281238Y-98091476D01*
X90099810Y-98091476D01*
X89857905Y-98031000D01*
X89736952Y-97970524D01*
X89616000Y-97849571D01*
X89555524Y-97668143D01*
X89555524Y-97547191D01*
X89616000Y-97365762D01*
X89676476Y-97305286D01*
X89555524Y-96881952D02*
X89555524Y-96095762D01*
X90039333Y-96519095D01*
X90039333Y-96337667D01*
X90099810Y-96216714D01*
X90160286Y-96156238D01*
X90281238Y-96095762D01*
X90583619Y-96095762D01*
X90704571Y-96156238D01*
X90765048Y-96216714D01*
X90825524Y-96337667D01*
X90825524Y-96700524D01*
X90765048Y-96821476D01*
X90704571Y-96881952D01*
X98325524Y-98835762D02*
X97055524Y-98835762D01*
X98204571Y-97505286D02*
X98265048Y-97565762D01*
X98325524Y-97747191D01*
X98325524Y-97868143D01*
X98265048Y-98049571D01*
X98144095Y-98170524D01*
X98023143Y-98231000D01*
X97781238Y-98291476D01*
X97599810Y-98291476D01*
X97357905Y-98231000D01*
X97236952Y-98170524D01*
X97116000Y-98049571D01*
X97055524Y-97868143D01*
X97055524Y-97747191D01*
X97116000Y-97565762D01*
X97176476Y-97505286D01*
X97478857Y-96416714D02*
X98325524Y-96416714D01*
X96995048Y-96719095D02*
X97902190Y-97021476D01*
X97902190Y-96235286D01*
X94679048Y-52695476D02*
X94558095Y-52635000D01*
X94437143Y-52514048D01*
X94255714Y-52332619D01*
X94134762Y-52272143D01*
X94013810Y-52272143D01*
X94074286Y-52574524D02*
X93953333Y-52514048D01*
X93832381Y-52393095D01*
X93771905Y-52151190D01*
X93771905Y-51727857D01*
X93832381Y-51485952D01*
X93953333Y-51365000D01*
X94074286Y-51304524D01*
X94316190Y-51304524D01*
X94437143Y-51365000D01*
X94558095Y-51485952D01*
X94618571Y-51727857D01*
X94618571Y-52151190D01*
X94558095Y-52393095D01*
X94437143Y-52514048D01*
X94316190Y-52574524D01*
X94074286Y-52574524D01*
X95828095Y-52574524D02*
X95102381Y-52574524D01*
X95465238Y-52574524D02*
X95465238Y-51304524D01*
X95344286Y-51485952D01*
X95223333Y-51606905D01*
X95102381Y-51667381D01*
D14*
X57538095Y-34852381D02*
X58109524Y-34852381D01*
X57823809Y-35852381D02*
X57823809Y-34852381D01*
X58442857Y-35852381D02*
X58442857Y-34852381D01*
X58823810Y-34852381D01*
X58919048Y-34900000D01*
X58966667Y-34947619D01*
X59014286Y-35042857D01*
X59014286Y-35185714D01*
X58966667Y-35280952D01*
X58919048Y-35328571D01*
X58823810Y-35376190D01*
X58442857Y-35376190D01*
X59966667Y-35852381D02*
X59395238Y-35852381D01*
X59680952Y-35852381D02*
X59680952Y-34852381D01*
X59585714Y-34995238D01*
X59490476Y-35090476D01*
X59395238Y-35138095D01*
X60938095Y-34852381D02*
X61509524Y-34852381D01*
X61223809Y-35852381D02*
X61223809Y-34852381D01*
X61842857Y-35852381D02*
X61842857Y-34852381D01*
X62223810Y-34852381D01*
X62319048Y-34900000D01*
X62366667Y-34947619D01*
X62414286Y-35042857D01*
X62414286Y-35185714D01*
X62366667Y-35280952D01*
X62319048Y-35328571D01*
X62223810Y-35376190D01*
X61842857Y-35376190D01*
X62795238Y-34947619D02*
X62842857Y-34900000D01*
X62938095Y-34852381D01*
X63176191Y-34852381D01*
X63271429Y-34900000D01*
X63319048Y-34947619D01*
X63366667Y-35042857D01*
X63366667Y-35138095D01*
X63319048Y-35280952D01*
X62747619Y-35852381D01*
X63366667Y-35852381D01*
X64338095Y-34852381D02*
X64909524Y-34852381D01*
X64623809Y-35852381D02*
X64623809Y-34852381D01*
X65242857Y-35852381D02*
X65242857Y-34852381D01*
X65623810Y-34852381D01*
X65719048Y-34900000D01*
X65766667Y-34947619D01*
X65814286Y-35042857D01*
X65814286Y-35185714D01*
X65766667Y-35280952D01*
X65719048Y-35328571D01*
X65623810Y-35376190D01*
X65242857Y-35376190D01*
X66147619Y-34852381D02*
X66766667Y-34852381D01*
X66433333Y-35233333D01*
X66576191Y-35233333D01*
X66671429Y-35280952D01*
X66719048Y-35328571D01*
X66766667Y-35423810D01*
X66766667Y-35661905D01*
X66719048Y-35757143D01*
X66671429Y-35804762D01*
X66576191Y-35852381D01*
X66290476Y-35852381D01*
X66195238Y-35804762D01*
X66147619Y-35757143D01*
X47202381Y-108611905D02*
X47202381Y-108040476D01*
X48202381Y-108326191D02*
X47202381Y-108326191D01*
X48202381Y-107707143D02*
X47202381Y-107707143D01*
X47202381Y-107326190D01*
X47250000Y-107230952D01*
X47297619Y-107183333D01*
X47392857Y-107135714D01*
X47535714Y-107135714D01*
X47630952Y-107183333D01*
X47678571Y-107230952D01*
X47726190Y-107326190D01*
X47726190Y-107707143D01*
X47535714Y-106278571D02*
X48202381Y-106278571D01*
X47154762Y-106516667D02*
X47869048Y-106754762D01*
X47869048Y-106135714D01*
X47202381Y-105411905D02*
X47202381Y-104840476D01*
X48202381Y-105126191D02*
X47202381Y-105126191D01*
X48202381Y-104507143D02*
X47202381Y-104507143D01*
X47202381Y-104126190D01*
X47250000Y-104030952D01*
X47297619Y-103983333D01*
X47392857Y-103935714D01*
X47535714Y-103935714D01*
X47630952Y-103983333D01*
X47678571Y-104030952D01*
X47726190Y-104126190D01*
X47726190Y-104507143D01*
X47202381Y-103030952D02*
X47202381Y-103507143D01*
X47678571Y-103554762D01*
X47630952Y-103507143D01*
X47583333Y-103411905D01*
X47583333Y-103173809D01*
X47630952Y-103078571D01*
X47678571Y-103030952D01*
X47773810Y-102983333D01*
X48011905Y-102983333D01*
X48107143Y-103030952D01*
X48154762Y-103078571D01*
X48202381Y-103173809D01*
X48202381Y-103411905D01*
X48154762Y-103507143D01*
X48107143Y-103554762D01*
X47202381Y-102111905D02*
X47202381Y-101540476D01*
X48202381Y-101826191D02*
X47202381Y-101826191D01*
X48202381Y-101207143D02*
X47202381Y-101207143D01*
X47202381Y-100826190D01*
X47250000Y-100730952D01*
X47297619Y-100683333D01*
X47392857Y-100635714D01*
X47535714Y-100635714D01*
X47630952Y-100683333D01*
X47678571Y-100730952D01*
X47726190Y-100826190D01*
X47726190Y-101207143D01*
X47202381Y-99778571D02*
X47202381Y-99969048D01*
X47250000Y-100064286D01*
X47297619Y-100111905D01*
X47440476Y-100207143D01*
X47630952Y-100254762D01*
X48011905Y-100254762D01*
X48107143Y-100207143D01*
X48154762Y-100159524D01*
X48202381Y-100064286D01*
X48202381Y-99873809D01*
X48154762Y-99778571D01*
X48107143Y-99730952D01*
X48011905Y-99683333D01*
X47773810Y-99683333D01*
X47678571Y-99730952D01*
X47630952Y-99778571D01*
X47583333Y-99873809D01*
X47583333Y-100064286D01*
X47630952Y-100159524D01*
X47678571Y-100207143D01*
X47773810Y-100254762D01*
X50852381Y-112061905D02*
X50852381Y-111490476D01*
X51852381Y-111776191D02*
X50852381Y-111776191D01*
X51852381Y-111157143D02*
X50852381Y-111157143D01*
X50852381Y-110776190D01*
X50900000Y-110680952D01*
X50947619Y-110633333D01*
X51042857Y-110585714D01*
X51185714Y-110585714D01*
X51280952Y-110633333D01*
X51328571Y-110680952D01*
X51376190Y-110776190D01*
X51376190Y-111157143D01*
X50852381Y-110252381D02*
X50852381Y-109585714D01*
X51852381Y-110014286D01*
X47202381Y-112011905D02*
X47202381Y-111440476D01*
X48202381Y-111726191D02*
X47202381Y-111726191D01*
X48202381Y-111107143D02*
X47202381Y-111107143D01*
X47202381Y-110726190D01*
X47250000Y-110630952D01*
X47297619Y-110583333D01*
X47392857Y-110535714D01*
X47535714Y-110535714D01*
X47630952Y-110583333D01*
X47678571Y-110630952D01*
X47726190Y-110726190D01*
X47726190Y-111107143D01*
X47630952Y-109964286D02*
X47583333Y-110059524D01*
X47535714Y-110107143D01*
X47440476Y-110154762D01*
X47392857Y-110154762D01*
X47297619Y-110107143D01*
X47250000Y-110059524D01*
X47202381Y-109964286D01*
X47202381Y-109773809D01*
X47250000Y-109678571D01*
X47297619Y-109630952D01*
X47392857Y-109583333D01*
X47440476Y-109583333D01*
X47535714Y-109630952D01*
X47583333Y-109678571D01*
X47630952Y-109773809D01*
X47630952Y-109964286D01*
X47678571Y-110059524D01*
X47726190Y-110107143D01*
X47821429Y-110154762D01*
X48011905Y-110154762D01*
X48107143Y-110107143D01*
X48154762Y-110059524D01*
X48202381Y-109964286D01*
X48202381Y-109773809D01*
X48154762Y-109678571D01*
X48107143Y-109630952D01*
X48011905Y-109583333D01*
X47821429Y-109583333D01*
X47726190Y-109630952D01*
X47678571Y-109678571D01*
X47630952Y-109773809D01*
X47252381Y-98461905D02*
X47252381Y-97890476D01*
X48252381Y-98176191D02*
X47252381Y-98176191D01*
X48252381Y-97557143D02*
X47252381Y-97557143D01*
X47252381Y-97176190D01*
X47300000Y-97080952D01*
X47347619Y-97033333D01*
X47442857Y-96985714D01*
X47585714Y-96985714D01*
X47680952Y-97033333D01*
X47728571Y-97080952D01*
X47776190Y-97176190D01*
X47776190Y-97557143D01*
X48252381Y-96509524D02*
X48252381Y-96319048D01*
X48204762Y-96223809D01*
X48157143Y-96176190D01*
X48014286Y-96080952D01*
X47823810Y-96033333D01*
X47442857Y-96033333D01*
X47347619Y-96080952D01*
X47300000Y-96128571D01*
X47252381Y-96223809D01*
X47252381Y-96414286D01*
X47300000Y-96509524D01*
X47347619Y-96557143D01*
X47442857Y-96604762D01*
X47680952Y-96604762D01*
X47776190Y-96557143D01*
X47823810Y-96509524D01*
X47871429Y-96414286D01*
X47871429Y-96223809D01*
X47823810Y-96128571D01*
X47776190Y-96080952D01*
X47680952Y-96033333D01*
X115861905Y-42852381D02*
X116433334Y-42852381D01*
X116147619Y-43852381D02*
X116147619Y-42852381D01*
X116766667Y-43852381D02*
X116766667Y-42852381D01*
X117147620Y-42852381D01*
X117242858Y-42900000D01*
X117290477Y-42947619D01*
X117338096Y-43042857D01*
X117338096Y-43185714D01*
X117290477Y-43280952D01*
X117242858Y-43328571D01*
X117147620Y-43376190D01*
X116766667Y-43376190D01*
X118290477Y-43852381D02*
X117719048Y-43852381D01*
X118004762Y-43852381D02*
X118004762Y-42852381D01*
X117909524Y-42995238D01*
X117814286Y-43090476D01*
X117719048Y-43138095D01*
X118909524Y-42852381D02*
X119004763Y-42852381D01*
X119100001Y-42900000D01*
X119147620Y-42947619D01*
X119195239Y-43042857D01*
X119242858Y-43233333D01*
X119242858Y-43471429D01*
X119195239Y-43661905D01*
X119147620Y-43757143D01*
X119100001Y-43804762D01*
X119004763Y-43852381D01*
X118909524Y-43852381D01*
X118814286Y-43804762D01*
X118766667Y-43757143D01*
X118719048Y-43661905D01*
X118671429Y-43471429D01*
X118671429Y-43233333D01*
X118719048Y-43042857D01*
X118766667Y-42947619D01*
X118814286Y-42900000D01*
X118909524Y-42852381D01*
X51152381Y-102538095D02*
X51152381Y-101966666D01*
X52152381Y-102252381D02*
X51152381Y-102252381D01*
X52152381Y-101633333D02*
X51152381Y-101633333D01*
X51152381Y-101252380D01*
X51200000Y-101157142D01*
X51247619Y-101109523D01*
X51342857Y-101061904D01*
X51485714Y-101061904D01*
X51580952Y-101109523D01*
X51628571Y-101157142D01*
X51676190Y-101252380D01*
X51676190Y-101633333D01*
X51247619Y-100680952D02*
X51200000Y-100633333D01*
X51152381Y-100538095D01*
X51152381Y-100299999D01*
X51200000Y-100204761D01*
X51247619Y-100157142D01*
X51342857Y-100109523D01*
X51438095Y-100109523D01*
X51580952Y-100157142D01*
X52152381Y-100728571D01*
X52152381Y-100109523D01*
X51152381Y-99776190D02*
X51152381Y-99157142D01*
X51533333Y-99490476D01*
X51533333Y-99347618D01*
X51580952Y-99252380D01*
X51628571Y-99204761D01*
X51723810Y-99157142D01*
X51961905Y-99157142D01*
X52057143Y-99204761D01*
X52104762Y-99252380D01*
X52152381Y-99347618D01*
X52152381Y-99633333D01*
X52104762Y-99728571D01*
X52057143Y-99776190D01*
X106661905Y-55452381D02*
X107233334Y-55452381D01*
X106947619Y-56452381D02*
X106947619Y-55452381D01*
X107566667Y-56452381D02*
X107566667Y-55452381D01*
X107947620Y-55452381D01*
X108042858Y-55500000D01*
X108090477Y-55547619D01*
X108138096Y-55642857D01*
X108138096Y-55785714D01*
X108090477Y-55880952D01*
X108042858Y-55928571D01*
X107947620Y-55976190D01*
X107566667Y-55976190D01*
X108519048Y-55547619D02*
X108566667Y-55500000D01*
X108661905Y-55452381D01*
X108900001Y-55452381D01*
X108995239Y-55500000D01*
X109042858Y-55547619D01*
X109090477Y-55642857D01*
X109090477Y-55738095D01*
X109042858Y-55880952D01*
X108471429Y-56452381D01*
X109090477Y-56452381D01*
X109566667Y-56452381D02*
X109757143Y-56452381D01*
X109852382Y-56404762D01*
X109900001Y-56357143D01*
X109995239Y-56214286D01*
X110042858Y-56023810D01*
X110042858Y-55642857D01*
X109995239Y-55547619D01*
X109947620Y-55500000D01*
X109852382Y-55452381D01*
X109661905Y-55452381D01*
X109566667Y-55500000D01*
X109519048Y-55547619D01*
X109471429Y-55642857D01*
X109471429Y-55880952D01*
X109519048Y-55976190D01*
X109566667Y-56023810D01*
X109661905Y-56071429D01*
X109852382Y-56071429D01*
X109947620Y-56023810D01*
X109995239Y-55976190D01*
X110042858Y-55880952D01*
X51252381Y-98338095D02*
X51252381Y-97766666D01*
X52252381Y-98052381D02*
X51252381Y-98052381D01*
X52252381Y-97433333D02*
X51252381Y-97433333D01*
X51252381Y-97052380D01*
X51300000Y-96957142D01*
X51347619Y-96909523D01*
X51442857Y-96861904D01*
X51585714Y-96861904D01*
X51680952Y-96909523D01*
X51728571Y-96957142D01*
X51776190Y-97052380D01*
X51776190Y-97433333D01*
X51252381Y-96528571D02*
X51252381Y-95909523D01*
X51633333Y-96242857D01*
X51633333Y-96099999D01*
X51680952Y-96004761D01*
X51728571Y-95957142D01*
X51823810Y-95909523D01*
X52061905Y-95909523D01*
X52157143Y-95957142D01*
X52204762Y-96004761D01*
X52252381Y-96099999D01*
X52252381Y-96385714D01*
X52204762Y-96480952D01*
X52157143Y-96528571D01*
X51252381Y-95290476D02*
X51252381Y-95195237D01*
X51300000Y-95099999D01*
X51347619Y-95052380D01*
X51442857Y-95004761D01*
X51633333Y-94957142D01*
X51871429Y-94957142D01*
X52061905Y-95004761D01*
X52157143Y-95052380D01*
X52204762Y-95099999D01*
X52252381Y-95195237D01*
X52252381Y-95290476D01*
X52204762Y-95385714D01*
X52157143Y-95433333D01*
X52061905Y-95480952D01*
X51871429Y-95528571D01*
X51633333Y-95528571D01*
X51442857Y-95480952D01*
X51347619Y-95433333D01*
X51300000Y-95385714D01*
X51252381Y-95290476D01*
X51252381Y-106638095D02*
X51252381Y-106066666D01*
X52252381Y-106352381D02*
X51252381Y-106352381D01*
X52252381Y-105733333D02*
X51252381Y-105733333D01*
X51252381Y-105352380D01*
X51300000Y-105257142D01*
X51347619Y-105209523D01*
X51442857Y-105161904D01*
X51585714Y-105161904D01*
X51680952Y-105209523D01*
X51728571Y-105257142D01*
X51776190Y-105352380D01*
X51776190Y-105733333D01*
X51252381Y-104828571D02*
X51252381Y-104209523D01*
X51633333Y-104542857D01*
X51633333Y-104399999D01*
X51680952Y-104304761D01*
X51728571Y-104257142D01*
X51823810Y-104209523D01*
X52061905Y-104209523D01*
X52157143Y-104257142D01*
X52204762Y-104304761D01*
X52252381Y-104399999D01*
X52252381Y-104685714D01*
X52204762Y-104780952D01*
X52157143Y-104828571D01*
X51252381Y-103876190D02*
X51252381Y-103209523D01*
X52252381Y-103638095D01*
X54252381Y-112538095D02*
X54252381Y-111966666D01*
X55252381Y-112252381D02*
X54252381Y-112252381D01*
X55252381Y-111633333D02*
X54252381Y-111633333D01*
X54252381Y-111252380D01*
X54300000Y-111157142D01*
X54347619Y-111109523D01*
X54442857Y-111061904D01*
X54585714Y-111061904D01*
X54680952Y-111109523D01*
X54728571Y-111157142D01*
X54776190Y-111252380D01*
X54776190Y-111633333D01*
X54252381Y-110728571D02*
X54252381Y-110109523D01*
X54633333Y-110442857D01*
X54633333Y-110299999D01*
X54680952Y-110204761D01*
X54728571Y-110157142D01*
X54823810Y-110109523D01*
X55061905Y-110109523D01*
X55157143Y-110157142D01*
X55204762Y-110204761D01*
X55252381Y-110299999D01*
X55252381Y-110585714D01*
X55204762Y-110680952D01*
X55157143Y-110728571D01*
X54680952Y-109538095D02*
X54633333Y-109633333D01*
X54585714Y-109680952D01*
X54490476Y-109728571D01*
X54442857Y-109728571D01*
X54347619Y-109680952D01*
X54300000Y-109633333D01*
X54252381Y-109538095D01*
X54252381Y-109347618D01*
X54300000Y-109252380D01*
X54347619Y-109204761D01*
X54442857Y-109157142D01*
X54490476Y-109157142D01*
X54585714Y-109204761D01*
X54633333Y-109252380D01*
X54680952Y-109347618D01*
X54680952Y-109538095D01*
X54728571Y-109633333D01*
X54776190Y-109680952D01*
X54871429Y-109728571D01*
X55061905Y-109728571D01*
X55157143Y-109680952D01*
X55204762Y-109633333D01*
X55252381Y-109538095D01*
X55252381Y-109347618D01*
X55204762Y-109252380D01*
X55157143Y-109204761D01*
X55061905Y-109157142D01*
X54871429Y-109157142D01*
X54776190Y-109204761D01*
X54728571Y-109252380D01*
X54680952Y-109347618D01*
X62238095Y-81852381D02*
X62238095Y-82661905D01*
X62285714Y-82757143D01*
X62333333Y-82804762D01*
X62428571Y-82852381D01*
X62619048Y-82852381D01*
X62714286Y-82804762D01*
X62761905Y-82757143D01*
X62809524Y-82661905D01*
X62809524Y-81852381D01*
X63809524Y-82852381D02*
X63238095Y-82852381D01*
X63523809Y-82852381D02*
X63523809Y-81852381D01*
X63428571Y-81995238D01*
X63333333Y-82090476D01*
X63238095Y-82138095D01*
X50823809Y-91876190D02*
X50823809Y-92352381D01*
X50490476Y-91352381D02*
X50823809Y-91876190D01*
X51157143Y-91352381D01*
X52014286Y-92352381D02*
X51442857Y-92352381D01*
X51728571Y-92352381D02*
X51728571Y-91352381D01*
X51633333Y-91495238D01*
X51538095Y-91590476D01*
X51442857Y-91638095D01*
X50623809Y-82676190D02*
X50623809Y-83152381D01*
X50290476Y-82152381D02*
X50623809Y-82676190D01*
X50957143Y-82152381D01*
X51242857Y-82247619D02*
X51290476Y-82200000D01*
X51385714Y-82152381D01*
X51623810Y-82152381D01*
X51719048Y-82200000D01*
X51766667Y-82247619D01*
X51814286Y-82342857D01*
X51814286Y-82438095D01*
X51766667Y-82580952D01*
X51195238Y-83152381D01*
X51814286Y-83152381D01*
D12*
X100174524Y-52937381D02*
X98904524Y-52937381D01*
X98904524Y-52635000D01*
X98965000Y-52453572D01*
X99085952Y-52332619D01*
X99206905Y-52272143D01*
X99448810Y-52211667D01*
X99630238Y-52211667D01*
X99872143Y-52272143D01*
X99993095Y-52332619D01*
X100114048Y-52453572D01*
X100174524Y-52635000D01*
X100174524Y-52937381D01*
X99025476Y-51727857D02*
X98965000Y-51667381D01*
X98904524Y-51546429D01*
X98904524Y-51244048D01*
X98965000Y-51123095D01*
X99025476Y-51062619D01*
X99146429Y-51002143D01*
X99267381Y-51002143D01*
X99448810Y-51062619D01*
X100174524Y-51788333D01*
X100174524Y-51002143D01*
X64374524Y-69737381D02*
X63104524Y-69737381D01*
X63104524Y-69435000D01*
X63165000Y-69253572D01*
X63285952Y-69132619D01*
X63406905Y-69072143D01*
X63648810Y-69011667D01*
X63830238Y-69011667D01*
X64072143Y-69072143D01*
X64193095Y-69132619D01*
X64314048Y-69253572D01*
X64374524Y-69435000D01*
X64374524Y-69737381D01*
X63104524Y-68588333D02*
X63104524Y-67802143D01*
X63588333Y-68225476D01*
X63588333Y-68044048D01*
X63648810Y-67923095D01*
X63709286Y-67862619D01*
X63830238Y-67802143D01*
X64132619Y-67802143D01*
X64253571Y-67862619D01*
X64314048Y-67923095D01*
X64374524Y-68044048D01*
X64374524Y-68406905D01*
X64314048Y-68527857D01*
X64253571Y-68588333D01*
X57262619Y-77574524D02*
X57262619Y-76304524D01*
X57565000Y-76304524D01*
X57746428Y-76365000D01*
X57867381Y-76485952D01*
X57927857Y-76606905D01*
X57988333Y-76848810D01*
X57988333Y-77030238D01*
X57927857Y-77272143D01*
X57867381Y-77393095D01*
X57746428Y-77514048D01*
X57565000Y-77574524D01*
X57262619Y-77574524D01*
X59076905Y-76727857D02*
X59076905Y-77574524D01*
X58774524Y-76244048D02*
X58472143Y-77151190D01*
X59258333Y-77151190D01*
X57262619Y-73774524D02*
X57262619Y-72504524D01*
X57565000Y-72504524D01*
X57746428Y-72565000D01*
X57867381Y-72685952D01*
X57927857Y-72806905D01*
X57988333Y-73048810D01*
X57988333Y-73230238D01*
X57927857Y-73472143D01*
X57867381Y-73593095D01*
X57746428Y-73714048D01*
X57565000Y-73774524D01*
X57262619Y-73774524D01*
X59137381Y-72504524D02*
X58532619Y-72504524D01*
X58472143Y-73109286D01*
X58532619Y-73048810D01*
X58653571Y-72988333D01*
X58955952Y-72988333D01*
X59076905Y-73048810D01*
X59137381Y-73109286D01*
X59197857Y-73230238D01*
X59197857Y-73532619D01*
X59137381Y-73653571D01*
X59076905Y-73714048D01*
X58955952Y-73774524D01*
X58653571Y-73774524D01*
X58532619Y-73714048D01*
X58472143Y-73653571D01*
X96374524Y-87937381D02*
X95104524Y-87937381D01*
X95104524Y-87635000D01*
X95165000Y-87453572D01*
X95285952Y-87332619D01*
X95406905Y-87272143D01*
X95648810Y-87211667D01*
X95830238Y-87211667D01*
X96072143Y-87272143D01*
X96193095Y-87332619D01*
X96314048Y-87453572D01*
X96374524Y-87635000D01*
X96374524Y-87937381D01*
X95104524Y-86123095D02*
X95104524Y-86365000D01*
X95165000Y-86485952D01*
X95225476Y-86546429D01*
X95406905Y-86667381D01*
X95648810Y-86727857D01*
X96132619Y-86727857D01*
X96253571Y-86667381D01*
X96314048Y-86606905D01*
X96374524Y-86485952D01*
X96374524Y-86244048D01*
X96314048Y-86123095D01*
X96253571Y-86062619D01*
X96132619Y-86002143D01*
X95830238Y-86002143D01*
X95709286Y-86062619D01*
X95648810Y-86123095D01*
X95588333Y-86244048D01*
X95588333Y-86485952D01*
X95648810Y-86606905D01*
X95709286Y-86667381D01*
X95830238Y-86727857D01*
X104774524Y-87937381D02*
X103504524Y-87937381D01*
X103504524Y-87635000D01*
X103565000Y-87453572D01*
X103685952Y-87332619D01*
X103806905Y-87272143D01*
X104048810Y-87211667D01*
X104230238Y-87211667D01*
X104472143Y-87272143D01*
X104593095Y-87332619D01*
X104714048Y-87453572D01*
X104774524Y-87635000D01*
X104774524Y-87937381D01*
X103504524Y-86788333D02*
X103504524Y-85941667D01*
X104774524Y-86485952D01*
X112774524Y-87737381D02*
X111504524Y-87737381D01*
X111504524Y-87435000D01*
X111565000Y-87253572D01*
X111685952Y-87132619D01*
X111806905Y-87072143D01*
X112048810Y-87011667D01*
X112230238Y-87011667D01*
X112472143Y-87072143D01*
X112593095Y-87132619D01*
X112714048Y-87253572D01*
X112774524Y-87435000D01*
X112774524Y-87737381D01*
X112048810Y-86285952D02*
X111988333Y-86406905D01*
X111927857Y-86467381D01*
X111806905Y-86527857D01*
X111746429Y-86527857D01*
X111625476Y-86467381D01*
X111565000Y-86406905D01*
X111504524Y-86285952D01*
X111504524Y-86044048D01*
X111565000Y-85923095D01*
X111625476Y-85862619D01*
X111746429Y-85802143D01*
X111806905Y-85802143D01*
X111927857Y-85862619D01*
X111988333Y-85923095D01*
X112048810Y-86044048D01*
X112048810Y-86285952D01*
X112109286Y-86406905D01*
X112169762Y-86467381D01*
X112290714Y-86527857D01*
X112532619Y-86527857D01*
X112653571Y-86467381D01*
X112714048Y-86406905D01*
X112774524Y-86285952D01*
X112774524Y-86044048D01*
X112714048Y-85923095D01*
X112653571Y-85862619D01*
X112532619Y-85802143D01*
X112290714Y-85802143D01*
X112169762Y-85862619D01*
X112109286Y-85923095D01*
X112048810Y-86044048D01*
X106025524Y-98835762D02*
X104755524Y-98835762D01*
X105904571Y-97505286D02*
X105965048Y-97565762D01*
X106025524Y-97747191D01*
X106025524Y-97868143D01*
X105965048Y-98049571D01*
X105844095Y-98170524D01*
X105723143Y-98231000D01*
X105481238Y-98291476D01*
X105299810Y-98291476D01*
X105057905Y-98231000D01*
X104936952Y-98170524D01*
X104816000Y-98049571D01*
X104755524Y-97868143D01*
X104755524Y-97747191D01*
X104816000Y-97565762D01*
X104876476Y-97505286D01*
X104755524Y-97081952D02*
X104755524Y-96235286D01*
X106025524Y-96779571D01*
X114325524Y-98635762D02*
X113055524Y-98635762D01*
X114204571Y-97305286D02*
X114265048Y-97365762D01*
X114325524Y-97547191D01*
X114325524Y-97668143D01*
X114265048Y-97849571D01*
X114144095Y-97970524D01*
X114023143Y-98031000D01*
X113781238Y-98091476D01*
X113599810Y-98091476D01*
X113357905Y-98031000D01*
X113236952Y-97970524D01*
X113116000Y-97849571D01*
X113055524Y-97668143D01*
X113055524Y-97547191D01*
X113116000Y-97365762D01*
X113176476Y-97305286D01*
X113599810Y-96579571D02*
X113539333Y-96700524D01*
X113478857Y-96761000D01*
X113357905Y-96821476D01*
X113297429Y-96821476D01*
X113176476Y-96761000D01*
X113116000Y-96700524D01*
X113055524Y-96579571D01*
X113055524Y-96337667D01*
X113116000Y-96216714D01*
X113176476Y-96156238D01*
X113297429Y-96095762D01*
X113357905Y-96095762D01*
X113478857Y-96156238D01*
X113539333Y-96216714D01*
X113599810Y-96337667D01*
X113599810Y-96579571D01*
X113660286Y-96700524D01*
X113720762Y-96761000D01*
X113841714Y-96821476D01*
X114083619Y-96821476D01*
X114204571Y-96761000D01*
X114265048Y-96700524D01*
X114325524Y-96579571D01*
X114325524Y-96337667D01*
X114265048Y-96216714D01*
X114204571Y-96156238D01*
X114083619Y-96095762D01*
X113841714Y-96095762D01*
X113720762Y-96156238D01*
X113660286Y-96216714D01*
X113599810Y-96337667D01*
X58879048Y-60695476D02*
X58758095Y-60635000D01*
X58637143Y-60514048D01*
X58455714Y-60332619D01*
X58334762Y-60272143D01*
X58213810Y-60272143D01*
X58274286Y-60574524D02*
X58153333Y-60514048D01*
X58032381Y-60393095D01*
X57971905Y-60151190D01*
X57971905Y-59727857D01*
X58032381Y-59485952D01*
X58153333Y-59365000D01*
X58274286Y-59304524D01*
X58516190Y-59304524D01*
X58637143Y-59365000D01*
X58758095Y-59485952D01*
X58818571Y-59727857D01*
X58818571Y-60151190D01*
X58758095Y-60393095D01*
X58637143Y-60514048D01*
X58516190Y-60574524D01*
X58274286Y-60574524D01*
X59302381Y-59425476D02*
X59362857Y-59365000D01*
X59483809Y-59304524D01*
X59786190Y-59304524D01*
X59907143Y-59365000D01*
X59967619Y-59425476D01*
X60028095Y-59546429D01*
X60028095Y-59667381D01*
X59967619Y-59848810D01*
X59241905Y-60574524D01*
X60028095Y-60574524D01*
X54479048Y-83895476D02*
X54358095Y-83835000D01*
X54237143Y-83714048D01*
X54055714Y-83532619D01*
X53934762Y-83472143D01*
X53813810Y-83472143D01*
X53874286Y-83774524D02*
X53753333Y-83714048D01*
X53632381Y-83593095D01*
X53571905Y-83351190D01*
X53571905Y-82927857D01*
X53632381Y-82685952D01*
X53753333Y-82565000D01*
X53874286Y-82504524D01*
X54116190Y-82504524D01*
X54237143Y-82565000D01*
X54358095Y-82685952D01*
X54418571Y-82927857D01*
X54418571Y-83351190D01*
X54358095Y-83593095D01*
X54237143Y-83714048D01*
X54116190Y-83774524D01*
X53874286Y-83774524D01*
X54841905Y-82504524D02*
X55628095Y-82504524D01*
X55204762Y-82988333D01*
X55386190Y-82988333D01*
X55507143Y-83048810D01*
X55567619Y-83109286D01*
X55628095Y-83230238D01*
X55628095Y-83532619D01*
X55567619Y-83653571D01*
X55507143Y-83714048D01*
X55386190Y-83774524D01*
X55023333Y-83774524D01*
X54902381Y-83714048D01*
X54841905Y-83653571D01*
D14*
X79357143Y-98702381D02*
X79023809Y-98226190D01*
X78785714Y-98702381D02*
X78785714Y-97702381D01*
X79166667Y-97702381D01*
X79261905Y-97750000D01*
X79309524Y-97797619D01*
X79357143Y-97892857D01*
X79357143Y-98035714D01*
X79309524Y-98130952D01*
X79261905Y-98178571D01*
X79166667Y-98226190D01*
X78785714Y-98226190D01*
X79738095Y-97797619D02*
X79785714Y-97750000D01*
X79880952Y-97702381D01*
X80119048Y-97702381D01*
X80214286Y-97750000D01*
X80261905Y-97797619D01*
X80309524Y-97892857D01*
X80309524Y-97988095D01*
X80261905Y-98130952D01*
X79690476Y-98702381D01*
X80309524Y-98702381D01*
X80785714Y-98702381D02*
X80976190Y-98702381D01*
X81071429Y-98654762D01*
X81119048Y-98607143D01*
X81214286Y-98464286D01*
X81261905Y-98273810D01*
X81261905Y-97892857D01*
X81214286Y-97797619D01*
X81166667Y-97750000D01*
X81071429Y-97702381D01*
X80880952Y-97702381D01*
X80785714Y-97750000D01*
X80738095Y-97797619D01*
X80690476Y-97892857D01*
X80690476Y-98130952D01*
X80738095Y-98226190D01*
X80785714Y-98273810D01*
X80880952Y-98321429D01*
X81071429Y-98321429D01*
X81166667Y-98273810D01*
X81214286Y-98226190D01*
X81261905Y-98130952D01*
X79457143Y-94602381D02*
X79123809Y-94126190D01*
X78885714Y-94602381D02*
X78885714Y-93602381D01*
X79266667Y-93602381D01*
X79361905Y-93650000D01*
X79409524Y-93697619D01*
X79457143Y-93792857D01*
X79457143Y-93935714D01*
X79409524Y-94030952D01*
X79361905Y-94078571D01*
X79266667Y-94126190D01*
X78885714Y-94126190D01*
X79790476Y-93602381D02*
X80409524Y-93602381D01*
X80076190Y-93983333D01*
X80219048Y-93983333D01*
X80314286Y-94030952D01*
X80361905Y-94078571D01*
X80409524Y-94173810D01*
X80409524Y-94411905D01*
X80361905Y-94507143D01*
X80314286Y-94554762D01*
X80219048Y-94602381D01*
X79933333Y-94602381D01*
X79838095Y-94554762D01*
X79790476Y-94507143D01*
X81028571Y-93602381D02*
X81123810Y-93602381D01*
X81219048Y-93650000D01*
X81266667Y-93697619D01*
X81314286Y-93792857D01*
X81361905Y-93983333D01*
X81361905Y-94221429D01*
X81314286Y-94411905D01*
X81266667Y-94507143D01*
X81219048Y-94554762D01*
X81123810Y-94602381D01*
X81028571Y-94602381D01*
X80933333Y-94554762D01*
X80885714Y-94507143D01*
X80838095Y-94411905D01*
X80790476Y-94221429D01*
X80790476Y-93983333D01*
X80838095Y-93792857D01*
X80885714Y-93697619D01*
X80933333Y-93650000D01*
X81028571Y-93602381D01*
X100957143Y-79802381D02*
X100623809Y-79326190D01*
X100385714Y-79802381D02*
X100385714Y-78802381D01*
X100766667Y-78802381D01*
X100861905Y-78850000D01*
X100909524Y-78897619D01*
X100957143Y-78992857D01*
X100957143Y-79135714D01*
X100909524Y-79230952D01*
X100861905Y-79278571D01*
X100766667Y-79326190D01*
X100385714Y-79326190D01*
X101290476Y-78802381D02*
X101909524Y-78802381D01*
X101576190Y-79183333D01*
X101719048Y-79183333D01*
X101814286Y-79230952D01*
X101861905Y-79278571D01*
X101909524Y-79373810D01*
X101909524Y-79611905D01*
X101861905Y-79707143D01*
X101814286Y-79754762D01*
X101719048Y-79802381D01*
X101433333Y-79802381D01*
X101338095Y-79754762D01*
X101290476Y-79707143D01*
X102861905Y-79802381D02*
X102290476Y-79802381D01*
X102576190Y-79802381D02*
X102576190Y-78802381D01*
X102480952Y-78945238D01*
X102385714Y-79040476D01*
X102290476Y-79088095D01*
X105957143Y-79802381D02*
X105623809Y-79326190D01*
X105385714Y-79802381D02*
X105385714Y-78802381D01*
X105766667Y-78802381D01*
X105861905Y-78850000D01*
X105909524Y-78897619D01*
X105957143Y-78992857D01*
X105957143Y-79135714D01*
X105909524Y-79230952D01*
X105861905Y-79278571D01*
X105766667Y-79326190D01*
X105385714Y-79326190D01*
X106290476Y-78802381D02*
X106909524Y-78802381D01*
X106576190Y-79183333D01*
X106719048Y-79183333D01*
X106814286Y-79230952D01*
X106861905Y-79278571D01*
X106909524Y-79373810D01*
X106909524Y-79611905D01*
X106861905Y-79707143D01*
X106814286Y-79754762D01*
X106719048Y-79802381D01*
X106433333Y-79802381D01*
X106338095Y-79754762D01*
X106290476Y-79707143D01*
X107290476Y-78897619D02*
X107338095Y-78850000D01*
X107433333Y-78802381D01*
X107671429Y-78802381D01*
X107766667Y-78850000D01*
X107814286Y-78897619D01*
X107861905Y-78992857D01*
X107861905Y-79088095D01*
X107814286Y-79230952D01*
X107242857Y-79802381D01*
X107861905Y-79802381D01*
X111357143Y-79802381D02*
X111023809Y-79326190D01*
X110785714Y-79802381D02*
X110785714Y-78802381D01*
X111166667Y-78802381D01*
X111261905Y-78850000D01*
X111309524Y-78897619D01*
X111357143Y-78992857D01*
X111357143Y-79135714D01*
X111309524Y-79230952D01*
X111261905Y-79278571D01*
X111166667Y-79326190D01*
X110785714Y-79326190D01*
X111690476Y-78802381D02*
X112309524Y-78802381D01*
X111976190Y-79183333D01*
X112119048Y-79183333D01*
X112214286Y-79230952D01*
X112261905Y-79278571D01*
X112309524Y-79373810D01*
X112309524Y-79611905D01*
X112261905Y-79707143D01*
X112214286Y-79754762D01*
X112119048Y-79802381D01*
X111833333Y-79802381D01*
X111738095Y-79754762D01*
X111690476Y-79707143D01*
X112642857Y-78802381D02*
X113261905Y-78802381D01*
X112928571Y-79183333D01*
X113071429Y-79183333D01*
X113166667Y-79230952D01*
X113214286Y-79278571D01*
X113261905Y-79373810D01*
X113261905Y-79611905D01*
X113214286Y-79707143D01*
X113166667Y-79754762D01*
X113071429Y-79802381D01*
X112785714Y-79802381D01*
X112690476Y-79754762D01*
X112642857Y-79707143D01*
X95557143Y-79802381D02*
X95223809Y-79326190D01*
X94985714Y-79802381D02*
X94985714Y-78802381D01*
X95366667Y-78802381D01*
X95461905Y-78850000D01*
X95509524Y-78897619D01*
X95557143Y-78992857D01*
X95557143Y-79135714D01*
X95509524Y-79230952D01*
X95461905Y-79278571D01*
X95366667Y-79326190D01*
X94985714Y-79326190D01*
X95890476Y-78802381D02*
X96509524Y-78802381D01*
X96176190Y-79183333D01*
X96319048Y-79183333D01*
X96414286Y-79230952D01*
X96461905Y-79278571D01*
X96509524Y-79373810D01*
X96509524Y-79611905D01*
X96461905Y-79707143D01*
X96414286Y-79754762D01*
X96319048Y-79802381D01*
X96033333Y-79802381D01*
X95938095Y-79754762D01*
X95890476Y-79707143D01*
X97366667Y-79135714D02*
X97366667Y-79802381D01*
X97128571Y-78754762D02*
X96890476Y-79469048D01*
X97509524Y-79469048D01*
X100007143Y-41442857D02*
X100054762Y-41490476D01*
X100102381Y-41633333D01*
X100102381Y-41728571D01*
X100054762Y-41871429D01*
X99959524Y-41966667D01*
X99864286Y-42014286D01*
X99673810Y-42061905D01*
X99530952Y-42061905D01*
X99340476Y-42014286D01*
X99245238Y-41966667D01*
X99150000Y-41871429D01*
X99102381Y-41728571D01*
X99102381Y-41633333D01*
X99150000Y-41490476D01*
X99197619Y-41442857D01*
X100102381Y-40490476D02*
X100102381Y-41061905D01*
X100102381Y-40776191D02*
X99102381Y-40776191D01*
X99245238Y-40871429D01*
X99340476Y-40966667D01*
X99388095Y-41061905D01*
X99435714Y-39633333D02*
X100102381Y-39633333D01*
X99054762Y-39871429D02*
X99769048Y-40109524D01*
X99769048Y-39490476D01*
X105407143Y-41442857D02*
X105454762Y-41490476D01*
X105502381Y-41633333D01*
X105502381Y-41728571D01*
X105454762Y-41871429D01*
X105359524Y-41966667D01*
X105264286Y-42014286D01*
X105073810Y-42061905D01*
X104930952Y-42061905D01*
X104740476Y-42014286D01*
X104645238Y-41966667D01*
X104550000Y-41871429D01*
X104502381Y-41728571D01*
X104502381Y-41633333D01*
X104550000Y-41490476D01*
X104597619Y-41442857D01*
X105502381Y-40490476D02*
X105502381Y-41061905D01*
X105502381Y-40776191D02*
X104502381Y-40776191D01*
X104645238Y-40871429D01*
X104740476Y-40966667D01*
X104788095Y-41061905D01*
X104502381Y-39585714D02*
X104502381Y-40061905D01*
X104978571Y-40109524D01*
X104930952Y-40061905D01*
X104883333Y-39966667D01*
X104883333Y-39728571D01*
X104930952Y-39633333D01*
X104978571Y-39585714D01*
X105073810Y-39538095D01*
X105311905Y-39538095D01*
X105407143Y-39585714D01*
X105454762Y-39633333D01*
X105502381Y-39728571D01*
X105502381Y-39966667D01*
X105454762Y-40061905D01*
X105407143Y-40109524D01*
X110807143Y-41442857D02*
X110854762Y-41490476D01*
X110902381Y-41633333D01*
X110902381Y-41728571D01*
X110854762Y-41871429D01*
X110759524Y-41966667D01*
X110664286Y-42014286D01*
X110473810Y-42061905D01*
X110330952Y-42061905D01*
X110140476Y-42014286D01*
X110045238Y-41966667D01*
X109950000Y-41871429D01*
X109902381Y-41728571D01*
X109902381Y-41633333D01*
X109950000Y-41490476D01*
X109997619Y-41442857D01*
X110902381Y-40490476D02*
X110902381Y-41061905D01*
X110902381Y-40776191D02*
X109902381Y-40776191D01*
X110045238Y-40871429D01*
X110140476Y-40966667D01*
X110188095Y-41061905D01*
X109902381Y-39633333D02*
X109902381Y-39823810D01*
X109950000Y-39919048D01*
X109997619Y-39966667D01*
X110140476Y-40061905D01*
X110330952Y-40109524D01*
X110711905Y-40109524D01*
X110807143Y-40061905D01*
X110854762Y-40014286D01*
X110902381Y-39919048D01*
X110902381Y-39728571D01*
X110854762Y-39633333D01*
X110807143Y-39585714D01*
X110711905Y-39538095D01*
X110473810Y-39538095D01*
X110378571Y-39585714D01*
X110330952Y-39633333D01*
X110283333Y-39728571D01*
X110283333Y-39919048D01*
X110330952Y-40014286D01*
X110378571Y-40061905D01*
X110473810Y-40109524D01*
X116207143Y-41442857D02*
X116254762Y-41490476D01*
X116302381Y-41633333D01*
X116302381Y-41728571D01*
X116254762Y-41871429D01*
X116159524Y-41966667D01*
X116064286Y-42014286D01*
X115873810Y-42061905D01*
X115730952Y-42061905D01*
X115540476Y-42014286D01*
X115445238Y-41966667D01*
X115350000Y-41871429D01*
X115302381Y-41728571D01*
X115302381Y-41633333D01*
X115350000Y-41490476D01*
X115397619Y-41442857D01*
X116302381Y-40490476D02*
X116302381Y-41061905D01*
X116302381Y-40776191D02*
X115302381Y-40776191D01*
X115445238Y-40871429D01*
X115540476Y-40966667D01*
X115588095Y-41061905D01*
X115302381Y-40157143D02*
X115302381Y-39490476D01*
X116302381Y-39919048D01*
X72357143Y-81642857D02*
X72404762Y-81690476D01*
X72452381Y-81833333D01*
X72452381Y-81928571D01*
X72404762Y-82071429D01*
X72309524Y-82166667D01*
X72214286Y-82214286D01*
X72023810Y-82261905D01*
X71880952Y-82261905D01*
X71690476Y-82214286D01*
X71595238Y-82166667D01*
X71500000Y-82071429D01*
X71452381Y-81928571D01*
X71452381Y-81833333D01*
X71500000Y-81690476D01*
X71547619Y-81642857D01*
X72452381Y-80690476D02*
X72452381Y-81261905D01*
X72452381Y-80976191D02*
X71452381Y-80976191D01*
X71595238Y-81071429D01*
X71690476Y-81166667D01*
X71738095Y-81261905D01*
X71880952Y-80119048D02*
X71833333Y-80214286D01*
X71785714Y-80261905D01*
X71690476Y-80309524D01*
X71642857Y-80309524D01*
X71547619Y-80261905D01*
X71500000Y-80214286D01*
X71452381Y-80119048D01*
X71452381Y-79928571D01*
X71500000Y-79833333D01*
X71547619Y-79785714D01*
X71642857Y-79738095D01*
X71690476Y-79738095D01*
X71785714Y-79785714D01*
X71833333Y-79833333D01*
X71880952Y-79928571D01*
X71880952Y-80119048D01*
X71928571Y-80214286D01*
X71976190Y-80261905D01*
X72071429Y-80309524D01*
X72261905Y-80309524D01*
X72357143Y-80261905D01*
X72404762Y-80214286D01*
X72452381Y-80119048D01*
X72452381Y-79928571D01*
X72404762Y-79833333D01*
X72357143Y-79785714D01*
X72261905Y-79738095D01*
X72071429Y-79738095D01*
X71976190Y-79785714D01*
X71928571Y-79833333D01*
X71880952Y-79928571D01*
X49557143Y-42607143D02*
X49509524Y-42654762D01*
X49366667Y-42702381D01*
X49271429Y-42702381D01*
X49128571Y-42654762D01*
X49033333Y-42559524D01*
X48985714Y-42464286D01*
X48938095Y-42273810D01*
X48938095Y-42130952D01*
X48985714Y-41940476D01*
X49033333Y-41845238D01*
X49128571Y-41750000D01*
X49271429Y-41702381D01*
X49366667Y-41702381D01*
X49509524Y-41750000D01*
X49557143Y-41797619D01*
X50509524Y-42702381D02*
X49938095Y-42702381D01*
X50223809Y-42702381D02*
X50223809Y-41702381D01*
X50128571Y-41845238D01*
X50033333Y-41940476D01*
X49938095Y-41988095D01*
X50985714Y-42702381D02*
X51176190Y-42702381D01*
X51271429Y-42654762D01*
X51319048Y-42607143D01*
X51414286Y-42464286D01*
X51461905Y-42273810D01*
X51461905Y-41892857D01*
X51414286Y-41797619D01*
X51366667Y-41750000D01*
X51271429Y-41702381D01*
X51080952Y-41702381D01*
X50985714Y-41750000D01*
X50938095Y-41797619D01*
X50890476Y-41892857D01*
X50890476Y-42130952D01*
X50938095Y-42226190D01*
X50985714Y-42273810D01*
X51080952Y-42321429D01*
X51271429Y-42321429D01*
X51366667Y-42273810D01*
X51414286Y-42226190D01*
X51461905Y-42130952D01*
X65707143Y-75242857D02*
X65754762Y-75290476D01*
X65802381Y-75433333D01*
X65802381Y-75528571D01*
X65754762Y-75671429D01*
X65659524Y-75766667D01*
X65564286Y-75814286D01*
X65373810Y-75861905D01*
X65230952Y-75861905D01*
X65040476Y-75814286D01*
X64945238Y-75766667D01*
X64850000Y-75671429D01*
X64802381Y-75528571D01*
X64802381Y-75433333D01*
X64850000Y-75290476D01*
X64897619Y-75242857D01*
X64897619Y-74861905D02*
X64850000Y-74814286D01*
X64802381Y-74719048D01*
X64802381Y-74480952D01*
X64850000Y-74385714D01*
X64897619Y-74338095D01*
X64992857Y-74290476D01*
X65088095Y-74290476D01*
X65230952Y-74338095D01*
X65802381Y-74909524D01*
X65802381Y-74290476D01*
X64802381Y-73671429D02*
X64802381Y-73576190D01*
X64850000Y-73480952D01*
X64897619Y-73433333D01*
X64992857Y-73385714D01*
X65183333Y-73338095D01*
X65421429Y-73338095D01*
X65611905Y-73385714D01*
X65707143Y-73433333D01*
X65754762Y-73480952D01*
X65802381Y-73576190D01*
X65802381Y-73671429D01*
X65754762Y-73766667D01*
X65707143Y-73814286D01*
X65611905Y-73861905D01*
X65421429Y-73909524D01*
X65183333Y-73909524D01*
X64992857Y-73861905D01*
X64897619Y-73814286D01*
X64850000Y-73766667D01*
X64802381Y-73671429D01*
X77757143Y-69842857D02*
X77804762Y-69890476D01*
X77852381Y-70033333D01*
X77852381Y-70128571D01*
X77804762Y-70271429D01*
X77709524Y-70366667D01*
X77614286Y-70414286D01*
X77423810Y-70461905D01*
X77280952Y-70461905D01*
X77090476Y-70414286D01*
X76995238Y-70366667D01*
X76900000Y-70271429D01*
X76852381Y-70128571D01*
X76852381Y-70033333D01*
X76900000Y-69890476D01*
X76947619Y-69842857D01*
X76947619Y-69461905D02*
X76900000Y-69414286D01*
X76852381Y-69319048D01*
X76852381Y-69080952D01*
X76900000Y-68985714D01*
X76947619Y-68938095D01*
X77042857Y-68890476D01*
X77138095Y-68890476D01*
X77280952Y-68938095D01*
X77852381Y-69509524D01*
X77852381Y-68890476D01*
X77852381Y-67938095D02*
X77852381Y-68509524D01*
X77852381Y-68223810D02*
X76852381Y-68223810D01*
X76995238Y-68319048D01*
X77090476Y-68414286D01*
X77138095Y-68509524D01*
X63957143Y-52157143D02*
X63909524Y-52204762D01*
X63766667Y-52252381D01*
X63671429Y-52252381D01*
X63528571Y-52204762D01*
X63433333Y-52109524D01*
X63385714Y-52014286D01*
X63338095Y-51823810D01*
X63338095Y-51680952D01*
X63385714Y-51490476D01*
X63433333Y-51395238D01*
X63528571Y-51300000D01*
X63671429Y-51252381D01*
X63766667Y-51252381D01*
X63909524Y-51300000D01*
X63957143Y-51347619D01*
X64338095Y-51347619D02*
X64385714Y-51300000D01*
X64480952Y-51252381D01*
X64719048Y-51252381D01*
X64814286Y-51300000D01*
X64861905Y-51347619D01*
X64909524Y-51442857D01*
X64909524Y-51538095D01*
X64861905Y-51680952D01*
X64290476Y-52252381D01*
X64909524Y-52252381D01*
X65290476Y-51347619D02*
X65338095Y-51300000D01*
X65433333Y-51252381D01*
X65671429Y-51252381D01*
X65766667Y-51300000D01*
X65814286Y-51347619D01*
X65861905Y-51442857D01*
X65861905Y-51538095D01*
X65814286Y-51680952D01*
X65242857Y-52252381D01*
X65861905Y-52252381D01*
X63857143Y-47357143D02*
X63809524Y-47404762D01*
X63666667Y-47452381D01*
X63571429Y-47452381D01*
X63428571Y-47404762D01*
X63333333Y-47309524D01*
X63285714Y-47214286D01*
X63238095Y-47023810D01*
X63238095Y-46880952D01*
X63285714Y-46690476D01*
X63333333Y-46595238D01*
X63428571Y-46500000D01*
X63571429Y-46452381D01*
X63666667Y-46452381D01*
X63809524Y-46500000D01*
X63857143Y-46547619D01*
X64238095Y-46547619D02*
X64285714Y-46500000D01*
X64380952Y-46452381D01*
X64619048Y-46452381D01*
X64714286Y-46500000D01*
X64761905Y-46547619D01*
X64809524Y-46642857D01*
X64809524Y-46738095D01*
X64761905Y-46880952D01*
X64190476Y-47452381D01*
X64809524Y-47452381D01*
X65142857Y-46452381D02*
X65761905Y-46452381D01*
X65428571Y-46833333D01*
X65571429Y-46833333D01*
X65666667Y-46880952D01*
X65714286Y-46928571D01*
X65761905Y-47023810D01*
X65761905Y-47261905D01*
X65714286Y-47357143D01*
X65666667Y-47404762D01*
X65571429Y-47452381D01*
X65285714Y-47452381D01*
X65190476Y-47404762D01*
X65142857Y-47357143D01*
X80557143Y-69842857D02*
X80604762Y-69890476D01*
X80652381Y-70033333D01*
X80652381Y-70128571D01*
X80604762Y-70271429D01*
X80509524Y-70366667D01*
X80414286Y-70414286D01*
X80223810Y-70461905D01*
X80080952Y-70461905D01*
X79890476Y-70414286D01*
X79795238Y-70366667D01*
X79700000Y-70271429D01*
X79652381Y-70128571D01*
X79652381Y-70033333D01*
X79700000Y-69890476D01*
X79747619Y-69842857D01*
X79747619Y-69461905D02*
X79700000Y-69414286D01*
X79652381Y-69319048D01*
X79652381Y-69080952D01*
X79700000Y-68985714D01*
X79747619Y-68938095D01*
X79842857Y-68890476D01*
X79938095Y-68890476D01*
X80080952Y-68938095D01*
X80652381Y-69509524D01*
X80652381Y-68890476D01*
X79985714Y-68033333D02*
X80652381Y-68033333D01*
X79604762Y-68271429D02*
X80319048Y-68509524D01*
X80319048Y-67890476D01*
X63857143Y-42757143D02*
X63809524Y-42804762D01*
X63666667Y-42852381D01*
X63571429Y-42852381D01*
X63428571Y-42804762D01*
X63333333Y-42709524D01*
X63285714Y-42614286D01*
X63238095Y-42423810D01*
X63238095Y-42280952D01*
X63285714Y-42090476D01*
X63333333Y-41995238D01*
X63428571Y-41900000D01*
X63571429Y-41852381D01*
X63666667Y-41852381D01*
X63809524Y-41900000D01*
X63857143Y-41947619D01*
X64238095Y-41947619D02*
X64285714Y-41900000D01*
X64380952Y-41852381D01*
X64619048Y-41852381D01*
X64714286Y-41900000D01*
X64761905Y-41947619D01*
X64809524Y-42042857D01*
X64809524Y-42138095D01*
X64761905Y-42280952D01*
X64190476Y-42852381D01*
X64809524Y-42852381D01*
X65714286Y-41852381D02*
X65238095Y-41852381D01*
X65190476Y-42328571D01*
X65238095Y-42280952D01*
X65333333Y-42233333D01*
X65571429Y-42233333D01*
X65666667Y-42280952D01*
X65714286Y-42328571D01*
X65761905Y-42423810D01*
X65761905Y-42661905D01*
X65714286Y-42757143D01*
X65666667Y-42804762D01*
X65571429Y-42852381D01*
X65333333Y-42852381D01*
X65238095Y-42804762D01*
X65190476Y-42757143D01*
X63857143Y-37757143D02*
X63809524Y-37804762D01*
X63666667Y-37852381D01*
X63571429Y-37852381D01*
X63428571Y-37804762D01*
X63333333Y-37709524D01*
X63285714Y-37614286D01*
X63238095Y-37423810D01*
X63238095Y-37280952D01*
X63285714Y-37090476D01*
X63333333Y-36995238D01*
X63428571Y-36900000D01*
X63571429Y-36852381D01*
X63666667Y-36852381D01*
X63809524Y-36900000D01*
X63857143Y-36947619D01*
X64238095Y-36947619D02*
X64285714Y-36900000D01*
X64380952Y-36852381D01*
X64619048Y-36852381D01*
X64714286Y-36900000D01*
X64761905Y-36947619D01*
X64809524Y-37042857D01*
X64809524Y-37138095D01*
X64761905Y-37280952D01*
X64190476Y-37852381D01*
X64809524Y-37852381D01*
X65666667Y-36852381D02*
X65476190Y-36852381D01*
X65380952Y-36900000D01*
X65333333Y-36947619D01*
X65238095Y-37090476D01*
X65190476Y-37280952D01*
X65190476Y-37661905D01*
X65238095Y-37757143D01*
X65285714Y-37804762D01*
X65380952Y-37852381D01*
X65571429Y-37852381D01*
X65666667Y-37804762D01*
X65714286Y-37757143D01*
X65761905Y-37661905D01*
X65761905Y-37423810D01*
X65714286Y-37328571D01*
X65666667Y-37280952D01*
X65571429Y-37233333D01*
X65380952Y-37233333D01*
X65285714Y-37280952D01*
X65238095Y-37328571D01*
X65190476Y-37423810D01*
X63957143Y-57757143D02*
X63909524Y-57804762D01*
X63766667Y-57852381D01*
X63671429Y-57852381D01*
X63528571Y-57804762D01*
X63433333Y-57709524D01*
X63385714Y-57614286D01*
X63338095Y-57423810D01*
X63338095Y-57280952D01*
X63385714Y-57090476D01*
X63433333Y-56995238D01*
X63528571Y-56900000D01*
X63671429Y-56852381D01*
X63766667Y-56852381D01*
X63909524Y-56900000D01*
X63957143Y-56947619D01*
X64338095Y-56947619D02*
X64385714Y-56900000D01*
X64480952Y-56852381D01*
X64719048Y-56852381D01*
X64814286Y-56900000D01*
X64861905Y-56947619D01*
X64909524Y-57042857D01*
X64909524Y-57138095D01*
X64861905Y-57280952D01*
X64290476Y-57852381D01*
X64909524Y-57852381D01*
X65242857Y-56852381D02*
X65909524Y-56852381D01*
X65480952Y-57852381D01*
X86957143Y-70042857D02*
X87004762Y-70090476D01*
X87052381Y-70233333D01*
X87052381Y-70328571D01*
X87004762Y-70471429D01*
X86909524Y-70566667D01*
X86814286Y-70614286D01*
X86623810Y-70661905D01*
X86480952Y-70661905D01*
X86290476Y-70614286D01*
X86195238Y-70566667D01*
X86100000Y-70471429D01*
X86052381Y-70328571D01*
X86052381Y-70233333D01*
X86100000Y-70090476D01*
X86147619Y-70042857D01*
X86147619Y-69661905D02*
X86100000Y-69614286D01*
X86052381Y-69519048D01*
X86052381Y-69280952D01*
X86100000Y-69185714D01*
X86147619Y-69138095D01*
X86242857Y-69090476D01*
X86338095Y-69090476D01*
X86480952Y-69138095D01*
X87052381Y-69709524D01*
X87052381Y-69090476D01*
X86480952Y-68519048D02*
X86433333Y-68614286D01*
X86385714Y-68661905D01*
X86290476Y-68709524D01*
X86242857Y-68709524D01*
X86147619Y-68661905D01*
X86100000Y-68614286D01*
X86052381Y-68519048D01*
X86052381Y-68328571D01*
X86100000Y-68233333D01*
X86147619Y-68185714D01*
X86242857Y-68138095D01*
X86290476Y-68138095D01*
X86385714Y-68185714D01*
X86433333Y-68233333D01*
X86480952Y-68328571D01*
X86480952Y-68519048D01*
X86528571Y-68614286D01*
X86576190Y-68661905D01*
X86671429Y-68709524D01*
X86861905Y-68709524D01*
X86957143Y-68661905D01*
X87004762Y-68614286D01*
X87052381Y-68519048D01*
X87052381Y-68328571D01*
X87004762Y-68233333D01*
X86957143Y-68185714D01*
X86861905Y-68138095D01*
X86671429Y-68138095D01*
X86576190Y-68185714D01*
X86528571Y-68233333D01*
X86480952Y-68328571D01*
X56957143Y-67957143D02*
X56909524Y-68004762D01*
X56766667Y-68052381D01*
X56671429Y-68052381D01*
X56528571Y-68004762D01*
X56433333Y-67909524D01*
X56385714Y-67814286D01*
X56338095Y-67623810D01*
X56338095Y-67480952D01*
X56385714Y-67290476D01*
X56433333Y-67195238D01*
X56528571Y-67100000D01*
X56671429Y-67052381D01*
X56766667Y-67052381D01*
X56909524Y-67100000D01*
X56957143Y-67147619D01*
X57338095Y-67147619D02*
X57385714Y-67100000D01*
X57480952Y-67052381D01*
X57719048Y-67052381D01*
X57814286Y-67100000D01*
X57861905Y-67147619D01*
X57909524Y-67242857D01*
X57909524Y-67338095D01*
X57861905Y-67480952D01*
X57290476Y-68052381D01*
X57909524Y-68052381D01*
X58385714Y-68052381D02*
X58576190Y-68052381D01*
X58671429Y-68004762D01*
X58719048Y-67957143D01*
X58814286Y-67814286D01*
X58861905Y-67623810D01*
X58861905Y-67242857D01*
X58814286Y-67147619D01*
X58766667Y-67100000D01*
X58671429Y-67052381D01*
X58480952Y-67052381D01*
X58385714Y-67100000D01*
X58338095Y-67147619D01*
X58290476Y-67242857D01*
X58290476Y-67480952D01*
X58338095Y-67576190D01*
X58385714Y-67623810D01*
X58480952Y-67671429D01*
X58671429Y-67671429D01*
X58766667Y-67623810D01*
X58814286Y-67576190D01*
X58861905Y-67480952D01*
X63857143Y-40057143D02*
X63809524Y-40104762D01*
X63666667Y-40152381D01*
X63571429Y-40152381D01*
X63428571Y-40104762D01*
X63333333Y-40009524D01*
X63285714Y-39914286D01*
X63238095Y-39723810D01*
X63238095Y-39580952D01*
X63285714Y-39390476D01*
X63333333Y-39295238D01*
X63428571Y-39200000D01*
X63571429Y-39152381D01*
X63666667Y-39152381D01*
X63809524Y-39200000D01*
X63857143Y-39247619D01*
X64190476Y-39152381D02*
X64809524Y-39152381D01*
X64476190Y-39533333D01*
X64619048Y-39533333D01*
X64714286Y-39580952D01*
X64761905Y-39628571D01*
X64809524Y-39723810D01*
X64809524Y-39961905D01*
X64761905Y-40057143D01*
X64714286Y-40104762D01*
X64619048Y-40152381D01*
X64333333Y-40152381D01*
X64238095Y-40104762D01*
X64190476Y-40057143D01*
X65428571Y-39152381D02*
X65523810Y-39152381D01*
X65619048Y-39200000D01*
X65666667Y-39247619D01*
X65714286Y-39342857D01*
X65761905Y-39533333D01*
X65761905Y-39771429D01*
X65714286Y-39961905D01*
X65666667Y-40057143D01*
X65619048Y-40104762D01*
X65523810Y-40152381D01*
X65428571Y-40152381D01*
X65333333Y-40104762D01*
X65285714Y-40057143D01*
X65238095Y-39961905D01*
X65190476Y-39771429D01*
X65190476Y-39533333D01*
X65238095Y-39342857D01*
X65285714Y-39247619D01*
X65333333Y-39200000D01*
X65428571Y-39152381D01*
X63857143Y-44957143D02*
X63809524Y-45004762D01*
X63666667Y-45052381D01*
X63571429Y-45052381D01*
X63428571Y-45004762D01*
X63333333Y-44909524D01*
X63285714Y-44814286D01*
X63238095Y-44623810D01*
X63238095Y-44480952D01*
X63285714Y-44290476D01*
X63333333Y-44195238D01*
X63428571Y-44100000D01*
X63571429Y-44052381D01*
X63666667Y-44052381D01*
X63809524Y-44100000D01*
X63857143Y-44147619D01*
X64190476Y-44052381D02*
X64809524Y-44052381D01*
X64476190Y-44433333D01*
X64619048Y-44433333D01*
X64714286Y-44480952D01*
X64761905Y-44528571D01*
X64809524Y-44623810D01*
X64809524Y-44861905D01*
X64761905Y-44957143D01*
X64714286Y-45004762D01*
X64619048Y-45052381D01*
X64333333Y-45052381D01*
X64238095Y-45004762D01*
X64190476Y-44957143D01*
X65761905Y-45052381D02*
X65190476Y-45052381D01*
X65476190Y-45052381D02*
X65476190Y-44052381D01*
X65380952Y-44195238D01*
X65285714Y-44290476D01*
X65190476Y-44338095D01*
X63857143Y-49757143D02*
X63809524Y-49804762D01*
X63666667Y-49852381D01*
X63571429Y-49852381D01*
X63428571Y-49804762D01*
X63333333Y-49709524D01*
X63285714Y-49614286D01*
X63238095Y-49423810D01*
X63238095Y-49280952D01*
X63285714Y-49090476D01*
X63333333Y-48995238D01*
X63428571Y-48900000D01*
X63571429Y-48852381D01*
X63666667Y-48852381D01*
X63809524Y-48900000D01*
X63857143Y-48947619D01*
X64190476Y-48852381D02*
X64809524Y-48852381D01*
X64476190Y-49233333D01*
X64619048Y-49233333D01*
X64714286Y-49280952D01*
X64761905Y-49328571D01*
X64809524Y-49423810D01*
X64809524Y-49661905D01*
X64761905Y-49757143D01*
X64714286Y-49804762D01*
X64619048Y-49852381D01*
X64333333Y-49852381D01*
X64238095Y-49804762D01*
X64190476Y-49757143D01*
X65190476Y-48947619D02*
X65238095Y-48900000D01*
X65333333Y-48852381D01*
X65571429Y-48852381D01*
X65666667Y-48900000D01*
X65714286Y-48947619D01*
X65761905Y-49042857D01*
X65761905Y-49138095D01*
X65714286Y-49280952D01*
X65142857Y-49852381D01*
X65761905Y-49852381D01*
X63957143Y-54957143D02*
X63909524Y-55004762D01*
X63766667Y-55052381D01*
X63671429Y-55052381D01*
X63528571Y-55004762D01*
X63433333Y-54909524D01*
X63385714Y-54814286D01*
X63338095Y-54623810D01*
X63338095Y-54480952D01*
X63385714Y-54290476D01*
X63433333Y-54195238D01*
X63528571Y-54100000D01*
X63671429Y-54052381D01*
X63766667Y-54052381D01*
X63909524Y-54100000D01*
X63957143Y-54147619D01*
X64290476Y-54052381D02*
X64909524Y-54052381D01*
X64576190Y-54433333D01*
X64719048Y-54433333D01*
X64814286Y-54480952D01*
X64861905Y-54528571D01*
X64909524Y-54623810D01*
X64909524Y-54861905D01*
X64861905Y-54957143D01*
X64814286Y-55004762D01*
X64719048Y-55052381D01*
X64433333Y-55052381D01*
X64338095Y-55004762D01*
X64290476Y-54957143D01*
X65242857Y-54052381D02*
X65861905Y-54052381D01*
X65528571Y-54433333D01*
X65671429Y-54433333D01*
X65766667Y-54480952D01*
X65814286Y-54528571D01*
X65861905Y-54623810D01*
X65861905Y-54861905D01*
X65814286Y-54957143D01*
X65766667Y-55004762D01*
X65671429Y-55052381D01*
X65385714Y-55052381D01*
X65290476Y-55004762D01*
X65242857Y-54957143D01*
X84557143Y-82042857D02*
X84604762Y-82090476D01*
X84652381Y-82233333D01*
X84652381Y-82328571D01*
X84604762Y-82471429D01*
X84509524Y-82566667D01*
X84414286Y-82614286D01*
X84223810Y-82661905D01*
X84080952Y-82661905D01*
X83890476Y-82614286D01*
X83795238Y-82566667D01*
X83700000Y-82471429D01*
X83652381Y-82328571D01*
X83652381Y-82233333D01*
X83700000Y-82090476D01*
X83747619Y-82042857D01*
X83652381Y-81709524D02*
X83652381Y-81090476D01*
X84033333Y-81423810D01*
X84033333Y-81280952D01*
X84080952Y-81185714D01*
X84128571Y-81138095D01*
X84223810Y-81090476D01*
X84461905Y-81090476D01*
X84557143Y-81138095D01*
X84604762Y-81185714D01*
X84652381Y-81280952D01*
X84652381Y-81566667D01*
X84604762Y-81661905D01*
X84557143Y-81709524D01*
X83985714Y-80233333D02*
X84652381Y-80233333D01*
X83604762Y-80471429D02*
X84319048Y-80709524D01*
X84319048Y-80090476D01*
X44457143Y-89542857D02*
X44504762Y-89590476D01*
X44552381Y-89733333D01*
X44552381Y-89828571D01*
X44504762Y-89971429D01*
X44409524Y-90066667D01*
X44314286Y-90114286D01*
X44123810Y-90161905D01*
X43980952Y-90161905D01*
X43790476Y-90114286D01*
X43695238Y-90066667D01*
X43600000Y-89971429D01*
X43552381Y-89828571D01*
X43552381Y-89733333D01*
X43600000Y-89590476D01*
X43647619Y-89542857D01*
X43552381Y-89209524D02*
X43552381Y-88590476D01*
X43933333Y-88923810D01*
X43933333Y-88780952D01*
X43980952Y-88685714D01*
X44028571Y-88638095D01*
X44123810Y-88590476D01*
X44361905Y-88590476D01*
X44457143Y-88638095D01*
X44504762Y-88685714D01*
X44552381Y-88780952D01*
X44552381Y-89066667D01*
X44504762Y-89161905D01*
X44457143Y-89209524D01*
X43552381Y-87685714D02*
X43552381Y-88161905D01*
X44028571Y-88209524D01*
X43980952Y-88161905D01*
X43933333Y-88066667D01*
X43933333Y-87828571D01*
X43980952Y-87733333D01*
X44028571Y-87685714D01*
X44123810Y-87638095D01*
X44361905Y-87638095D01*
X44457143Y-87685714D01*
X44504762Y-87733333D01*
X44552381Y-87828571D01*
X44552381Y-88066667D01*
X44504762Y-88161905D01*
X44457143Y-88209524D01*
X44557143Y-92642857D02*
X44604762Y-92690476D01*
X44652381Y-92833333D01*
X44652381Y-92928571D01*
X44604762Y-93071429D01*
X44509524Y-93166667D01*
X44414286Y-93214286D01*
X44223810Y-93261905D01*
X44080952Y-93261905D01*
X43890476Y-93214286D01*
X43795238Y-93166667D01*
X43700000Y-93071429D01*
X43652381Y-92928571D01*
X43652381Y-92833333D01*
X43700000Y-92690476D01*
X43747619Y-92642857D01*
X43652381Y-92309524D02*
X43652381Y-91690476D01*
X44033333Y-92023810D01*
X44033333Y-91880952D01*
X44080952Y-91785714D01*
X44128571Y-91738095D01*
X44223810Y-91690476D01*
X44461905Y-91690476D01*
X44557143Y-91738095D01*
X44604762Y-91785714D01*
X44652381Y-91880952D01*
X44652381Y-92166667D01*
X44604762Y-92261905D01*
X44557143Y-92309524D01*
X43652381Y-90833333D02*
X43652381Y-91023810D01*
X43700000Y-91119048D01*
X43747619Y-91166667D01*
X43890476Y-91261905D01*
X44080952Y-91309524D01*
X44461905Y-91309524D01*
X44557143Y-91261905D01*
X44604762Y-91214286D01*
X44652381Y-91119048D01*
X44652381Y-90928571D01*
X44604762Y-90833333D01*
X44557143Y-90785714D01*
X44461905Y-90738095D01*
X44223810Y-90738095D01*
X44128571Y-90785714D01*
X44080952Y-90833333D01*
X44033333Y-90928571D01*
X44033333Y-91119048D01*
X44080952Y-91214286D01*
X44128571Y-91261905D01*
X44223810Y-91309524D01*
X44557143Y-83442857D02*
X44604762Y-83490476D01*
X44652381Y-83633333D01*
X44652381Y-83728571D01*
X44604762Y-83871429D01*
X44509524Y-83966667D01*
X44414286Y-84014286D01*
X44223810Y-84061905D01*
X44080952Y-84061905D01*
X43890476Y-84014286D01*
X43795238Y-83966667D01*
X43700000Y-83871429D01*
X43652381Y-83728571D01*
X43652381Y-83633333D01*
X43700000Y-83490476D01*
X43747619Y-83442857D01*
X43652381Y-83109524D02*
X43652381Y-82490476D01*
X44033333Y-82823810D01*
X44033333Y-82680952D01*
X44080952Y-82585714D01*
X44128571Y-82538095D01*
X44223810Y-82490476D01*
X44461905Y-82490476D01*
X44557143Y-82538095D01*
X44604762Y-82585714D01*
X44652381Y-82680952D01*
X44652381Y-82966667D01*
X44604762Y-83061905D01*
X44557143Y-83109524D01*
X43652381Y-82157143D02*
X43652381Y-81490476D01*
X44652381Y-81919048D01*
X102957143Y-63757143D02*
X102909524Y-63804762D01*
X102766667Y-63852381D01*
X102671429Y-63852381D01*
X102528571Y-63804762D01*
X102433333Y-63709524D01*
X102385714Y-63614286D01*
X102338095Y-63423810D01*
X102338095Y-63280952D01*
X102385714Y-63090476D01*
X102433333Y-62995238D01*
X102528571Y-62900000D01*
X102671429Y-62852381D01*
X102766667Y-62852381D01*
X102909524Y-62900000D01*
X102957143Y-62947619D01*
X103290476Y-62852381D02*
X103909524Y-62852381D01*
X103576190Y-63233333D01*
X103719048Y-63233333D01*
X103814286Y-63280952D01*
X103861905Y-63328571D01*
X103909524Y-63423810D01*
X103909524Y-63661905D01*
X103861905Y-63757143D01*
X103814286Y-63804762D01*
X103719048Y-63852381D01*
X103433333Y-63852381D01*
X103338095Y-63804762D01*
X103290476Y-63757143D01*
X104480952Y-63280952D02*
X104385714Y-63233333D01*
X104338095Y-63185714D01*
X104290476Y-63090476D01*
X104290476Y-63042857D01*
X104338095Y-62947619D01*
X104385714Y-62900000D01*
X104480952Y-62852381D01*
X104671429Y-62852381D01*
X104766667Y-62900000D01*
X104814286Y-62947619D01*
X104861905Y-63042857D01*
X104861905Y-63090476D01*
X104814286Y-63185714D01*
X104766667Y-63233333D01*
X104671429Y-63280952D01*
X104480952Y-63280952D01*
X104385714Y-63328571D01*
X104338095Y-63376190D01*
X104290476Y-63471429D01*
X104290476Y-63661905D01*
X104338095Y-63757143D01*
X104385714Y-63804762D01*
X104480952Y-63852381D01*
X104671429Y-63852381D01*
X104766667Y-63804762D01*
X104814286Y-63757143D01*
X104861905Y-63661905D01*
X104861905Y-63471429D01*
X104814286Y-63376190D01*
X104766667Y-63328571D01*
X104671429Y-63280952D01*
X44457143Y-86442857D02*
X44504762Y-86490476D01*
X44552381Y-86633333D01*
X44552381Y-86728571D01*
X44504762Y-86871429D01*
X44409524Y-86966667D01*
X44314286Y-87014286D01*
X44123810Y-87061905D01*
X43980952Y-87061905D01*
X43790476Y-87014286D01*
X43695238Y-86966667D01*
X43600000Y-86871429D01*
X43552381Y-86728571D01*
X43552381Y-86633333D01*
X43600000Y-86490476D01*
X43647619Y-86442857D01*
X43552381Y-86109524D02*
X43552381Y-85490476D01*
X43933333Y-85823810D01*
X43933333Y-85680952D01*
X43980952Y-85585714D01*
X44028571Y-85538095D01*
X44123810Y-85490476D01*
X44361905Y-85490476D01*
X44457143Y-85538095D01*
X44504762Y-85585714D01*
X44552381Y-85680952D01*
X44552381Y-85966667D01*
X44504762Y-86061905D01*
X44457143Y-86109524D01*
X44552381Y-85014286D02*
X44552381Y-84823810D01*
X44504762Y-84728571D01*
X44457143Y-84680952D01*
X44314286Y-84585714D01*
X44123810Y-84538095D01*
X43742857Y-84538095D01*
X43647619Y-84585714D01*
X43600000Y-84633333D01*
X43552381Y-84728571D01*
X43552381Y-84919048D01*
X43600000Y-85014286D01*
X43647619Y-85061905D01*
X43742857Y-85109524D01*
X43980952Y-85109524D01*
X44076190Y-85061905D01*
X44123810Y-85014286D01*
X44171429Y-84919048D01*
X44171429Y-84728571D01*
X44123810Y-84633333D01*
X44076190Y-84585714D01*
X43980952Y-84538095D01*
X57633334Y-113902381D02*
X57300000Y-113426190D01*
X57061905Y-113902381D02*
X57061905Y-112902381D01*
X57442858Y-112902381D01*
X57538096Y-112950000D01*
X57585715Y-112997619D01*
X57633334Y-113092857D01*
X57633334Y-113235714D01*
X57585715Y-113330952D01*
X57538096Y-113378571D01*
X57442858Y-113426190D01*
X57061905Y-113426190D01*
X58538096Y-112902381D02*
X58061905Y-112902381D01*
X58014286Y-113378571D01*
X58061905Y-113330952D01*
X58157143Y-113283333D01*
X58395239Y-113283333D01*
X58490477Y-113330952D01*
X58538096Y-113378571D01*
X58585715Y-113473810D01*
X58585715Y-113711905D01*
X58538096Y-113807143D01*
X58490477Y-113854762D01*
X58395239Y-113902381D01*
X58157143Y-113902381D01*
X58061905Y-113854762D01*
X58014286Y-113807143D01*
X57533334Y-106402381D02*
X57200000Y-105926190D01*
X56961905Y-106402381D02*
X56961905Y-105402381D01*
X57342858Y-105402381D01*
X57438096Y-105450000D01*
X57485715Y-105497619D01*
X57533334Y-105592857D01*
X57533334Y-105735714D01*
X57485715Y-105830952D01*
X57438096Y-105878571D01*
X57342858Y-105926190D01*
X56961905Y-105926190D01*
X57866667Y-105402381D02*
X58533334Y-105402381D01*
X58104762Y-106402381D01*
X68733334Y-110202381D02*
X68400000Y-109726190D01*
X68161905Y-110202381D02*
X68161905Y-109202381D01*
X68542858Y-109202381D01*
X68638096Y-109250000D01*
X68685715Y-109297619D01*
X68733334Y-109392857D01*
X68733334Y-109535714D01*
X68685715Y-109630952D01*
X68638096Y-109678571D01*
X68542858Y-109726190D01*
X68161905Y-109726190D01*
X69304762Y-109630952D02*
X69209524Y-109583333D01*
X69161905Y-109535714D01*
X69114286Y-109440476D01*
X69114286Y-109392857D01*
X69161905Y-109297619D01*
X69209524Y-109250000D01*
X69304762Y-109202381D01*
X69495239Y-109202381D01*
X69590477Y-109250000D01*
X69638096Y-109297619D01*
X69685715Y-109392857D01*
X69685715Y-109440476D01*
X69638096Y-109535714D01*
X69590477Y-109583333D01*
X69495239Y-109630952D01*
X69304762Y-109630952D01*
X69209524Y-109678571D01*
X69161905Y-109726190D01*
X69114286Y-109821429D01*
X69114286Y-110011905D01*
X69161905Y-110107143D01*
X69209524Y-110154762D01*
X69304762Y-110202381D01*
X69495239Y-110202381D01*
X69590477Y-110154762D01*
X69638096Y-110107143D01*
X69685715Y-110011905D01*
X69685715Y-109821429D01*
X69638096Y-109726190D01*
X69590477Y-109678571D01*
X69495239Y-109630952D01*
X63233334Y-106402381D02*
X62900000Y-105926190D01*
X62661905Y-106402381D02*
X62661905Y-105402381D01*
X63042858Y-105402381D01*
X63138096Y-105450000D01*
X63185715Y-105497619D01*
X63233334Y-105592857D01*
X63233334Y-105735714D01*
X63185715Y-105830952D01*
X63138096Y-105878571D01*
X63042858Y-105926190D01*
X62661905Y-105926190D01*
X63709524Y-106402381D02*
X63900000Y-106402381D01*
X63995239Y-106354762D01*
X64042858Y-106307143D01*
X64138096Y-106164286D01*
X64185715Y-105973810D01*
X64185715Y-105592857D01*
X64138096Y-105497619D01*
X64090477Y-105450000D01*
X63995239Y-105402381D01*
X63804762Y-105402381D01*
X63709524Y-105450000D01*
X63661905Y-105497619D01*
X63614286Y-105592857D01*
X63614286Y-105830952D01*
X63661905Y-105926190D01*
X63709524Y-105973810D01*
X63804762Y-106021429D01*
X63995239Y-106021429D01*
X64090477Y-105973810D01*
X64138096Y-105926190D01*
X64185715Y-105830952D01*
X62657143Y-100052381D02*
X62323809Y-99576190D01*
X62085714Y-100052381D02*
X62085714Y-99052381D01*
X62466667Y-99052381D01*
X62561905Y-99100000D01*
X62609524Y-99147619D01*
X62657143Y-99242857D01*
X62657143Y-99385714D01*
X62609524Y-99480952D01*
X62561905Y-99528571D01*
X62466667Y-99576190D01*
X62085714Y-99576190D01*
X63609524Y-100052381D02*
X63038095Y-100052381D01*
X63323809Y-100052381D02*
X63323809Y-99052381D01*
X63228571Y-99195238D01*
X63133333Y-99290476D01*
X63038095Y-99338095D01*
X64228571Y-99052381D02*
X64323810Y-99052381D01*
X64419048Y-99100000D01*
X64466667Y-99147619D01*
X64514286Y-99242857D01*
X64561905Y-99433333D01*
X64561905Y-99671429D01*
X64514286Y-99861905D01*
X64466667Y-99957143D01*
X64419048Y-100004762D01*
X64323810Y-100052381D01*
X64228571Y-100052381D01*
X64133333Y-100004762D01*
X64085714Y-99957143D01*
X64038095Y-99861905D01*
X63990476Y-99671429D01*
X63990476Y-99433333D01*
X64038095Y-99242857D01*
X64085714Y-99147619D01*
X64133333Y-99100000D01*
X64228571Y-99052381D01*
X103157143Y-52202381D02*
X102823809Y-51726190D01*
X102585714Y-52202381D02*
X102585714Y-51202381D01*
X102966667Y-51202381D01*
X103061905Y-51250000D01*
X103109524Y-51297619D01*
X103157143Y-51392857D01*
X103157143Y-51535714D01*
X103109524Y-51630952D01*
X103061905Y-51678571D01*
X102966667Y-51726190D01*
X102585714Y-51726190D01*
X104109524Y-52202381D02*
X103538095Y-52202381D01*
X103823809Y-52202381D02*
X103823809Y-51202381D01*
X103728571Y-51345238D01*
X103633333Y-51440476D01*
X103538095Y-51488095D01*
X105061905Y-52202381D02*
X104490476Y-52202381D01*
X104776190Y-52202381D02*
X104776190Y-51202381D01*
X104680952Y-51345238D01*
X104585714Y-51440476D01*
X104490476Y-51488095D01*
X79257143Y-106702381D02*
X78923809Y-106226190D01*
X78685714Y-106702381D02*
X78685714Y-105702381D01*
X79066667Y-105702381D01*
X79161905Y-105750000D01*
X79209524Y-105797619D01*
X79257143Y-105892857D01*
X79257143Y-106035714D01*
X79209524Y-106130952D01*
X79161905Y-106178571D01*
X79066667Y-106226190D01*
X78685714Y-106226190D01*
X80209524Y-106702381D02*
X79638095Y-106702381D01*
X79923809Y-106702381D02*
X79923809Y-105702381D01*
X79828571Y-105845238D01*
X79733333Y-105940476D01*
X79638095Y-105988095D01*
X80590476Y-105797619D02*
X80638095Y-105750000D01*
X80733333Y-105702381D01*
X80971429Y-105702381D01*
X81066667Y-105750000D01*
X81114286Y-105797619D01*
X81161905Y-105892857D01*
X81161905Y-105988095D01*
X81114286Y-106130952D01*
X80542857Y-106702381D01*
X81161905Y-106702381D01*
X79157143Y-102852381D02*
X78823809Y-102376190D01*
X78585714Y-102852381D02*
X78585714Y-101852381D01*
X78966667Y-101852381D01*
X79061905Y-101900000D01*
X79109524Y-101947619D01*
X79157143Y-102042857D01*
X79157143Y-102185714D01*
X79109524Y-102280952D01*
X79061905Y-102328571D01*
X78966667Y-102376190D01*
X78585714Y-102376190D01*
X80109524Y-102852381D02*
X79538095Y-102852381D01*
X79823809Y-102852381D02*
X79823809Y-101852381D01*
X79728571Y-101995238D01*
X79633333Y-102090476D01*
X79538095Y-102138095D01*
X80442857Y-101852381D02*
X81061905Y-101852381D01*
X80728571Y-102233333D01*
X80871429Y-102233333D01*
X80966667Y-102280952D01*
X81014286Y-102328571D01*
X81061905Y-102423810D01*
X81061905Y-102661905D01*
X81014286Y-102757143D01*
X80966667Y-102804762D01*
X80871429Y-102852381D01*
X80585714Y-102852381D01*
X80490476Y-102804762D01*
X80442857Y-102757143D01*
X79102381Y-81642857D02*
X78626190Y-81976191D01*
X79102381Y-82214286D02*
X78102381Y-82214286D01*
X78102381Y-81833333D01*
X78150000Y-81738095D01*
X78197619Y-81690476D01*
X78292857Y-81642857D01*
X78435714Y-81642857D01*
X78530952Y-81690476D01*
X78578571Y-81738095D01*
X78626190Y-81833333D01*
X78626190Y-82214286D01*
X79102381Y-80690476D02*
X79102381Y-81261905D01*
X79102381Y-80976191D02*
X78102381Y-80976191D01*
X78245238Y-81071429D01*
X78340476Y-81166667D01*
X78388095Y-81261905D01*
X78435714Y-79833333D02*
X79102381Y-79833333D01*
X78054762Y-80071429D02*
X78769048Y-80309524D01*
X78769048Y-79690476D01*
X74757143Y-86902381D02*
X74423809Y-86426190D01*
X74185714Y-86902381D02*
X74185714Y-85902381D01*
X74566667Y-85902381D01*
X74661905Y-85950000D01*
X74709524Y-85997619D01*
X74757143Y-86092857D01*
X74757143Y-86235714D01*
X74709524Y-86330952D01*
X74661905Y-86378571D01*
X74566667Y-86426190D01*
X74185714Y-86426190D01*
X75709524Y-86902381D02*
X75138095Y-86902381D01*
X75423809Y-86902381D02*
X75423809Y-85902381D01*
X75328571Y-86045238D01*
X75233333Y-86140476D01*
X75138095Y-86188095D01*
X76614286Y-85902381D02*
X76138095Y-85902381D01*
X76090476Y-86378571D01*
X76138095Y-86330952D01*
X76233333Y-86283333D01*
X76471429Y-86283333D01*
X76566667Y-86330952D01*
X76614286Y-86378571D01*
X76661905Y-86473810D01*
X76661905Y-86711905D01*
X76614286Y-86807143D01*
X76566667Y-86854762D01*
X76471429Y-86902381D01*
X76233333Y-86902381D01*
X76138095Y-86854762D01*
X76090476Y-86807143D01*
X57157143Y-71702381D02*
X56823809Y-71226190D01*
X56585714Y-71702381D02*
X56585714Y-70702381D01*
X56966667Y-70702381D01*
X57061905Y-70750000D01*
X57109524Y-70797619D01*
X57157143Y-70892857D01*
X57157143Y-71035714D01*
X57109524Y-71130952D01*
X57061905Y-71178571D01*
X56966667Y-71226190D01*
X56585714Y-71226190D01*
X58109524Y-71702381D02*
X57538095Y-71702381D01*
X57823809Y-71702381D02*
X57823809Y-70702381D01*
X57728571Y-70845238D01*
X57633333Y-70940476D01*
X57538095Y-70988095D01*
X58966667Y-70702381D02*
X58776190Y-70702381D01*
X58680952Y-70750000D01*
X58633333Y-70797619D01*
X58538095Y-70940476D01*
X58490476Y-71130952D01*
X58490476Y-71511905D01*
X58538095Y-71607143D01*
X58585714Y-71654762D01*
X58680952Y-71702381D01*
X58871429Y-71702381D01*
X58966667Y-71654762D01*
X59014286Y-71607143D01*
X59061905Y-71511905D01*
X59061905Y-71273810D01*
X59014286Y-71178571D01*
X58966667Y-71130952D01*
X58871429Y-71083333D01*
X58680952Y-71083333D01*
X58585714Y-71130952D01*
X58538095Y-71178571D01*
X58490476Y-71273810D01*
X56957143Y-65102381D02*
X56623809Y-64626190D01*
X56385714Y-65102381D02*
X56385714Y-64102381D01*
X56766667Y-64102381D01*
X56861905Y-64150000D01*
X56909524Y-64197619D01*
X56957143Y-64292857D01*
X56957143Y-64435714D01*
X56909524Y-64530952D01*
X56861905Y-64578571D01*
X56766667Y-64626190D01*
X56385714Y-64626190D01*
X57909524Y-65102381D02*
X57338095Y-65102381D01*
X57623809Y-65102381D02*
X57623809Y-64102381D01*
X57528571Y-64245238D01*
X57433333Y-64340476D01*
X57338095Y-64388095D01*
X58242857Y-64102381D02*
X58909524Y-64102381D01*
X58480952Y-65102381D01*
X74452381Y-70042857D02*
X73976190Y-70376191D01*
X74452381Y-70614286D02*
X73452381Y-70614286D01*
X73452381Y-70233333D01*
X73500000Y-70138095D01*
X73547619Y-70090476D01*
X73642857Y-70042857D01*
X73785714Y-70042857D01*
X73880952Y-70090476D01*
X73928571Y-70138095D01*
X73976190Y-70233333D01*
X73976190Y-70614286D01*
X74452381Y-69090476D02*
X74452381Y-69661905D01*
X74452381Y-69376191D02*
X73452381Y-69376191D01*
X73595238Y-69471429D01*
X73690476Y-69566667D01*
X73738095Y-69661905D01*
X73880952Y-68519048D02*
X73833333Y-68614286D01*
X73785714Y-68661905D01*
X73690476Y-68709524D01*
X73642857Y-68709524D01*
X73547619Y-68661905D01*
X73500000Y-68614286D01*
X73452381Y-68519048D01*
X73452381Y-68328571D01*
X73500000Y-68233333D01*
X73547619Y-68185714D01*
X73642857Y-68138095D01*
X73690476Y-68138095D01*
X73785714Y-68185714D01*
X73833333Y-68233333D01*
X73880952Y-68328571D01*
X73880952Y-68519048D01*
X73928571Y-68614286D01*
X73976190Y-68661905D01*
X74071429Y-68709524D01*
X74261905Y-68709524D01*
X74357143Y-68661905D01*
X74404762Y-68614286D01*
X74452381Y-68519048D01*
X74452381Y-68328571D01*
X74404762Y-68233333D01*
X74357143Y-68185714D01*
X74261905Y-68138095D01*
X74071429Y-68138095D01*
X73976190Y-68185714D01*
X73928571Y-68233333D01*
X73880952Y-68328571D01*
X70957143Y-77452381D02*
X70623809Y-76976190D01*
X70385714Y-77452381D02*
X70385714Y-76452381D01*
X70766667Y-76452381D01*
X70861905Y-76500000D01*
X70909524Y-76547619D01*
X70957143Y-76642857D01*
X70957143Y-76785714D01*
X70909524Y-76880952D01*
X70861905Y-76928571D01*
X70766667Y-76976190D01*
X70385714Y-76976190D01*
X71909524Y-77452381D02*
X71338095Y-77452381D01*
X71623809Y-77452381D02*
X71623809Y-76452381D01*
X71528571Y-76595238D01*
X71433333Y-76690476D01*
X71338095Y-76738095D01*
X72385714Y-77452381D02*
X72576190Y-77452381D01*
X72671429Y-77404762D01*
X72719048Y-77357143D01*
X72814286Y-77214286D01*
X72861905Y-77023810D01*
X72861905Y-76642857D01*
X72814286Y-76547619D01*
X72766667Y-76500000D01*
X72671429Y-76452381D01*
X72480952Y-76452381D01*
X72385714Y-76500000D01*
X72338095Y-76547619D01*
X72290476Y-76642857D01*
X72290476Y-76880952D01*
X72338095Y-76976190D01*
X72385714Y-77023810D01*
X72480952Y-77071429D01*
X72671429Y-77071429D01*
X72766667Y-77023810D01*
X72814286Y-76976190D01*
X72861905Y-76880952D01*
X46557143Y-80002381D02*
X46223809Y-79526190D01*
X45985714Y-80002381D02*
X45985714Y-79002381D01*
X46366667Y-79002381D01*
X46461905Y-79050000D01*
X46509524Y-79097619D01*
X46557143Y-79192857D01*
X46557143Y-79335714D01*
X46509524Y-79430952D01*
X46461905Y-79478571D01*
X46366667Y-79526190D01*
X45985714Y-79526190D01*
X46938095Y-79097619D02*
X46985714Y-79050000D01*
X47080952Y-79002381D01*
X47319048Y-79002381D01*
X47414286Y-79050000D01*
X47461905Y-79097619D01*
X47509524Y-79192857D01*
X47509524Y-79288095D01*
X47461905Y-79430952D01*
X46890476Y-80002381D01*
X47509524Y-80002381D01*
X48128571Y-79002381D02*
X48223810Y-79002381D01*
X48319048Y-79050000D01*
X48366667Y-79097619D01*
X48414286Y-79192857D01*
X48461905Y-79383333D01*
X48461905Y-79621429D01*
X48414286Y-79811905D01*
X48366667Y-79907143D01*
X48319048Y-79954762D01*
X48223810Y-80002381D01*
X48128571Y-80002381D01*
X48033333Y-79954762D01*
X47985714Y-79907143D01*
X47938095Y-79811905D01*
X47890476Y-79621429D01*
X47890476Y-79383333D01*
X47938095Y-79192857D01*
X47985714Y-79097619D01*
X48033333Y-79050000D01*
X48128571Y-79002381D01*
X83852381Y-69842857D02*
X83376190Y-70176191D01*
X83852381Y-70414286D02*
X82852381Y-70414286D01*
X82852381Y-70033333D01*
X82900000Y-69938095D01*
X82947619Y-69890476D01*
X83042857Y-69842857D01*
X83185714Y-69842857D01*
X83280952Y-69890476D01*
X83328571Y-69938095D01*
X83376190Y-70033333D01*
X83376190Y-70414286D01*
X82947619Y-69461905D02*
X82900000Y-69414286D01*
X82852381Y-69319048D01*
X82852381Y-69080952D01*
X82900000Y-68985714D01*
X82947619Y-68938095D01*
X83042857Y-68890476D01*
X83138095Y-68890476D01*
X83280952Y-68938095D01*
X83852381Y-69509524D01*
X83852381Y-68890476D01*
X83852381Y-67938095D02*
X83852381Y-68509524D01*
X83852381Y-68223810D02*
X82852381Y-68223810D01*
X82995238Y-68319048D01*
X83090476Y-68414286D01*
X83138095Y-68509524D01*
X81057143Y-79002381D02*
X80723809Y-78526190D01*
X80485714Y-79002381D02*
X80485714Y-78002381D01*
X80866667Y-78002381D01*
X80961905Y-78050000D01*
X81009524Y-78097619D01*
X81057143Y-78192857D01*
X81057143Y-78335714D01*
X81009524Y-78430952D01*
X80961905Y-78478571D01*
X80866667Y-78526190D01*
X80485714Y-78526190D01*
X81438095Y-78097619D02*
X81485714Y-78050000D01*
X81580952Y-78002381D01*
X81819048Y-78002381D01*
X81914286Y-78050000D01*
X81961905Y-78097619D01*
X82009524Y-78192857D01*
X82009524Y-78288095D01*
X81961905Y-78430952D01*
X81390476Y-79002381D01*
X82009524Y-79002381D01*
X82390476Y-78097619D02*
X82438095Y-78050000D01*
X82533333Y-78002381D01*
X82771429Y-78002381D01*
X82866667Y-78050000D01*
X82914286Y-78097619D01*
X82961905Y-78192857D01*
X82961905Y-78288095D01*
X82914286Y-78430952D01*
X82342857Y-79002381D01*
X82961905Y-79002381D01*
X90052381Y-69842857D02*
X89576190Y-70176191D01*
X90052381Y-70414286D02*
X89052381Y-70414286D01*
X89052381Y-70033333D01*
X89100000Y-69938095D01*
X89147619Y-69890476D01*
X89242857Y-69842857D01*
X89385714Y-69842857D01*
X89480952Y-69890476D01*
X89528571Y-69938095D01*
X89576190Y-70033333D01*
X89576190Y-70414286D01*
X89147619Y-69461905D02*
X89100000Y-69414286D01*
X89052381Y-69319048D01*
X89052381Y-69080952D01*
X89100000Y-68985714D01*
X89147619Y-68938095D01*
X89242857Y-68890476D01*
X89338095Y-68890476D01*
X89480952Y-68938095D01*
X90052381Y-69509524D01*
X90052381Y-68890476D01*
X89052381Y-68557143D02*
X89052381Y-67938095D01*
X89433333Y-68271429D01*
X89433333Y-68128571D01*
X89480952Y-68033333D01*
X89528571Y-67985714D01*
X89623810Y-67938095D01*
X89861905Y-67938095D01*
X89957143Y-67985714D01*
X90004762Y-68033333D01*
X90052381Y-68128571D01*
X90052381Y-68414286D01*
X90004762Y-68509524D01*
X89957143Y-68557143D01*
X90957143Y-77252381D02*
X90623809Y-76776190D01*
X90385714Y-77252381D02*
X90385714Y-76252381D01*
X90766667Y-76252381D01*
X90861905Y-76300000D01*
X90909524Y-76347619D01*
X90957143Y-76442857D01*
X90957143Y-76585714D01*
X90909524Y-76680952D01*
X90861905Y-76728571D01*
X90766667Y-76776190D01*
X90385714Y-76776190D01*
X91338095Y-76347619D02*
X91385714Y-76300000D01*
X91480952Y-76252381D01*
X91719048Y-76252381D01*
X91814286Y-76300000D01*
X91861905Y-76347619D01*
X91909524Y-76442857D01*
X91909524Y-76538095D01*
X91861905Y-76680952D01*
X91290476Y-77252381D01*
X91909524Y-77252381D01*
X92766667Y-76585714D02*
X92766667Y-77252381D01*
X92528571Y-76204762D02*
X92290476Y-76919048D01*
X92909524Y-76919048D01*
X91452381Y-82442857D02*
X90976190Y-82776191D01*
X91452381Y-83014286D02*
X90452381Y-83014286D01*
X90452381Y-82633333D01*
X90500000Y-82538095D01*
X90547619Y-82490476D01*
X90642857Y-82442857D01*
X90785714Y-82442857D01*
X90880952Y-82490476D01*
X90928571Y-82538095D01*
X90976190Y-82633333D01*
X90976190Y-83014286D01*
X90547619Y-82061905D02*
X90500000Y-82014286D01*
X90452381Y-81919048D01*
X90452381Y-81680952D01*
X90500000Y-81585714D01*
X90547619Y-81538095D01*
X90642857Y-81490476D01*
X90738095Y-81490476D01*
X90880952Y-81538095D01*
X91452381Y-82109524D01*
X91452381Y-81490476D01*
X90452381Y-80585714D02*
X90452381Y-81061905D01*
X90928571Y-81109524D01*
X90880952Y-81061905D01*
X90833333Y-80966667D01*
X90833333Y-80728571D01*
X90880952Y-80633333D01*
X90928571Y-80585714D01*
X91023810Y-80538095D01*
X91261905Y-80538095D01*
X91357143Y-80585714D01*
X91404762Y-80633333D01*
X91452381Y-80728571D01*
X91452381Y-80966667D01*
X91404762Y-81061905D01*
X91357143Y-81109524D01*
X87057143Y-88002381D02*
X86723809Y-87526190D01*
X86485714Y-88002381D02*
X86485714Y-87002381D01*
X86866667Y-87002381D01*
X86961905Y-87050000D01*
X87009524Y-87097619D01*
X87057143Y-87192857D01*
X87057143Y-87335714D01*
X87009524Y-87430952D01*
X86961905Y-87478571D01*
X86866667Y-87526190D01*
X86485714Y-87526190D01*
X87438095Y-87097619D02*
X87485714Y-87050000D01*
X87580952Y-87002381D01*
X87819048Y-87002381D01*
X87914286Y-87050000D01*
X87961905Y-87097619D01*
X88009524Y-87192857D01*
X88009524Y-87288095D01*
X87961905Y-87430952D01*
X87390476Y-88002381D01*
X88009524Y-88002381D01*
X88866667Y-87002381D02*
X88676190Y-87002381D01*
X88580952Y-87050000D01*
X88533333Y-87097619D01*
X88438095Y-87240476D01*
X88390476Y-87430952D01*
X88390476Y-87811905D01*
X88438095Y-87907143D01*
X88485714Y-87954762D01*
X88580952Y-88002381D01*
X88771429Y-88002381D01*
X88866667Y-87954762D01*
X88914286Y-87907143D01*
X88961905Y-87811905D01*
X88961905Y-87573810D01*
X88914286Y-87478571D01*
X88866667Y-87430952D01*
X88771429Y-87383333D01*
X88580952Y-87383333D01*
X88485714Y-87430952D01*
X88438095Y-87478571D01*
X88390476Y-87573810D01*
X103157143Y-60302381D02*
X102823809Y-59826190D01*
X102585714Y-60302381D02*
X102585714Y-59302381D01*
X102966667Y-59302381D01*
X103061905Y-59350000D01*
X103109524Y-59397619D01*
X103157143Y-59492857D01*
X103157143Y-59635714D01*
X103109524Y-59730952D01*
X103061905Y-59778571D01*
X102966667Y-59826190D01*
X102585714Y-59826190D01*
X103538095Y-59397619D02*
X103585714Y-59350000D01*
X103680952Y-59302381D01*
X103919048Y-59302381D01*
X104014286Y-59350000D01*
X104061905Y-59397619D01*
X104109524Y-59492857D01*
X104109524Y-59588095D01*
X104061905Y-59730952D01*
X103490476Y-60302381D01*
X104109524Y-60302381D01*
X104442857Y-59302381D02*
X105109524Y-59302381D01*
X104680952Y-60302381D01*
X73722381Y-60933333D02*
X74436667Y-60933333D01*
X74579524Y-60980953D01*
X74674762Y-61076191D01*
X74722381Y-61219048D01*
X74722381Y-61314286D01*
X73722381Y-60552381D02*
X73722381Y-59933333D01*
X74103333Y-60266667D01*
X74103333Y-60123809D01*
X74150952Y-60028571D01*
X74198571Y-59980952D01*
X74293810Y-59933333D01*
X74531905Y-59933333D01*
X74627143Y-59980952D01*
X74674762Y-60028571D01*
X74722381Y-60123809D01*
X74722381Y-60409524D01*
X74674762Y-60504762D01*
X74627143Y-60552381D01*
X77122381Y-66733333D02*
X77836667Y-66733333D01*
X77979524Y-66780953D01*
X78074762Y-66876191D01*
X78122381Y-67019048D01*
X78122381Y-67114286D01*
X77455714Y-65828571D02*
X78122381Y-65828571D01*
X77074762Y-66066667D02*
X77789048Y-66304762D01*
X77789048Y-65685714D01*
X96366667Y-62582381D02*
X96366667Y-63296667D01*
X96319047Y-63439524D01*
X96223809Y-63534762D01*
X96080952Y-63582381D01*
X95985714Y-63582381D01*
X96842857Y-63582381D02*
X96842857Y-62582381D01*
X97223810Y-62582381D01*
X97319048Y-62630000D01*
X97366667Y-62677619D01*
X97414286Y-62772857D01*
X97414286Y-62915714D01*
X97366667Y-63010952D01*
X97319048Y-63058571D01*
X97223810Y-63106190D01*
X96842857Y-63106190D01*
X98366667Y-63582381D02*
X97795238Y-63582381D01*
X98080952Y-63582381D02*
X98080952Y-62582381D01*
X97985714Y-62725238D01*
X97890476Y-62820476D01*
X97795238Y-62868095D01*
X68966667Y-62382381D02*
X68966667Y-63096667D01*
X68919047Y-63239524D01*
X68823809Y-63334762D01*
X68680952Y-63382381D01*
X68585714Y-63382381D01*
X69442857Y-63382381D02*
X69442857Y-62382381D01*
X69823810Y-62382381D01*
X69919048Y-62430000D01*
X69966667Y-62477619D01*
X70014286Y-62572857D01*
X70014286Y-62715714D01*
X69966667Y-62810952D01*
X69919048Y-62858571D01*
X69823810Y-62906190D01*
X69442857Y-62906190D01*
X70395238Y-62477619D02*
X70442857Y-62430000D01*
X70538095Y-62382381D01*
X70776191Y-62382381D01*
X70871429Y-62430000D01*
X70919048Y-62477619D01*
X70966667Y-62572857D01*
X70966667Y-62668095D01*
X70919048Y-62810952D01*
X70347619Y-63382381D01*
X70966667Y-63382381D01*
X66922381Y-53433333D02*
X67636667Y-53433333D01*
X67779524Y-53480953D01*
X67874762Y-53576191D01*
X67922381Y-53719048D01*
X67922381Y-53814286D01*
X67922381Y-52957143D02*
X66922381Y-52957143D01*
X66922381Y-52576190D01*
X66970000Y-52480952D01*
X67017619Y-52433333D01*
X67112857Y-52385714D01*
X67255714Y-52385714D01*
X67350952Y-52433333D01*
X67398571Y-52480952D01*
X67446190Y-52576190D01*
X67446190Y-52957143D01*
X66922381Y-52052381D02*
X66922381Y-51433333D01*
X67303333Y-51766667D01*
X67303333Y-51623809D01*
X67350952Y-51528571D01*
X67398571Y-51480952D01*
X67493810Y-51433333D01*
X67731905Y-51433333D01*
X67827143Y-51480952D01*
X67874762Y-51528571D01*
X67922381Y-51623809D01*
X67922381Y-51909524D01*
X67874762Y-52004762D01*
X67827143Y-52052381D01*
X49766667Y-41582381D02*
X49766667Y-42296667D01*
X49719047Y-42439524D01*
X49623809Y-42534762D01*
X49480952Y-42582381D01*
X49385714Y-42582381D01*
X50242857Y-42582381D02*
X50242857Y-41582381D01*
X50623810Y-41582381D01*
X50719048Y-41630000D01*
X50766667Y-41677619D01*
X50814286Y-41772857D01*
X50814286Y-41915714D01*
X50766667Y-42010952D01*
X50719048Y-42058571D01*
X50623810Y-42106190D01*
X50242857Y-42106190D01*
X51671429Y-41915714D02*
X51671429Y-42582381D01*
X51433333Y-41534762D02*
X51195238Y-42249048D01*
X51814286Y-42249048D01*
X56861905Y-102652381D02*
X56861905Y-101652381D01*
X57100000Y-101652381D01*
X57242858Y-101700000D01*
X57338096Y-101795238D01*
X57385715Y-101890476D01*
X57433334Y-102080952D01*
X57433334Y-102223810D01*
X57385715Y-102414286D01*
X57338096Y-102509524D01*
X57242858Y-102604762D01*
X57100000Y-102652381D01*
X56861905Y-102652381D01*
X58385715Y-102652381D02*
X57814286Y-102652381D01*
X58100000Y-102652381D02*
X58100000Y-101652381D01*
X58004762Y-101795238D01*
X57909524Y-101890476D01*
X57814286Y-101938095D01*
X57833334Y-82652381D02*
X57357143Y-82652381D01*
X57357143Y-81652381D01*
X58690477Y-82652381D02*
X58119048Y-82652381D01*
X58404762Y-82652381D02*
X58404762Y-81652381D01*
X58309524Y-81795238D01*
X58214286Y-81890476D01*
X58119048Y-81938095D01*
X47852381Y-76938095D02*
X47852381Y-76366666D01*
X48852381Y-76652381D02*
X47852381Y-76652381D01*
X48852381Y-76033333D02*
X47852381Y-76033333D01*
X47852381Y-75652380D01*
X47900000Y-75557142D01*
X47947619Y-75509523D01*
X48042857Y-75461904D01*
X48185714Y-75461904D01*
X48280952Y-75509523D01*
X48328571Y-75557142D01*
X48376190Y-75652380D01*
X48376190Y-76033333D01*
X48852381Y-74509523D02*
X48852381Y-75080952D01*
X48852381Y-74795238D02*
X47852381Y-74795238D01*
X47995238Y-74890476D01*
X48090476Y-74985714D01*
X48138095Y-75080952D01*
X48852381Y-73557142D02*
X48852381Y-74128571D01*
X48852381Y-73842857D02*
X47852381Y-73842857D01*
X47995238Y-73938095D01*
X48090476Y-74033333D01*
X48138095Y-74128571D01*
X47852381Y-70338095D02*
X47852381Y-69766666D01*
X48852381Y-70052381D02*
X47852381Y-70052381D01*
X48852381Y-69433333D02*
X47852381Y-69433333D01*
X47852381Y-69052380D01*
X47900000Y-68957142D01*
X47947619Y-68909523D01*
X48042857Y-68861904D01*
X48185714Y-68861904D01*
X48280952Y-68909523D01*
X48328571Y-68957142D01*
X48376190Y-69052380D01*
X48376190Y-69433333D01*
X48852381Y-67909523D02*
X48852381Y-68480952D01*
X48852381Y-68195238D02*
X47852381Y-68195238D01*
X47995238Y-68290476D01*
X48090476Y-68385714D01*
X48138095Y-68480952D01*
X47947619Y-67528571D02*
X47900000Y-67480952D01*
X47852381Y-67385714D01*
X47852381Y-67147618D01*
X47900000Y-67052380D01*
X47947619Y-67004761D01*
X48042857Y-66957142D01*
X48138095Y-66957142D01*
X48280952Y-67004761D01*
X48852381Y-67576190D01*
X48852381Y-66957142D01*
X45652381Y-73538095D02*
X45652381Y-72966666D01*
X46652381Y-73252381D02*
X45652381Y-73252381D01*
X46652381Y-72633333D02*
X45652381Y-72633333D01*
X45652381Y-72252380D01*
X45700000Y-72157142D01*
X45747619Y-72109523D01*
X45842857Y-72061904D01*
X45985714Y-72061904D01*
X46080952Y-72109523D01*
X46128571Y-72157142D01*
X46176190Y-72252380D01*
X46176190Y-72633333D01*
X46652381Y-71109523D02*
X46652381Y-71680952D01*
X46652381Y-71395238D02*
X45652381Y-71395238D01*
X45795238Y-71490476D01*
X45890476Y-71585714D01*
X45938095Y-71680952D01*
X45652381Y-70776190D02*
X45652381Y-70157142D01*
X46033333Y-70490476D01*
X46033333Y-70347618D01*
X46080952Y-70252380D01*
X46128571Y-70204761D01*
X46223810Y-70157142D01*
X46461905Y-70157142D01*
X46557143Y-70204761D01*
X46604762Y-70252380D01*
X46652381Y-70347618D01*
X46652381Y-70633333D01*
X46604762Y-70728571D01*
X46557143Y-70776190D01*
X53852381Y-72138095D02*
X53852381Y-71566666D01*
X54852381Y-71852381D02*
X53852381Y-71852381D01*
X54852381Y-71233333D02*
X53852381Y-71233333D01*
X53852381Y-70852380D01*
X53900000Y-70757142D01*
X53947619Y-70709523D01*
X54042857Y-70661904D01*
X54185714Y-70661904D01*
X54280952Y-70709523D01*
X54328571Y-70757142D01*
X54376190Y-70852380D01*
X54376190Y-71233333D01*
X54852381Y-69709523D02*
X54852381Y-70280952D01*
X54852381Y-69995238D02*
X53852381Y-69995238D01*
X53995238Y-70090476D01*
X54090476Y-70185714D01*
X54138095Y-70280952D01*
X53852381Y-68804761D02*
X53852381Y-69280952D01*
X54328571Y-69328571D01*
X54280952Y-69280952D01*
X54233333Y-69185714D01*
X54233333Y-68947618D01*
X54280952Y-68852380D01*
X54328571Y-68804761D01*
X54423810Y-68757142D01*
X54661905Y-68757142D01*
X54757143Y-68804761D01*
X54804762Y-68852380D01*
X54852381Y-68947618D01*
X54852381Y-69185714D01*
X54804762Y-69280952D01*
X54757143Y-69328571D01*
X46252381Y-67338095D02*
X46252381Y-66766666D01*
X47252381Y-67052381D02*
X46252381Y-67052381D01*
X47252381Y-66433333D02*
X46252381Y-66433333D01*
X46252381Y-66052380D01*
X46300000Y-65957142D01*
X46347619Y-65909523D01*
X46442857Y-65861904D01*
X46585714Y-65861904D01*
X46680952Y-65909523D01*
X46728571Y-65957142D01*
X46776190Y-66052380D01*
X46776190Y-66433333D01*
X47252381Y-64909523D02*
X47252381Y-65480952D01*
X47252381Y-65195238D02*
X46252381Y-65195238D01*
X46395238Y-65290476D01*
X46490476Y-65385714D01*
X46538095Y-65480952D01*
X46252381Y-64052380D02*
X46252381Y-64242857D01*
X46300000Y-64338095D01*
X46347619Y-64385714D01*
X46490476Y-64480952D01*
X46680952Y-64528571D01*
X47061905Y-64528571D01*
X47157143Y-64480952D01*
X47204762Y-64433333D01*
X47252381Y-64338095D01*
X47252381Y-64147618D01*
X47204762Y-64052380D01*
X47157143Y-64004761D01*
X47061905Y-63957142D01*
X46823810Y-63957142D01*
X46728571Y-64004761D01*
X46680952Y-64052380D01*
X46633333Y-64147618D01*
X46633333Y-64338095D01*
X46680952Y-64433333D01*
X46728571Y-64480952D01*
X46823810Y-64528571D01*
X51652381Y-79138095D02*
X51652381Y-78566666D01*
X52652381Y-78852381D02*
X51652381Y-78852381D01*
X52652381Y-78233333D02*
X51652381Y-78233333D01*
X51652381Y-77852380D01*
X51700000Y-77757142D01*
X51747619Y-77709523D01*
X51842857Y-77661904D01*
X51985714Y-77661904D01*
X52080952Y-77709523D01*
X52128571Y-77757142D01*
X52176190Y-77852380D01*
X52176190Y-78233333D01*
X52652381Y-76709523D02*
X52652381Y-77280952D01*
X52652381Y-76995238D02*
X51652381Y-76995238D01*
X51795238Y-77090476D01*
X51890476Y-77185714D01*
X51938095Y-77280952D01*
X51652381Y-76376190D02*
X51652381Y-75709523D01*
X52652381Y-76138095D01*
X53252381Y-68138095D02*
X53252381Y-67566666D01*
X54252381Y-67852381D02*
X53252381Y-67852381D01*
X54252381Y-67233333D02*
X53252381Y-67233333D01*
X53252381Y-66852380D01*
X53300000Y-66757142D01*
X53347619Y-66709523D01*
X53442857Y-66661904D01*
X53585714Y-66661904D01*
X53680952Y-66709523D01*
X53728571Y-66757142D01*
X53776190Y-66852380D01*
X53776190Y-67233333D01*
X54252381Y-65709523D02*
X54252381Y-66280952D01*
X54252381Y-65995238D02*
X53252381Y-65995238D01*
X53395238Y-66090476D01*
X53490476Y-66185714D01*
X53538095Y-66280952D01*
X53680952Y-65138095D02*
X53633333Y-65233333D01*
X53585714Y-65280952D01*
X53490476Y-65328571D01*
X53442857Y-65328571D01*
X53347619Y-65280952D01*
X53300000Y-65233333D01*
X53252381Y-65138095D01*
X53252381Y-64947618D01*
X53300000Y-64852380D01*
X53347619Y-64804761D01*
X53442857Y-64757142D01*
X53490476Y-64757142D01*
X53585714Y-64804761D01*
X53633333Y-64852380D01*
X53680952Y-64947618D01*
X53680952Y-65138095D01*
X53728571Y-65233333D01*
X53776190Y-65280952D01*
X53871429Y-65328571D01*
X54061905Y-65328571D01*
X54157143Y-65280952D01*
X54204762Y-65233333D01*
X54252381Y-65138095D01*
X54252381Y-64947618D01*
X54204762Y-64852380D01*
X54157143Y-64804761D01*
X54061905Y-64757142D01*
X53871429Y-64757142D01*
X53776190Y-64804761D01*
X53728571Y-64852380D01*
X53680952Y-64947618D01*
D12*
X51243524Y-55606333D02*
X52150667Y-55606333D01*
X52332095Y-55666809D01*
X52453048Y-55787761D01*
X52513524Y-55969190D01*
X52513524Y-56090142D01*
X51364476Y-55062047D02*
X51304000Y-55001571D01*
X51243524Y-54880619D01*
X51243524Y-54578238D01*
X51304000Y-54457285D01*
X51364476Y-54396809D01*
X51485429Y-54336333D01*
X51606381Y-54336333D01*
X51787810Y-54396809D01*
X52513524Y-55122523D01*
X52513524Y-54336333D01*
M02*
