M48
;DRILL file {KiCad 4.0.7} date Thu Feb 22 22:51:10 2018
;FORMAT={-:-/ absolute / metric / decimal}
FMAT,2
METRIC,TZ
T1C0.400
T2C0.700
T3C0.800
T4C1.000
T5C1.500
%
G90
G05
M71
T1
X47.2Y-47.8
X48.Y-74.8
X48.6Y-52.8
X48.6Y-54.3
X48.6Y-65.6
X49.6Y-53.6
X50.2Y-55.2
X50.2Y-69.
X50.4Y-74.6
X51.Y-55.6
X51.8Y-51.8
X51.8Y-57.8
X51.8Y-66.4
X52.2Y-80.2
X52.6Y-64.4
X52.6Y-71.6
X53.6Y-75.2
X54.4Y-62.
X54.4Y-63.4
X56.6Y-27.4
X56.8Y-56.8
X56.8Y-59.4
X57.1Y-97.2
X57.8Y-102.3
X58.8Y-90.6
X59.Y-93.8
X59.7Y-88.9
X59.7Y-89.9
X60.8Y-62.8
X60.8Y-91.3
X60.8Y-97.8
X61.Y-92.8
X61.Y-93.8
X61.5Y-86.8
X61.6Y-72.
X62.4Y-89.6
X62.6Y-91.4
X63.5Y-106.
X63.8Y-78.4
X63.8Y-86.8
X63.8Y-88.
X64.Y-85.4
X64.9Y-91.4
X65.Y-86.8
X65.4Y-72.
X66.1Y-104.2
X66.2Y-106.3
X66.7Y-100.1
X66.8Y-82.2
X67.2Y-92.6
X67.2Y-96.6
X69.4Y-95.8
X70.2Y-92.8
X70.4Y-84.2
X71.8Y-85.2
X71.8Y-87.8
X72.Y-90.2
X72.4Y-93.8
X72.6Y-88.2
X73.2Y-88.8
X74.2Y-69.8
X74.4Y-98.
X75.6Y-33.5
X75.6Y-91.8
X76.Y-92.6
X76.2Y-87.4
X76.8Y-78.5
X78.5Y-70.1
X80.2Y-86.
X83.1Y-87.3
X83.4Y-89.
X84.2Y-83.8
X84.6Y-85.8
X85.9Y-78.9
X91.4Y-70.
X92.6Y-83.4
X95.6Y-95.4
X97.8Y-114.8
X98.Y-47.8
X99.2Y-87.2
X101.6Y-90.8
X104.2Y-75.2
X104.2Y-79.
X109.Y-88.
X109.2Y-79.
X120.4Y-107.
T2
X106.004Y-27.604
X109.596Y-27.604
X109.596Y-31.196
T3
X45.7Y-97.2
X45.75Y-100.85
X45.75Y-104.15
X45.75Y-107.35
X45.75Y-110.75
X49.4Y-110.8
X49.7Y-104.2
X49.8Y-100.8
X49.9Y-97.3
X53.Y-110.8
X59.Y-33.4
X62.2Y-33.4
X65.6Y-33.4
X108.4Y-58.
X117.6Y-45.4
T4
X50.6Y-37.26
X50.6Y-39.8
X69.8Y-52.6
X69.8Y-58.06
X69.8Y-60.6
X72.34Y-52.6
X74.88Y-52.6
X76.6Y-60.6
X79.14Y-60.6
X80.Y-66.4
X81.68Y-60.6
X82.54Y-66.4
X84.22Y-60.6
X85.08Y-66.4
X86.76Y-60.6
X89.3Y-60.6
X97.2Y-58.26
X97.2Y-60.8
X106.9Y-112.
X106.9Y-118.
T5
X83.2Y-31.51
X83.2Y-52.
T0
M30
